<?xml version="1.0" encoding="utf-8" standalone="no"?>
<!DOCTYPE svg PUBLIC "-//W3C//DTD SVG 1.1//EN"
  "http://www.w3.org/Graphics/SVG/1.1/DTD/svg11.dtd">
<svg xmlns:xlink="http://www.w3.org/1999/xlink" width="252pt" height="288pt" viewBox="0 0 252 288" xmlns="http://www.w3.org/2000/svg" version="1.1">
 <metadata>
  <rdf:RDF xmlns:dc="http://purl.org/dc/elements/1.1/" xmlns:cc="http://creativecommons.org/ns#" xmlns:rdf="http://www.w3.org/1999/02/22-rdf-syntax-ns#">
   <cc:Work>
    <dc:type rdf:resource="http://purl.org/dc/dcmitype/StillImage"/>
    <dc:date>2025-05-16T09:45:45.486100</dc:date>
    <dc:format>image/svg+xml</dc:format>
    <dc:creator>
     <cc:Agent>
      <dc:title>Matplotlib v3.9.2, https://matplotlib.org/</dc:title>
     </cc:Agent>
    </dc:creator>
   </cc:Work>
  </rdf:RDF>
 </metadata>
 <defs>
  <style type="text/css">*{stroke-linejoin: round; stroke-linecap: butt}</style>
 </defs>
 <g id="figure_1">
  <g id="patch_1">
   <path d="M 0 288 
L 252 288 
L 252 0 
L 0 0 
z
" style="fill: #ffffff"/>
  </g>
  <g id="axes_1">
   <g id="patch_2">
    <path d="M 31.5 256.32 
L 226.8 256.32 
L 226.8 34.56 
L 31.5 34.56 
z
" style="fill: #ffffff"/>
   </g>
   <g id="patch_3">
    <path d="M 34.755 256.32 
L 47.775 256.32 
L 47.775 246.57202 
L 34.755 246.57202 
z
" clip-path="url(#p67ab3a8a07)" style="fill: #a0c4d4"/>
   </g>
   <g id="patch_4">
    <path d="M 67.305 256.32 
L 80.325 256.32 
L 80.325 242.257288 
L 67.305 242.257288 
z
" clip-path="url(#p67ab3a8a07)" style="fill: #a0c4d4"/>
   </g>
   <g id="patch_5">
    <path d="M 99.855 256.32 
L 112.875 256.32 
L 112.875 235.272135 
L 99.855 235.272135 
z
" clip-path="url(#p67ab3a8a07)" style="fill: #a0c4d4"/>
   </g>
   <g id="patch_6">
    <path d="M 132.405 256.32 
L 145.425 256.32 
L 145.425 212.635975 
L 132.405 212.635975 
z
" clip-path="url(#p67ab3a8a07)" style="fill: #a0c4d4"/>
   </g>
   <g id="patch_7">
    <path d="M 164.955 256.32 
L 177.975 256.32 
L 177.975 163.481698 
L 164.955 163.481698 
z
" clip-path="url(#p67ab3a8a07)" style="fill: #a0c4d4"/>
   </g>
   <g id="patch_8">
    <path d="M 197.505 256.32 
L 210.525 256.32 
L 210.525 232.292347 
L 197.505 232.292347 
z
" clip-path="url(#p67ab3a8a07)" style="fill: #a0c4d4"/>
   </g>
   <g id="patch_9">
    <path d="M 47.775 256.32 
L 60.795 256.32 
L 60.795 196.788895 
L 47.775 196.788895 
z
" clip-path="url(#p67ab3a8a07)" style="fill: #6b639a"/>
   </g>
   <g id="patch_10">
    <path d="M 80.325 256.32 
L 93.345 256.32 
L 93.345 209.034446 
L 80.325 209.034446 
z
" clip-path="url(#p67ab3a8a07)" style="fill: #6b639a"/>
   </g>
   <g id="patch_11">
    <path d="M 112.875 256.32 
L 125.895 256.32 
L 125.895 69.344996 
L 112.875 69.344996 
z
" clip-path="url(#p67ab3a8a07)" style="fill: #6b639a"/>
   </g>
   <g id="patch_12">
    <path d="M 145.425 256.32 
L 158.445 256.32 
L 158.445 92.089843 
L 145.425 92.089843 
z
" clip-path="url(#p67ab3a8a07)" style="fill: #6b639a"/>
   </g>
   <g id="patch_13">
    <path d="M 177.975 256.32 
L 190.995 256.32 
L 190.995 81.443861 
L 177.975 81.443861 
z
" clip-path="url(#p67ab3a8a07)" style="fill: #6b639a"/>
   </g>
   <g id="patch_14">
    <path d="M 210.525 256.32 
L 223.545 256.32 
L 223.545 109.15477 
L 210.525 109.15477 
z
" clip-path="url(#p67ab3a8a07)" style="fill: #6b639a"/>
   </g>
   <g id="patch_15">
    <path d="M 47.775 256.32 
L 47.775 256.32 
L 47.775 256.32 
L 47.775 256.32 
z
" clip-path="url(#p67ab3a8a07)" style="fill: #a0c4d4"/>
   </g>
   <g id="patch_16">
    <path d="M 47.775 256.32 
L 47.775 256.32 
L 47.775 256.32 
L 47.775 256.32 
z
" clip-path="url(#p67ab3a8a07)" style="fill: #6b639a"/>
   </g>
   <g id="matplotlib.axis_1">
    <g id="xtick_1">
     <g id="line2d_1">
      <defs>
       <path id="mb1f595d8bf" d="M 0 0 
L 0 6 
" style="stroke: #d3d3d3; stroke-width: 2"/>
      </defs>
      <g>
       <use xlink:href="#mb1f595d8bf" x="47.775" y="256.32" style="fill: #d3d3d3; stroke: #d3d3d3; stroke-width: 2"/>
      </g>
     </g>
     <g id="text_1">
      <text style="font: 14px 'Arial'" transform="translate(37.404506 298.76521) rotate(-45)">A02m</text>
     </g>
    </g>
    <g id="xtick_2">
     <g id="line2d_2">
      <g>
       <use xlink:href="#mb1f595d8bf" x="80.325" y="256.32" style="fill: #d3d3d3; stroke: #d3d3d3; stroke-width: 2"/>
      </g>
     </g>
     <g id="text_2">
      <text style="font: 14px 'Arial'" transform="translate(71.324967 296.024287) rotate(-45)">A02n</text>
     </g>
    </g>
    <g id="xtick_3">
     <g id="line2d_3">
      <g>
       <use xlink:href="#mb1f595d8bf" x="112.875" y="256.32" style="fill: #d3d3d3; stroke: #d3d3d3; stroke-width: 2"/>
      </g>
     </g>
     <g id="text_3">
      <text style="font: 14px 'Arial'" transform="translate(103.874967 296.024287) rotate(-45)">A09a</text>
     </g>
    </g>
    <g id="xtick_4">
     <g id="line2d_4">
      <g>
       <use xlink:href="#mb1f595d8bf" x="145.425" y="256.32" style="fill: #d3d3d3; stroke: #d3d3d3; stroke-width: 2"/>
      </g>
     </g>
     <g id="text_4">
      <text style="font: 14px 'Arial'" transform="translate(136.702617 295.468987) rotate(-45)">A09c</text>
     </g>
    </g>
    <g id="xtick_5">
     <g id="line2d_5">
      <g>
       <use xlink:href="#mb1f595d8bf" x="177.975" y="256.32" style="fill: #d3d3d3; stroke: #d3d3d3; stroke-width: 2"/>
      </g>
     </g>
     <g id="text_5">
      <text style="font: 14px 'Arial'" transform="translate(170.627719 292.718784) rotate(-45)">A09l</text>
     </g>
    </g>
    <g id="xtick_6">
     <g id="line2d_6">
      <g>
       <use xlink:href="#mb1f595d8bf" x="210.525" y="256.32" style="fill: #d3d3d3; stroke: #d3d3d3; stroke-width: 2"/>
      </g>
     </g>
     <g id="text_6">
      <text style="font: 14px 'Arial'" transform="translate(201.524967 296.024287) rotate(-45)">A10a</text>
     </g>
    </g>
    <g id="text_7">
     <text style="font: 18px 'Arial'; text-anchor: middle" x="129.15" y="317.405859" transform="rotate(-0 129.15 317.405859)">target_name</text>
    </g>
   </g>
   <g id="matplotlib.axis_2">
    <g id="ytick_1">
     <g id="line2d_7">
      <defs>
       <path id="mefd43d97b6" d="M 0 0 
L -6 0 
" style="stroke: #d3d3d3; stroke-width: 2"/>
      </defs>
      <g>
       <use xlink:href="#mefd43d97b6" x="31.5" y="256.32" style="fill: #d3d3d3; stroke: #d3d3d3; stroke-width: 2"/>
      </g>
     </g>
     <g id="text_8">
      <text style="font: 14px 'Arial'; text-anchor: end" x="22" y="261.330469" transform="rotate(-0 22 261.330469)">0</text>
     </g>
    </g>
    <g id="ytick_2">
     <g id="line2d_8">
      <g>
       <use xlink:href="#mefd43d97b6" x="31.5" y="195.228356" style="fill: #d3d3d3; stroke: #d3d3d3; stroke-width: 2"/>
      </g>
     </g>
     <g id="text_9">
      <text style="font: 14px 'Arial'; text-anchor: end" x="22" y="200.238824" transform="rotate(-0 22 200.238824)">2</text>
     </g>
    </g>
    <g id="ytick_3">
     <g id="line2d_9">
      <g>
       <use xlink:href="#mefd43d97b6" x="31.5" y="134.136711" style="fill: #d3d3d3; stroke: #d3d3d3; stroke-width: 2"/>
      </g>
     </g>
     <g id="text_10">
      <text style="font: 14px 'Arial'; text-anchor: end" x="22" y="139.14718" transform="rotate(-0 22 139.14718)">4</text>
     </g>
    </g>
    <g id="ytick_4">
     <g id="line2d_10">
      <g>
       <use xlink:href="#mefd43d97b6" x="31.5" y="73.045067" style="fill: #d3d3d3; stroke: #d3d3d3; stroke-width: 2"/>
      </g>
     </g>
     <g id="text_11">
      <text style="font: 14px 'Arial'; text-anchor: end" x="22" y="78.055536" transform="rotate(-0 22 78.055536)">6</text>
     </g>
    </g>
    <g id="text_12">
     <text style="font: 18px 'Arial'; text-anchor: middle" x="6.637188" y="145.44" transform="rotate(-90 6.637188 145.44)">area</text>
    </g>
    <g id="text_13">
     <text style="font: 14px 'Arial'; text-anchor: start" x="31.5" y="31.56" transform="rotate(-0 31.5 31.56)">1e6</text>
    </g>
   </g>
   <g id="line2d_11">
    <path d="M 41.265 250.546355 
L 41.265 242.597686 
" clip-path="url(#p67ab3a8a07)" style="fill: none; stroke: #424242; stroke-width: 3; stroke-linecap: square"/>
   </g>
   <g id="line2d_12">
    <path d="M 73.815 244.298655 
L 73.815 240.215921 
" clip-path="url(#p67ab3a8a07)" style="fill: none; stroke: #424242; stroke-width: 3; stroke-linecap: square"/>
   </g>
   <g id="line2d_13">
    <path d="M 106.365 238.398666 
L 106.365 232.145604 
" clip-path="url(#p67ab3a8a07)" style="fill: none; stroke: #424242; stroke-width: 3; stroke-linecap: square"/>
   </g>
   <g id="line2d_14">
    <path d="M 138.915 215.762977 
L 138.915 209.508974 
" clip-path="url(#p67ab3a8a07)" style="fill: none; stroke: #424242; stroke-width: 3; stroke-linecap: square"/>
   </g>
   <g id="line2d_15">
    <path d="M 171.465 181.594033 
L 171.465 145.369362 
" clip-path="url(#p67ab3a8a07)" style="fill: none; stroke: #424242; stroke-width: 3; stroke-linecap: square"/>
   </g>
   <g id="line2d_16">
    <path d="M 204.015 233.188975 
L 204.015 231.395718 
" clip-path="url(#p67ab3a8a07)" style="fill: none; stroke: #424242; stroke-width: 3; stroke-linecap: square"/>
   </g>
   <g id="line2d_17">
    <path d="M 54.285 201.634602 
L 54.285 191.943187 
" clip-path="url(#p67ab3a8a07)" style="fill: none; stroke: #424242; stroke-width: 3; stroke-linecap: square"/>
   </g>
   <g id="line2d_18">
    <path d="M 86.835 213.369743 
L 86.835 204.699149 
" clip-path="url(#p67ab3a8a07)" style="fill: none; stroke: #424242; stroke-width: 3; stroke-linecap: square"/>
   </g>
   <g id="line2d_19">
    <path d="M 119.385 93.569993 
L 119.385 45.12 
" clip-path="url(#p67ab3a8a07)" style="fill: none; stroke: #424242; stroke-width: 3; stroke-linecap: square"/>
   </g>
   <g id="line2d_20">
    <path d="M 151.935 114.073343 
L 151.935 70.106344 
" clip-path="url(#p67ab3a8a07)" style="fill: none; stroke: #424242; stroke-width: 3; stroke-linecap: square"/>
   </g>
   <g id="line2d_21">
    <path d="M 184.485 83.251136 
L 184.485 79.636585 
" clip-path="url(#p67ab3a8a07)" style="fill: none; stroke: #424242; stroke-width: 3; stroke-linecap: square"/>
   </g>
   <g id="line2d_22">
    <path d="M 217.035 145.786481 
L 217.035 72.523058 
" clip-path="url(#p67ab3a8a07)" style="fill: none; stroke: #424242; stroke-width: 3; stroke-linecap: square"/>
   </g>
   <g id="patch_17">
    <path d="M 31.5 256.32 
L 31.5 34.56 
" style="fill: none; stroke: #d3d3d3; stroke-width: 2; stroke-linejoin: miter; stroke-linecap: square"/>
   </g>
   <g id="patch_18">
    <path d="M 31.5 256.32 
L 226.8 256.32 
" style="fill: none; stroke: #d3d3d3; stroke-width: 2; stroke-linejoin: miter; stroke-linecap: square"/>
   </g>
   <g id="legend_1">
    <g id="patch_19">
     <path d="M 41.3 101.629375 
L 90.470625 101.629375 
Q 93.270625 101.629375 93.270625 98.829375 
L 93.270625 44.36 
Q 93.270625 41.56 90.470625 41.56 
L 41.3 41.56 
Q 38.5 41.56 38.5 44.36 
L 38.5 98.829375 
Q 38.5 101.629375 41.3 101.629375 
z
" style="fill: #ffffff; opacity: 0.8; stroke: #d3d3d3; stroke-linejoin: miter"/>
    </g>
    <g id="text_14">
     <text style="font: 10px 'Arial'; text-anchor: start" x="55.048594" y="54.317813" transform="rotate(-0 55.048594 54.317813)">layer</text>
    </g>
    <g id="patch_20">
     <path d="M 44.1 73.443438 
L 65.1 73.443438 
L 65.1 63.643438 
L 44.1 63.643438 
z
" style="fill: #a0c4d4"/>
    </g>
    <g id="text_15">
     <text style="font: 14px 'Arial'; text-anchor: start" x="72.1" y="73.443438" transform="rotate(-0 72.1 73.443438)">L1</text>
    </g>
    <g id="patch_21">
     <path d="M 44.1 93.246875 
L 65.1 93.246875 
L 65.1 83.446875 
L 44.1 83.446875 
z
" style="fill: #6b639a"/>
    </g>
    <g id="text_16">
     <text style="font: 14px 'Arial'; text-anchor: start" x="72.1" y="93.246875" transform="rotate(-0 72.1 93.246875)">L3</text>
    </g>
   </g>
  </g>
 </g>
 <defs>
  <clipPath id="p67ab3a8a07">
   <rect x="31.5" y="34.56" width="195.3" height="221.76"/>
  </clipPath>
 </defs>
</svg>
