<?xml version="1.0" encoding="utf-8" standalone="no"?>
<!DOCTYPE svg PUBLIC "-//W3C//DTD SVG 1.1//EN"
  "http://www.w3.org/Graphics/SVG/1.1/DTD/svg11.dtd">
<svg xmlns:xlink="http://www.w3.org/1999/xlink" width="288pt" height="288pt" viewBox="0 0 288 288" xmlns="http://www.w3.org/2000/svg" version="1.1">
 <metadata>
  <rdf:RDF xmlns:dc="http://purl.org/dc/elements/1.1/" xmlns:cc="http://creativecommons.org/ns#" xmlns:rdf="http://www.w3.org/1999/02/22-rdf-syntax-ns#">
   <cc:Work>
    <dc:type rdf:resource="http://purl.org/dc/dcmitype/StillImage"/>
    <dc:date>2025-05-16T09:49:37.468082</dc:date>
    <dc:format>image/svg+xml</dc:format>
    <dc:creator>
     <cc:Agent>
      <dc:title>Matplotlib v3.9.2, https://matplotlib.org/</dc:title>
     </cc:Agent>
    </dc:creator>
   </cc:Work>
  </rdf:RDF>
 </metadata>
 <defs>
  <style type="text/css">*{stroke-linejoin: round; stroke-linecap: butt}</style>
 </defs>
 <g id="figure_1">
  <g id="patch_1">
   <path d="M 0 288 
L 288 288 
L 288 0 
L 0 0 
z
" style="fill: #ffffff"/>
  </g>
  <g id="axes_1">
   <g id="patch_2">
    <path d="M 36 256.32 
L 259.2 256.32 
L 259.2 34.56 
L 36 34.56 
z
" style="fill: #ffffff"/>
   </g>
   <g id="PathCollection_1">
    <defs>
     <path id="m09145435eb" d="M 0 3 
C 0.795609 3 1.55874 2.683901 2.12132 2.12132 
C 2.683901 1.55874 3 0.795609 3 0 
C 3 -0.795609 2.683901 -1.55874 2.12132 -2.12132 
C 1.55874 -2.683901 0.795609 -3 0 -3 
C -0.795609 -3 -1.55874 -2.683901 -2.12132 -2.12132 
C -2.683901 -1.55874 -3 -0.795609 -3 0 
C -3 0.795609 -2.683901 1.55874 -2.12132 2.12132 
C -1.55874 2.683901 -0.795609 3 0 3 
z
" style="stroke: #ffffff; stroke-width: 0.48"/>
    </defs>
    <g clip-path="url(#p332b45d28a)">
     <use xlink:href="#m09145435eb" x="60.367151" y="210.466759" style="stroke: #ffffff; stroke-width: 0.48"/>
     <use xlink:href="#m09145435eb" x="106.147075" y="210.621483" style="stroke: #ffffff; stroke-width: 0.48"/>
     <use xlink:href="#m09145435eb" x="142.696309" y="205.508245" style="stroke: #ffffff; stroke-width: 0.48"/>
     <use xlink:href="#m09145435eb" x="46.145455" y="203.417196" style="stroke: #ffffff; stroke-width: 0.48"/>
     <use xlink:href="#m09145435eb" x="216.932941" y="63.90629" style="stroke: #ffffff; stroke-width: 0.48"/>
     <use xlink:href="#m09145435eb" x="232.075957" y="62.322504" style="stroke: #ffffff; stroke-width: 0.48"/>
     <use xlink:href="#m09145435eb" x="193.83605" y="94.326726" style="stroke: #ffffff; stroke-width: 0.48"/>
     <use xlink:href="#m09145435eb" x="160.070863" y="116.909537" style="stroke: #ffffff; stroke-width: 0.48"/>
     <use xlink:href="#m09145435eb" x="233.232588" y="135.337514" style="stroke: #ffffff; stroke-width: 0.48"/>
     <use xlink:href="#m09145435eb" x="249.054545" y="127.251441" style="stroke: #ffffff; stroke-width: 0.48"/>
     <use xlink:href="#m09145435eb" x="84.856524" y="171.213993" style="stroke: #ffffff; stroke-width: 0.48"/>
     <use xlink:href="#m09145435eb" x="111.888084" y="163.805542" style="stroke: #ffffff; stroke-width: 0.48"/>
    </g>
   </g>
   <g id="PolyCollection_1">
    <path d="M 46.145455 191.61958 
L 46.145455 246.24 
L 48.195041 244.444495 
L 50.244628 242.648989 
L 52.294215 240.853484 
L 54.343802 239.057979 
L 56.393388 237.262473 
L 58.442975 235.749482 
L 60.492562 234.51439 
L 62.542149 232.812742 
L 64.591736 230.901591 
L 66.641322 228.783038 
L 68.690909 226.664485 
L 70.740496 224.693936 
L 72.790083 222.898431 
L 74.839669 221.102925 
L 76.889256 219.30742 
L 78.938843 217.522641 
L 80.98843 215.972465 
L 83.038017 214.105501 
L 85.087603 212.291803 
L 87.13719 210.437671 
L 89.186777 208.582692 
L 91.236364 206.791045 
L 93.28595 205.520203 
L 95.335537 203.971435 
L 97.385124 201.73844 
L 99.434711 200.341101 
L 101.484298 198.800704 
L 103.533884 197.431407 
L 105.583471 195.920909 
L 107.633058 194.825231 
L 109.682645 193.541549 
L 111.732231 192.130677 
L 113.781818 190.32076 
L 115.831405 189.031317 
L 117.880992 187.703749 
L 119.930579 186.521468 
L 121.980165 185.341803 
L 124.029752 184.17536 
L 126.079339 183.052082 
L 128.128926 181.816837 
L 130.178512 180.644693 
L 132.228099 179.470832 
L 134.277686 178.263416 
L 136.327273 176.877347 
L 138.37686 175.487466 
L 140.426446 174.179799 
L 142.476033 173.152917 
L 144.52562 172.29951 
L 146.575207 171.310788 
L 148.624793 170.081742 
L 150.67438 168.91233 
L 152.723967 167.735394 
L 154.773554 166.570517 
L 156.82314 165.587338 
L 158.872727 164.43743 
L 160.922314 163.65505 
L 162.971901 162.885568 
L 165.021488 161.525245 
L 167.071074 160.637524 
L 169.120661 159.657746 
L 171.170248 158.85647 
L 173.219835 157.83216 
L 175.269421 157.042884 
L 177.319008 156.253608 
L 179.368595 155.461485 
L 181.418182 154.489329 
L 183.467769 153.191158 
L 185.517355 152.304738 
L 187.566942 151.361497 
L 189.616529 150.322523 
L 191.666116 149.283548 
L 193.715702 148.384522 
L 195.765289 147.552763 
L 197.814876 146.461744 
L 199.864463 145.677872 
L 201.91405 144.949543 
L 203.963636 143.932211 
L 206.013223 142.835086 
L 208.06281 141.73462 
L 210.112397 140.748249 
L 212.161983 140.004631 
L 214.21157 139.261014 
L 216.261157 138.517396 
L 218.310744 137.773779 
L 220.360331 137.030162 
L 222.409917 136.286235 
L 224.459504 135.461878 
L 226.509091 134.514739 
L 228.558678 133.534425 
L 230.608264 132.502342 
L 232.657851 131.470259 
L 234.707438 130.438176 
L 236.757025 129.403667 
L 238.806612 128.364776 
L 240.856198 127.247593 
L 242.905785 126.294697 
L 244.955372 125.450761 
L 247.004959 124.651876 
L 249.054545 123.865828 
L 249.054545 44.64 
L 249.054545 44.64 
L 247.004959 46.390072 
L 244.955372 48.147314 
L 242.905785 49.953151 
L 240.856198 51.864013 
L 238.806612 53.773449 
L 236.757025 55.68994 
L 234.707438 57.581556 
L 232.657851 59.388212 
L 230.608264 61.249393 
L 228.558678 63.076701 
L 226.509091 64.89682 
L 224.459504 66.728195 
L 222.409917 68.561094 
L 220.360331 70.3885 
L 218.310744 72.129651 
L 216.261157 73.936064 
L 214.21157 75.772534 
L 212.161983 77.805588 
L 210.112397 79.630804 
L 208.06281 81.670012 
L 206.013223 83.790512 
L 203.963636 85.745906 
L 201.91405 87.591705 
L 199.864463 89.601931 
L 197.814876 91.461699 
L 195.765289 93.421465 
L 193.715702 95.324352 
L 191.666116 97.183527 
L 189.616529 98.738068 
L 187.566942 100.169137 
L 185.517355 101.903867 
L 183.467769 103.358616 
L 181.418182 105.183832 
L 179.368595 106.946848 
L 177.319008 108.768843 
L 175.269421 110.292794 
L 173.219835 111.873027 
L 171.170248 113.511577 
L 169.120661 114.849074 
L 167.071074 116.527701 
L 165.021488 118.234678 
L 162.971901 119.946924 
L 160.922314 121.689254 
L 158.872727 123.109735 
L 156.82314 124.50338 
L 154.773554 126.302287 
L 152.723967 127.675331 
L 150.67438 129.17056 
L 148.624793 130.760226 
L 146.575207 132.356056 
L 144.52562 134.069956 
L 142.476033 135.539227 
L 140.426446 137.126151 
L 138.37686 138.568774 
L 136.327273 139.963325 
L 134.277686 141.468024 
L 132.228099 142.787019 
L 130.178512 144.200381 
L 128.128926 145.804224 
L 126.079339 147.186578 
L 124.029752 148.437237 
L 121.980165 150.097696 
L 119.930579 151.627666 
L 117.880992 152.952364 
L 115.831405 154.094478 
L 113.781818 155.497634 
L 111.732231 156.745545 
L 109.682645 157.984983 
L 107.633058 159.389722 
L 105.583471 160.721496 
L 103.533884 162.08422 
L 101.484298 163.465203 
L 99.434711 164.672054 
L 97.385124 165.841534 
L 95.335537 167.149757 
L 93.28595 168.183974 
L 91.236364 169.207502 
L 89.186777 169.986562 
L 87.13719 171.333566 
L 85.087603 172.269357 
L 83.038017 173.2192 
L 80.98843 174.400449 
L 78.938843 175.424882 
L 76.889256 176.68429 
L 74.839669 177.686736 
L 72.790083 178.613502 
L 70.740496 179.677465 
L 68.690909 180.754444 
L 66.641322 181.66687 
L 64.591736 182.549358 
L 62.542149 183.673597 
L 60.492562 184.849478 
L 58.442975 185.876851 
L 56.393388 186.732585 
L 54.343802 187.572884 
L 52.294215 188.418314 
L 50.244628 189.26407 
L 48.195041 190.301813 
L 46.145455 191.61958 
z
" clip-path="url(#p332b45d28a)" style="fill: #808080; fill-opacity: 0.15"/>
   </g>
   <g id="PathCollection_2">
    <defs>
     <path id="m92e4eed712" d="M 0 3.535534 
L 0 -3.535534 
" style="stroke: #808080"/>
    </defs>
    <g clip-path="url(#p332b45d28a)">
     <use xlink:href="#m92e4eed712" x="83.257113" y="210.544121" style="fill: #808080; stroke: #808080"/>
    </g>
   </g>
   <g id="PathCollection_3">
    <g clip-path="url(#p332b45d28a)">
     <use xlink:href="#m92e4eed712" x="94.420882" y="204.462721" style="fill: #808080; stroke: #808080"/>
    </g>
   </g>
   <g id="PathCollection_4">
    <g clip-path="url(#p332b45d28a)">
     <use xlink:href="#m92e4eed712" x="224.504449" y="63.114397" style="fill: #808080; stroke: #808080"/>
    </g>
   </g>
   <g id="PathCollection_5">
    <g clip-path="url(#p332b45d28a)">
     <use xlink:href="#m92e4eed712" x="176.953457" y="105.618132" style="fill: #808080; stroke: #808080"/>
    </g>
   </g>
   <g id="PathCollection_6">
    <g clip-path="url(#p332b45d28a)">
     <use xlink:href="#m92e4eed712" x="241.143567" y="131.294477" style="fill: #808080; stroke: #808080"/>
    </g>
   </g>
   <g id="PathCollection_7">
    <g clip-path="url(#p332b45d28a)">
     <use xlink:href="#m92e4eed712" x="98.372304" y="167.509767" style="fill: #808080; stroke: #808080"/>
    </g>
   </g>
   <g id="matplotlib.axis_1">
    <g id="xtick_1">
     <g id="line2d_1">
      <defs>
       <path id="mff1b8c603d" d="M 0 0 
L 0 6 
" style="stroke: #d3d3d3; stroke-width: 2"/>
      </defs>
      <g>
       <use xlink:href="#mff1b8c603d" x="108.224328" y="256.32" style="fill: #d3d3d3; stroke: #d3d3d3; stroke-width: 2"/>
      </g>
     </g>
     <g id="text_1">
      <text style="font: 14px 'Arial'; text-anchor: middle" x="108.224328" y="275.840937" transform="rotate(-0 108.224328 275.840937)">0.6</text>
     </g>
    </g>
    <g id="xtick_2">
     <g id="line2d_2">
      <g>
       <use xlink:href="#mff1b8c603d" x="191.54579" y="256.32" style="fill: #d3d3d3; stroke: #d3d3d3; stroke-width: 2"/>
      </g>
     </g>
     <g id="text_2">
      <text style="font: 14px 'Arial'; text-anchor: middle" x="191.54579" y="275.840937" transform="rotate(-0 191.54579 275.840937)">0.8</text>
     </g>
    </g>
    <g id="text_3">
     <text style="font: 18px 'Arial'; text-anchor: middle" x="147.6" y="295.560938" transform="rotate(-0 147.6 295.560938)">l1_density</text>
    </g>
   </g>
   <g id="matplotlib.axis_2">
    <g id="ytick_1">
     <g id="line2d_3">
      <defs>
       <path id="m3707839cd5" d="M 0 0 
L -6 0 
" style="stroke: #d3d3d3; stroke-width: 2"/>
      </defs>
      <g>
       <use xlink:href="#m3707839cd5" x="36" y="233.648928" style="fill: #d3d3d3; stroke: #d3d3d3; stroke-width: 2"/>
      </g>
     </g>
     <g id="text_4">
      <text style="font: 14px 'Arial'; text-anchor: end" x="26.5" y="238.659397" transform="rotate(-0 26.5 238.659397)">0.4</text>
     </g>
    </g>
    <g id="ytick_2">
     <g id="line2d_4">
      <g>
       <use xlink:href="#m3707839cd5" x="36" y="174.98969" style="fill: #d3d3d3; stroke: #d3d3d3; stroke-width: 2"/>
      </g>
     </g>
     <g id="text_5">
      <text style="font: 14px 'Arial'; text-anchor: end" x="26.5" y="180.000159" transform="rotate(-0 26.5 180.000159)">0.6</text>
     </g>
    </g>
    <g id="ytick_3">
     <g id="line2d_5">
      <g>
       <use xlink:href="#m3707839cd5" x="36" y="116.330453" style="fill: #d3d3d3; stroke: #d3d3d3; stroke-width: 2"/>
      </g>
     </g>
     <g id="text_6">
      <text style="font: 14px 'Arial'; text-anchor: end" x="26.5" y="121.340921" transform="rotate(-0 26.5 121.340921)">0.8</text>
     </g>
    </g>
    <g id="ytick_4">
     <g id="line2d_6">
      <g>
       <use xlink:href="#m3707839cd5" x="36" y="57.671215" style="fill: #d3d3d3; stroke: #d3d3d3; stroke-width: 2"/>
      </g>
     </g>
     <g id="text_7">
      <text style="font: 14px 'Arial'; text-anchor: end" x="26.5" y="62.681684" transform="rotate(-0 26.5 62.681684)">1.0</text>
     </g>
    </g>
    <g id="text_8">
     <text style="font: 18px 'Arial'; text-anchor: middle" x="-0.748438" y="145.44" transform="rotate(-90 -0.748438 145.44)">l3_density</text>
    </g>
   </g>
   <g id="line2d_7">
    <path d="M 46.145455 213.591289 
L 48.195041 212.317029 
L 50.244628 211.042768 
L 52.294215 209.768508 
L 54.343802 208.494248 
L 56.393388 207.219987 
L 58.442975 205.945727 
L 60.492562 204.671467 
L 62.542149 203.397206 
L 64.591736 202.122946 
L 66.641322 200.848686 
L 68.690909 199.574425 
L 70.740496 198.300165 
L 72.790083 197.025905 
L 74.839669 195.751644 
L 76.889256 194.477384 
L 78.938843 193.203124 
L 80.98843 191.928864 
L 83.038017 190.654603 
L 85.087603 189.380343 
L 87.13719 188.106083 
L 89.186777 186.831822 
L 91.236364 185.557562 
L 93.28595 184.283302 
L 95.335537 183.009041 
L 97.385124 181.734781 
L 99.434711 180.460521 
L 101.484298 179.18626 
L 103.533884 177.912 
L 105.583471 176.63774 
L 107.633058 175.363479 
L 109.682645 174.089219 
L 111.732231 172.814959 
L 113.781818 171.540699 
L 115.831405 170.266438 
L 117.880992 168.992178 
L 119.930579 167.717918 
L 121.980165 166.443657 
L 124.029752 165.169397 
L 126.079339 163.895137 
L 128.128926 162.620876 
L 130.178512 161.346616 
L 132.228099 160.072356 
L 134.277686 158.798095 
L 136.327273 157.523835 
L 138.37686 156.249575 
L 140.426446 154.975314 
L 142.476033 153.701054 
L 144.52562 152.426794 
L 146.575207 151.152534 
L 148.624793 149.878273 
L 150.67438 148.604013 
L 152.723967 147.329753 
L 154.773554 146.055492 
L 156.82314 144.781232 
L 158.872727 143.506972 
L 160.922314 142.232711 
L 162.971901 140.958451 
L 165.021488 139.684191 
L 167.071074 138.40993 
L 169.120661 137.13567 
L 171.170248 135.86141 
L 173.219835 134.58715 
L 175.269421 133.312889 
L 177.319008 132.038629 
L 179.368595 130.764369 
L 181.418182 129.490108 
L 183.467769 128.215848 
L 185.517355 126.941588 
L 187.566942 125.667327 
L 189.616529 124.393067 
L 191.666116 123.118807 
L 193.715702 121.844546 
L 195.765289 120.570286 
L 197.814876 119.296026 
L 199.864463 118.021765 
L 201.91405 116.747505 
L 203.963636 115.473245 
L 206.013223 114.198985 
L 208.06281 112.924724 
L 210.112397 111.650464 
L 212.161983 110.376204 
L 214.21157 109.101943 
L 216.261157 107.827683 
L 218.310744 106.553423 
L 220.360331 105.279162 
L 222.409917 104.004902 
L 224.459504 102.730642 
L 226.509091 101.456381 
L 228.558678 100.182121 
L 230.608264 98.907861 
L 232.657851 97.6336 
L 234.707438 96.35934 
L 236.757025 95.08508 
L 238.806612 93.81082 
L 240.856198 92.536559 
L 242.905785 91.262299 
L 244.955372 89.988039 
L 247.004959 88.713778 
L 249.054545 87.439518 
" clip-path="url(#p332b45d28a)" style="fill: none; stroke: #808080; stroke-width: 3; stroke-linecap: square"/>
   </g>
   <g id="line2d_8">
    <path d="M 60.367151 210.466759 
L 106.147075 210.621483 
" clip-path="url(#p332b45d28a)" style="fill: none; stroke: #808080; stroke-linecap: square"/>
   </g>
   <g id="line2d_9">
    <path d="M 142.696309 205.508245 
L 46.145455 203.417196 
" clip-path="url(#p332b45d28a)" style="fill: none; stroke: #808080; stroke-linecap: square"/>
   </g>
   <g id="line2d_10">
    <path d="M 216.932941 63.90629 
L 232.075957 62.322504 
" clip-path="url(#p332b45d28a)" style="fill: none; stroke: #808080; stroke-linecap: square"/>
   </g>
   <g id="line2d_11">
    <path d="M 193.83605 94.326726 
L 160.070863 116.909537 
" clip-path="url(#p332b45d28a)" style="fill: none; stroke: #808080; stroke-linecap: square"/>
   </g>
   <g id="line2d_12">
    <path d="M 233.232588 135.337514 
L 249.054545 127.251441 
" clip-path="url(#p332b45d28a)" style="fill: none; stroke: #808080; stroke-linecap: square"/>
   </g>
   <g id="line2d_13">
    <path d="M 84.856524 171.213993 
L 111.888084 163.805542 
" clip-path="url(#p332b45d28a)" style="fill: none; stroke: #808080; stroke-linecap: square"/>
   </g>
   <g id="patch_3">
    <path d="M 36 256.32 
L 36 34.56 
" style="fill: none; stroke: #d3d3d3; stroke-width: 2; stroke-linejoin: miter; stroke-linecap: square"/>
   </g>
   <g id="patch_4">
    <path d="M 36 256.32 
L 259.2 256.32 
" style="fill: none; stroke: #d3d3d3; stroke-width: 2; stroke-linejoin: miter; stroke-linecap: square"/>
   </g>
   <g id="text_9">
    <text style="font: 14px 'Arial'; text-anchor: start" x="83.257113" y="210.544121" transform="rotate(-0 83.257113 210.544121)">A02m</text>
   </g>
   <g id="text_10">
    <text style="font: 14px 'Arial'; text-anchor: start" x="94.420882" y="204.462721" transform="rotate(-0 94.420882 204.462721)">A02n</text>
   </g>
   <g id="text_11">
    <text style="font: 14px 'Arial'; text-anchor: start" x="224.504449" y="63.114397" transform="rotate(-0 224.504449 63.114397)">A09a</text>
   </g>
   <g id="text_12">
    <text style="font: 14px 'Arial'; text-anchor: start" x="176.953457" y="105.618132" transform="rotate(-0 176.953457 105.618132)">A09c</text>
   </g>
   <g id="text_13">
    <text style="font: 14px 'Arial'; text-anchor: start" x="241.143567" y="131.294477" transform="rotate(-0 241.143567 131.294477)">A09l</text>
   </g>
   <g id="text_14">
    <text style="font: 14px 'Arial'; text-anchor: start" x="98.372304" y="167.509767" transform="rotate(-0 98.372304 167.509767)">A10a</text>
   </g>
   <g id="text_15">
    <text style="font: 14px 'Arial'; text-anchor: middle" x="147.6" y="28.56" transform="rotate(-0 147.6 28.56)">r = 0.80, p = 0.0017</text>
   </g>
  </g>
 </g>
 <defs>
  <clipPath id="p332b45d28a">
   <rect x="36" y="34.56" width="223.2" height="221.76"/>
  </clipPath>
 </defs>
</svg>
