<?xml version="1.0" encoding="utf-8" standalone="no"?>
<!DOCTYPE svg PUBLIC "-//W3C//DTD SVG 1.1//EN"
  "http://www.w3.org/Graphics/SVG/1.1/DTD/svg11.dtd">
<svg xmlns:xlink="http://www.w3.org/1999/xlink" width="288pt" height="288pt" viewBox="0 0 288 288" xmlns="http://www.w3.org/2000/svg" version="1.1">
 <metadata>
  <rdf:RDF xmlns:dc="http://purl.org/dc/elements/1.1/" xmlns:cc="http://creativecommons.org/ns#" xmlns:rdf="http://www.w3.org/1999/02/22-rdf-syntax-ns#">
   <cc:Work>
    <dc:type rdf:resource="http://purl.org/dc/dcmitype/StillImage"/>
    <dc:date>2025-05-16T10:23:24.707948</dc:date>
    <dc:format>image/svg+xml</dc:format>
    <dc:creator>
     <cc:Agent>
      <dc:title>Matplotlib v3.9.2, https://matplotlib.org/</dc:title>
     </cc:Agent>
    </dc:creator>
   </cc:Work>
  </rdf:RDF>
 </metadata>
 <defs>
  <style type="text/css">*{stroke-linejoin: round; stroke-linecap: butt}</style>
 </defs>
 <g id="figure_1">
  <g id="patch_1">
   <path d="M 0 288 
L 288 288 
L 288 0 
L 0 0 
z
" style="fill: #ffffff"/>
  </g>
  <g id="axes_1">
   <g id="patch_2">
    <path d="M 36 256.32 
L 259.2 256.32 
L 259.2 34.56 
L 36 34.56 
z
" style="fill: #ffffff"/>
   </g>
   <g id="matplotlib.axis_1">
    <g id="xtick_1">
     <g id="line2d_1">
      <defs>
       <path id="m825a80ff46" d="M 0 0 
L 0 6 
" style="stroke: #d3d3d3; stroke-width: 2"/>
      </defs>
      <g>
       <use xlink:href="#m825a80ff46" x="75.132468" y="256.32" style="fill: #d3d3d3; stroke: #d3d3d3; stroke-width: 2"/>
      </g>
     </g>
     <g id="text_1">
      <text style="font: 14px 'Arial'" transform="translate(59.259246 309.770664) rotate(-45)">mdIV L3</text>
     </g>
    </g>
    <g id="xtick_2">
     <g id="line2d_2">
      <g>
       <use xlink:href="#m825a80ff46" x="147.6" y="256.32" style="fill: #d3d3d3; stroke: #d3d3d3; stroke-width: 2"/>
      </g>
     </g>
     <g id="text_2">
      <text style="font: 14px 'Arial'" transform="translate(126.491493 311.969435) rotate(-45)">mdIV L3</text>
      <text style="font: 14px 'Arial'" transform="translate(134.763294 324.638777) rotate(-45)">corrected</text>
     </g>
    </g>
    <g id="xtick_3">
     <g id="line2d_3">
      <g>
       <use xlink:href="#m825a80ff46" x="220.067532" y="256.32" style="fill: #d3d3d3; stroke: #d3d3d3; stroke-width: 2"/>
      </g>
     </g>
     <g id="text_3">
      <text style="font: 14px 'Arial'" transform="translate(209.419388 299.32051) rotate(-45)">LN L3</text>
     </g>
    </g>
   </g>
   <g id="matplotlib.axis_2">
    <g id="ytick_1">
     <g id="line2d_4">
      <defs>
       <path id="ma67b13bfac" d="M 0 0 
L -6 0 
" style="stroke: #d3d3d3; stroke-width: 2"/>
      </defs>
      <g>
       <use xlink:href="#ma67b13bfac" x="36" y="219.333987" style="fill: #d3d3d3; stroke: #d3d3d3; stroke-width: 2"/>
      </g>
     </g>
     <g id="text_4">
      <text style="font: 14px 'Arial'; text-anchor: end" x="26.5" y="224.344456" transform="rotate(-0 26.5 224.344456)">0.6</text>
     </g>
    </g>
    <g id="ytick_2">
     <g id="line2d_5">
      <g>
       <use xlink:href="#ma67b13bfac" x="36" y="175.039662" style="fill: #d3d3d3; stroke: #d3d3d3; stroke-width: 2"/>
      </g>
     </g>
     <g id="text_5">
      <text style="font: 14px 'Arial'; text-anchor: end" x="26.5" y="180.050131" transform="rotate(-0 26.5 180.050131)">0.8</text>
     </g>
    </g>
    <g id="ytick_3">
     <g id="line2d_6">
      <g>
       <use xlink:href="#ma67b13bfac" x="36" y="130.745337" style="fill: #d3d3d3; stroke: #d3d3d3; stroke-width: 2"/>
      </g>
     </g>
     <g id="text_6">
      <text style="font: 14px 'Arial'; text-anchor: end" x="26.5" y="135.755806" transform="rotate(-0 26.5 135.755806)">1.0</text>
     </g>
    </g>
    <g id="ytick_4">
     <g id="line2d_7">
      <g>
       <use xlink:href="#ma67b13bfac" x="36" y="86.451012" style="fill: #d3d3d3; stroke: #d3d3d3; stroke-width: 2"/>
      </g>
     </g>
     <g id="text_7">
      <text style="font: 14px 'Arial'; text-anchor: end" x="26.5" y="91.461481" transform="rotate(-0 26.5 91.461481)">1.2</text>
     </g>
    </g>
    <g id="ytick_5">
     <g id="line2d_8">
      <g>
       <use xlink:href="#ma67b13bfac" x="36" y="42.156687" style="fill: #d3d3d3; stroke: #d3d3d3; stroke-width: 2"/>
      </g>
     </g>
     <g id="text_8">
      <text style="font: 14px 'Arial'; text-anchor: end" x="26.5" y="47.167156" transform="rotate(-0 26.5 47.167156)">1.4</text>
     </g>
    </g>
    <g id="text_9">
     <text style="font: 18px 'Arial'; text-anchor: middle" x="-0.748438" y="145.44" transform="rotate(-90 -0.748438 145.44)">Synapse density</text>
    </g>
   </g>
   <g id="patch_3">
    <path d="M 46.145455 165.251445 
L 104.119481 165.251445 
L 104.119481 148.621285 
L 46.145455 148.621285 
L 46.145455 165.251445 
z
" clip-path="url(#p9818bdeea6)" style="fill: #ce6c6e; stroke: #404040; stroke-linejoin: miter"/>
   </g>
   <g id="line2d_9">
    <path d="M 75.132468 165.251445 
L 75.132468 173.79723 
" clip-path="url(#p9818bdeea6)" style="fill: none; stroke: #404040"/>
   </g>
   <g id="line2d_10">
    <path d="M 75.132468 148.621285 
L 75.132468 147.308393 
" clip-path="url(#p9818bdeea6)" style="fill: none; stroke: #404040"/>
   </g>
   <g id="line2d_11">
    <path d="M 60.638961 173.79723 
L 89.625974 173.79723 
" clip-path="url(#p9818bdeea6)" style="fill: none; stroke: #404040; stroke-linecap: square"/>
   </g>
   <g id="line2d_12">
    <path d="M 60.638961 147.308393 
L 89.625974 147.308393 
" clip-path="url(#p9818bdeea6)" style="fill: none; stroke: #404040; stroke-linecap: square"/>
   </g>
   <g id="line2d_13">
    <defs>
     <path id="m33cfd962ea" d="M 0 3 
C 0.795609 3 1.55874 2.683901 2.12132 2.12132 
C 2.683901 1.55874 3 0.795609 3 0 
C 3 -0.795609 2.683901 -1.55874 2.12132 -2.12132 
C 1.55874 -2.683901 0.795609 -3 0 -3 
C -0.795609 -3 -1.55874 -2.683901 -2.12132 -2.12132 
C -2.683901 -1.55874 -3 -0.795609 -3 0 
C -3 0.795609 -2.683901 1.55874 -2.12132 2.12132 
C -1.55874 2.683901 -0.795609 3 0 3 
z
" style="stroke: #404040"/>
    </defs>
    <g clip-path="url(#p9818bdeea6)">
     <use xlink:href="#m33cfd962ea" x="75.132468" y="88.934325" style="fill-opacity: 0; stroke: #404040"/>
    </g>
   </g>
   <g id="patch_4">
    <path d="M 118.612987 207.879583 
L 176.587013 207.879583 
L 176.587013 195.0411 
L 118.612987 195.0411 
L 118.612987 207.879583 
z
" clip-path="url(#p9818bdeea6)" style="fill: #ce6c6e; stroke: #404040; stroke-linejoin: miter"/>
   </g>
   <g id="line2d_14">
    <path d="M 147.6 207.879583 
L 147.6 214.476929 
" clip-path="url(#p9818bdeea6)" style="fill: none; stroke: #404040"/>
   </g>
   <g id="line2d_15">
    <path d="M 147.6 195.0411 
L 147.6 194.027547 
" clip-path="url(#p9818bdeea6)" style="fill: none; stroke: #404040"/>
   </g>
   <g id="line2d_16">
    <path d="M 133.106494 214.476929 
L 162.093506 214.476929 
" clip-path="url(#p9818bdeea6)" style="fill: none; stroke: #404040; stroke-linecap: square"/>
   </g>
   <g id="line2d_17">
    <path d="M 133.106494 194.027547 
L 162.093506 194.027547 
" clip-path="url(#p9818bdeea6)" style="fill: none; stroke: #404040; stroke-linecap: square"/>
   </g>
   <g id="line2d_18">
    <g clip-path="url(#p9818bdeea6)">
     <use xlink:href="#m33cfd962ea" x="147.6" y="148.962766" style="fill-opacity: 0; stroke: #404040"/>
    </g>
   </g>
   <g id="patch_5">
    <path d="M 191.080519 241.194697 
L 249.054545 241.194697 
L 249.054545 171.213795 
L 191.080519 171.213795 
L 191.080519 241.194697 
z
" clip-path="url(#p9818bdeea6)" style="fill: #32a290; stroke: #404040; stroke-linejoin: miter"/>
   </g>
   <g id="line2d_19">
    <path d="M 220.067532 241.194697 
L 220.067532 246.24 
" clip-path="url(#p9818bdeea6)" style="fill: none; stroke: #404040"/>
   </g>
   <g id="line2d_20">
    <path d="M 220.067532 171.213795 
L 220.067532 134.257584 
" clip-path="url(#p9818bdeea6)" style="fill: none; stroke: #404040"/>
   </g>
   <g id="line2d_21">
    <path d="M 205.574026 246.24 
L 234.561039 246.24 
" clip-path="url(#p9818bdeea6)" style="fill: none; stroke: #404040; stroke-linecap: square"/>
   </g>
   <g id="line2d_22">
    <path d="M 205.574026 134.257584 
L 234.561039 134.257584 
" clip-path="url(#p9818bdeea6)" style="fill: none; stroke: #404040; stroke-linecap: square"/>
   </g>
   <g id="line2d_23"/>
   <g id="line2d_24">
    <path d="M 75.132468 66.787162 
L 220.067532 66.787162 
" clip-path="url(#p9818bdeea6)" style="fill: none; stroke: #000000; stroke-width: 1.5; stroke-linecap: square"/>
   </g>
   <g id="line2d_25">
    <path d="M 147.6 44.64 
L 220.067532 44.64 
" clip-path="url(#p9818bdeea6)" style="fill: none; stroke: #000000; stroke-width: 1.5; stroke-linecap: square"/>
   </g>
   <g id="line2d_26">
    <path d="M 46.145455 157.767134 
L 104.119481 157.767134 
" clip-path="url(#p9818bdeea6)" style="fill: none; stroke: #404040"/>
   </g>
   <g id="line2d_27">
    <path d="M 118.612987 202.101694 
L 176.587013 202.101694 
" clip-path="url(#p9818bdeea6)" style="fill: none; stroke: #404040"/>
   </g>
   <g id="line2d_28">
    <path d="M 191.080519 200.140414 
L 249.054545 200.140414 
" clip-path="url(#p9818bdeea6)" style="fill: none; stroke: #404040"/>
   </g>
   <g id="patch_6">
    <path d="M 36 256.32 
L 36 34.56 
" style="fill: none; stroke: #d3d3d3; stroke-width: 2; stroke-linejoin: miter; stroke-linecap: square"/>
   </g>
   <g id="patch_7">
    <path d="M 36 256.32 
L 259.2 256.32 
" style="fill: none; stroke: #d3d3d3; stroke-width: 2; stroke-linejoin: miter; stroke-linecap: square"/>
   </g>
   <g id="PathCollection_1">
    <defs>
     <path id="m7aa6a8476d" d="M 0 2.5 
C 0.663008 2.5 1.29895 2.236584 1.767767 1.767767 
C 2.236584 1.29895 2.5 0.663008 2.5 0 
C 2.5 -0.663008 2.236584 -1.29895 1.767767 -1.767767 
C 1.29895 -2.236584 0.663008 -2.5 0 -2.5 
C -0.663008 -2.5 -1.29895 -2.236584 -1.767767 -1.767767 
C -2.236584 -1.29895 -2.5 -0.663008 -2.5 0 
C -2.5 0.663008 -2.236584 1.29895 -1.767767 1.767767 
C -1.29895 2.236584 -0.663008 2.5 0 2.5 
z
"/>
    </defs>
    <g clip-path="url(#p9818bdeea6)">
     <use xlink:href="#m7aa6a8476d" x="75.132468" y="88.934325"/>
     <use xlink:href="#m7aa6a8476d" x="75.132468" y="173.79723"/>
     <use xlink:href="#m7aa6a8476d" x="75.132468" y="152.559961"/>
     <use xlink:href="#m7aa6a8476d" x="75.132468" y="147.308393"/>
     <use xlink:href="#m7aa6a8476d" x="70.961234" y="162.974306"/>
     <use xlink:href="#m7aa6a8476d" x="75.132468" y="166.010491"/>
    </g>
   </g>
   <g id="PathCollection_2">
    <g clip-path="url(#p9818bdeea6)">
     <use xlink:href="#m7aa6a8476d" x="147.6" y="148.962766"/>
     <use xlink:href="#m7aa6a8476d" x="147.6" y="214.476929"/>
     <use xlink:href="#m7aa6a8476d" x="147.6" y="198.081757"/>
     <use xlink:href="#m7aa6a8476d" x="144.527359" y="194.027547"/>
     <use xlink:href="#m7aa6a8476d" x="142.962616" y="206.121631"/>
     <use xlink:href="#m7aa6a8476d" x="147.6" y="208.465567"/>
    </g>
   </g>
   <g id="PathCollection_3">
    <g clip-path="url(#p9818bdeea6)">
     <use xlink:href="#m7aa6a8476d" x="214.818966" y="246.123166"/>
     <use xlink:href="#m7aa6a8476d" x="220.067532" y="246.24"/>
     <use xlink:href="#m7aa6a8476d" x="223.403186" y="242.37893"/>
     <use xlink:href="#m7aa6a8476d" x="218.421843" y="240.799953"/>
     <use xlink:href="#m7aa6a8476d" x="220.067532" y="135.453521"/>
     <use xlink:href="#m7aa6a8476d" x="214.969922" y="134.257584"/>
     <use xlink:href="#m7aa6a8476d" x="220.067532" y="158.424373"/>
     <use xlink:href="#m7aa6a8476d" x="220.067532" y="175.476936"/>
     <use xlink:href="#m7aa6a8476d" x="220.067532" y="189.392133"/>
     <use xlink:href="#m7aa6a8476d" x="220.067532" y="183.286237"/>
     <use xlink:href="#m7aa6a8476d" x="220.067532" y="216.482911"/>
     <use xlink:href="#m7aa6a8476d" x="220.067532" y="210.888696"/>
    </g>
   </g>
   <g id="text_10">
    <text style="font: 14px 'Arial'; text-anchor: middle" x="147.6" y="61.789946" transform="rotate(-0 147.6 61.789946)">*</text>
   </g>
   <g id="text_11">
    <text style="font: 14px 'Arial'; text-anchor: middle" x="183.833766" y="39.642784" transform="rotate(-0 183.833766 39.642784)">ns</text>
   </g>
  </g>
 </g>
 <defs>
  <clipPath id="p9818bdeea6">
   <rect x="36" y="34.56" width="223.2" height="221.76"/>
  </clipPath>
 </defs>
</svg>
