<?xml version="1.0" encoding="utf-8" standalone="no"?>
<!DOCTYPE svg PUBLIC "-//W3C//DTD SVG 1.1//EN"
  "http://www.w3.org/Graphics/SVG/1.1/DTD/svg11.dtd">
<svg xmlns:xlink="http://www.w3.org/1999/xlink" width="576pt" height="288pt" viewBox="0 0 576 288" xmlns="http://www.w3.org/2000/svg" version="1.1">
 <metadata>
  <rdf:RDF xmlns:dc="http://purl.org/dc/elements/1.1/" xmlns:cc="http://creativecommons.org/ns#" xmlns:rdf="http://www.w3.org/1999/02/22-rdf-syntax-ns#">
   <cc:Work>
    <dc:type rdf:resource="http://purl.org/dc/dcmitype/StillImage"/>
    <dc:date>2025-05-16T10:34:13.688150</dc:date>
    <dc:format>image/svg+xml</dc:format>
    <dc:creator>
     <cc:Agent>
      <dc:title>Matplotlib v3.9.2, https://matplotlib.org/</dc:title>
     </cc:Agent>
    </dc:creator>
   </cc:Work>
  </rdf:RDF>
 </metadata>
 <defs>
  <style type="text/css">*{stroke-linejoin: round; stroke-linecap: butt}</style>
 </defs>
 <g id="figure_1">
  <g id="patch_1">
   <path d="M 0 288 
L 576 288 
L 576 0 
L 0 0 
z
" style="fill: #ffffff"/>
  </g>
  <g id="axes_1">
   <g id="patch_2">
    <path d="M 72 256.32 
L 518.4 256.32 
L 518.4 34.56 
L 72 34.56 
z
" style="fill: #ffffff"/>
   </g>
   <g id="patch_3">
    <path d="M 168.695579 256.32 
L 179.025045 256.32 
L 179.025045 249.28 
L 168.695579 249.28 
z
" clip-path="url(#pafe5e3fb04)" style="fill: #97c7dd; opacity: 0.7"/>
   </g>
   <g id="patch_4">
    <path d="M 179.025045 256.32 
L 189.354511 256.32 
L 189.354511 256.32 
L 179.025045 256.32 
z
" clip-path="url(#pafe5e3fb04)" style="fill: #97c7dd; opacity: 0.7"/>
   </g>
   <g id="patch_5">
    <path d="M 189.354511 256.32 
L 199.683977 256.32 
L 199.683977 249.28 
L 189.354511 249.28 
z
" clip-path="url(#pafe5e3fb04)" style="fill: #97c7dd; opacity: 0.7"/>
   </g>
   <g id="patch_6">
    <path d="M 199.683977 256.32 
L 210.013444 256.32 
L 210.013444 256.32 
L 199.683977 256.32 
z
" clip-path="url(#pafe5e3fb04)" style="fill: #97c7dd; opacity: 0.7"/>
   </g>
   <g id="patch_7">
    <path d="M 210.013444 256.32 
L 220.34291 256.32 
L 220.34291 235.2 
L 210.013444 235.2 
z
" clip-path="url(#pafe5e3fb04)" style="fill: #97c7dd; opacity: 0.7"/>
   </g>
   <g id="patch_8">
    <path d="M 220.34291 256.32 
L 230.672376 256.32 
L 230.672376 235.2 
L 220.34291 235.2 
z
" clip-path="url(#pafe5e3fb04)" style="fill: #97c7dd; opacity: 0.7"/>
   </g>
   <g id="patch_9">
    <path d="M 230.672376 256.32 
L 241.001842 256.32 
L 241.001842 228.16 
L 230.672376 228.16 
z
" clip-path="url(#pafe5e3fb04)" style="fill: #97c7dd; opacity: 0.7"/>
   </g>
   <g id="patch_10">
    <path d="M 241.001842 256.32 
L 251.331308 256.32 
L 251.331308 221.12 
L 241.001842 221.12 
z
" clip-path="url(#pafe5e3fb04)" style="fill: #97c7dd; opacity: 0.7"/>
   </g>
   <g id="patch_11">
    <path d="M 251.331308 256.32 
L 261.660775 256.32 
L 261.660775 200 
L 251.331308 200 
z
" clip-path="url(#pafe5e3fb04)" style="fill: #97c7dd; opacity: 0.7"/>
   </g>
   <g id="patch_12">
    <path d="M 261.660775 256.32 
L 271.990241 256.32 
L 271.990241 185.92 
L 261.660775 185.92 
z
" clip-path="url(#pafe5e3fb04)" style="fill: #97c7dd; opacity: 0.7"/>
   </g>
   <g id="patch_13">
    <path d="M 271.990241 256.32 
L 282.319707 256.32 
L 282.319707 192.96 
L 271.990241 192.96 
z
" clip-path="url(#pafe5e3fb04)" style="fill: #97c7dd; opacity: 0.7"/>
   </g>
   <g id="patch_14">
    <path d="M 282.319707 256.32 
L 292.649173 256.32 
L 292.649173 171.84 
L 282.319707 171.84 
z
" clip-path="url(#pafe5e3fb04)" style="fill: #97c7dd; opacity: 0.7"/>
   </g>
   <g id="patch_15">
    <path d="M 292.649173 256.32 
L 302.97864 256.32 
L 302.97864 171.84 
L 292.649173 171.84 
z
" clip-path="url(#pafe5e3fb04)" style="fill: #97c7dd; opacity: 0.7"/>
   </g>
   <g id="patch_16">
    <path d="M 302.97864 256.32 
L 313.308106 256.32 
L 313.308106 122.56 
L 302.97864 122.56 
z
" clip-path="url(#pafe5e3fb04)" style="fill: #97c7dd; opacity: 0.7"/>
   </g>
   <g id="patch_17">
    <path d="M 313.308106 256.32 
L 323.637572 256.32 
L 323.637572 129.6 
L 313.308106 129.6 
z
" clip-path="url(#pafe5e3fb04)" style="fill: #97c7dd; opacity: 0.7"/>
   </g>
   <g id="patch_18">
    <path d="M 323.637572 256.32 
L 333.967038 256.32 
L 333.967038 115.52 
L 323.637572 115.52 
z
" clip-path="url(#pafe5e3fb04)" style="fill: #97c7dd; opacity: 0.7"/>
   </g>
   <g id="patch_19">
    <path d="M 333.967038 256.32 
L 344.296504 256.32 
L 344.296504 136.64 
L 333.967038 136.64 
z
" clip-path="url(#pafe5e3fb04)" style="fill: #97c7dd; opacity: 0.7"/>
   </g>
   <g id="patch_20">
    <path d="M 344.296504 256.32 
L 354.625971 256.32 
L 354.625971 45.12 
L 344.296504 45.12 
z
" clip-path="url(#pafe5e3fb04)" style="fill: #97c7dd; opacity: 0.7"/>
   </g>
   <g id="patch_21">
    <path d="M 354.625971 256.32 
L 364.955437 256.32 
L 364.955437 66.24 
L 354.625971 66.24 
z
" clip-path="url(#pafe5e3fb04)" style="fill: #97c7dd; opacity: 0.7"/>
   </g>
   <g id="patch_22">
    <path d="M 364.955437 256.32 
L 375.284903 256.32 
L 375.284903 59.2 
L 364.955437 59.2 
z
" clip-path="url(#pafe5e3fb04)" style="fill: #97c7dd; opacity: 0.7"/>
   </g>
   <g id="patch_23">
    <path d="M 375.284903 256.32 
L 385.614369 256.32 
L 385.614369 108.48 
L 375.284903 108.48 
z
" clip-path="url(#pafe5e3fb04)" style="fill: #97c7dd; opacity: 0.7"/>
   </g>
   <g id="patch_24">
    <path d="M 385.614369 256.32 
L 395.943836 256.32 
L 395.943836 150.72 
L 385.614369 150.72 
z
" clip-path="url(#pafe5e3fb04)" style="fill: #97c7dd; opacity: 0.7"/>
   </g>
   <g id="patch_25">
    <path d="M 395.943836 256.32 
L 406.273302 256.32 
L 406.273302 143.68 
L 395.943836 143.68 
z
" clip-path="url(#pafe5e3fb04)" style="fill: #97c7dd; opacity: 0.7"/>
   </g>
   <g id="patch_26">
    <path d="M 406.273302 256.32 
L 416.602768 256.32 
L 416.602768 157.76 
L 406.273302 157.76 
z
" clip-path="url(#pafe5e3fb04)" style="fill: #97c7dd; opacity: 0.7"/>
   </g>
   <g id="patch_27">
    <path d="M 416.602768 256.32 
L 426.932234 256.32 
L 426.932234 185.92 
L 416.602768 185.92 
z
" clip-path="url(#pafe5e3fb04)" style="fill: #97c7dd; opacity: 0.7"/>
   </g>
   <g id="patch_28">
    <path d="M 426.932234 256.32 
L 437.261701 256.32 
L 437.261701 214.08 
L 426.932234 214.08 
z
" clip-path="url(#pafe5e3fb04)" style="fill: #97c7dd; opacity: 0.7"/>
   </g>
   <g id="patch_29">
    <path d="M 437.261701 256.32 
L 447.591167 256.32 
L 447.591167 235.2 
L 437.261701 235.2 
z
" clip-path="url(#pafe5e3fb04)" style="fill: #97c7dd; opacity: 0.7"/>
   </g>
   <g id="patch_30">
    <path d="M 447.591167 256.32 
L 457.920633 256.32 
L 457.920633 221.12 
L 447.591167 221.12 
z
" clip-path="url(#pafe5e3fb04)" style="fill: #97c7dd; opacity: 0.7"/>
   </g>
   <g id="patch_31">
    <path d="M 457.920633 256.32 
L 468.250099 256.32 
L 468.250099 249.28 
L 457.920633 249.28 
z
" clip-path="url(#pafe5e3fb04)" style="fill: #97c7dd; opacity: 0.7"/>
   </g>
   <g id="patch_32">
    <path d="M 468.250099 256.32 
L 478.579565 256.32 
L 478.579565 249.28 
L 468.250099 249.28 
z
" clip-path="url(#pafe5e3fb04)" style="fill: #97c7dd; opacity: 0.7"/>
   </g>
   <g id="patch_33">
    <path d="M 94.726975 256.32 
L 106.864357 256.32 
L 106.864357 253.872824 
L 94.726975 253.872824 
z
" clip-path="url(#pafe5e3fb04)" style="fill: #645aa3; opacity: 0.7"/>
   </g>
   <g id="patch_34">
    <path d="M 106.864357 256.32 
L 119.001738 256.32 
L 119.001738 253.872824 
L 106.864357 253.872824 
z
" clip-path="url(#pafe5e3fb04)" style="fill: #645aa3; opacity: 0.7"/>
   </g>
   <g id="patch_35">
    <path d="M 119.001738 256.32 
L 131.13912 256.32 
L 131.13912 255.096412 
L 119.001738 255.096412 
z
" clip-path="url(#pafe5e3fb04)" style="fill: #645aa3; opacity: 0.7"/>
   </g>
   <g id="patch_36">
    <path d="M 131.13912 256.32 
L 143.276501 256.32 
L 143.276501 255.096412 
L 131.13912 255.096412 
z
" clip-path="url(#pafe5e3fb04)" style="fill: #645aa3; opacity: 0.7"/>
   </g>
   <g id="patch_37">
    <path d="M 143.276501 256.32 
L 155.413883 256.32 
L 155.413883 251.425648 
L 143.276501 251.425648 
z
" clip-path="url(#pafe5e3fb04)" style="fill: #645aa3; opacity: 0.7"/>
   </g>
   <g id="patch_38">
    <path d="M 155.413883 256.32 
L 167.551265 256.32 
L 167.551265 248.978472 
L 155.413883 248.978472 
z
" clip-path="url(#pafe5e3fb04)" style="fill: #645aa3; opacity: 0.7"/>
   </g>
   <g id="patch_39">
    <path d="M 167.551265 256.32 
L 179.688646 256.32 
L 179.688646 252.649236 
L 167.551265 252.649236 
z
" clip-path="url(#pafe5e3fb04)" style="fill: #645aa3; opacity: 0.7"/>
   </g>
   <g id="patch_40">
    <path d="M 179.688646 256.32 
L 191.826028 256.32 
L 191.826028 251.425648 
L 179.688646 251.425648 
z
" clip-path="url(#pafe5e3fb04)" style="fill: #645aa3; opacity: 0.7"/>
   </g>
   <g id="patch_41">
    <path d="M 191.826028 256.32 
L 203.963409 256.32 
L 203.963409 244.084121 
L 191.826028 244.084121 
z
" clip-path="url(#pafe5e3fb04)" style="fill: #645aa3; opacity: 0.7"/>
   </g>
   <g id="patch_42">
    <path d="M 203.963409 256.32 
L 216.100791 256.32 
L 216.100791 236.742593 
L 203.963409 236.742593 
z
" clip-path="url(#pafe5e3fb04)" style="fill: #645aa3; opacity: 0.7"/>
   </g>
   <g id="patch_43">
    <path d="M 216.100791 256.32 
L 228.238172 256.32 
L 228.238172 230.624653 
L 216.100791 230.624653 
z
" clip-path="url(#pafe5e3fb04)" style="fill: #645aa3; opacity: 0.7"/>
   </g>
   <g id="patch_44">
    <path d="M 228.238172 256.32 
L 240.375554 256.32 
L 240.375554 230.624653 
L 228.238172 230.624653 
z
" clip-path="url(#pafe5e3fb04)" style="fill: #645aa3; opacity: 0.7"/>
   </g>
   <g id="patch_45">
    <path d="M 240.375554 256.32 
L 252.512936 256.32 
L 252.512936 202.482131 
L 240.375554 202.482131 
z
" clip-path="url(#pafe5e3fb04)" style="fill: #645aa3; opacity: 0.7"/>
   </g>
   <g id="patch_46">
    <path d="M 252.512936 256.32 
L 264.650317 256.32 
L 264.650317 198.811367 
L 252.512936 198.811367 
z
" clip-path="url(#pafe5e3fb04)" style="fill: #645aa3; opacity: 0.7"/>
   </g>
   <g id="patch_47">
    <path d="M 264.650317 256.32 
L 276.787699 256.32 
L 276.787699 186.575487 
L 264.650317 186.575487 
z
" clip-path="url(#pafe5e3fb04)" style="fill: #645aa3; opacity: 0.7"/>
   </g>
   <g id="patch_48">
    <path d="M 276.787699 256.32 
L 288.92508 256.32 
L 288.92508 166.99808 
L 276.787699 166.99808 
z
" clip-path="url(#pafe5e3fb04)" style="fill: #645aa3; opacity: 0.7"/>
   </g>
   <g id="patch_49">
    <path d="M 288.92508 256.32 
L 301.062462 256.32 
L 301.062462 130.290442 
L 288.92508 130.290442 
z
" clip-path="url(#pafe5e3fb04)" style="fill: #645aa3; opacity: 0.7"/>
   </g>
   <g id="patch_50">
    <path d="M 301.062462 256.32 
L 313.199843 256.32 
L 313.199843 93.582804 
L 301.062462 93.582804 
z
" clip-path="url(#pafe5e3fb04)" style="fill: #645aa3; opacity: 0.7"/>
   </g>
   <g id="patch_51">
    <path d="M 313.199843 256.32 
L 325.337225 256.32 
L 325.337225 94.806392 
L 313.199843 94.806392 
z
" clip-path="url(#pafe5e3fb04)" style="fill: #645aa3; opacity: 0.7"/>
   </g>
   <g id="patch_52">
    <path d="M 325.337225 256.32 
L 337.474607 256.32 
L 337.474607 69.111045 
L 325.337225 69.111045 
z
" clip-path="url(#pafe5e3fb04)" style="fill: #645aa3; opacity: 0.7"/>
   </g>
   <g id="patch_53">
    <path d="M 337.474607 256.32 
L 349.611988 256.32 
L 349.611988 66.663869 
L 337.474607 66.663869 
z
" clip-path="url(#pafe5e3fb04)" style="fill: #645aa3; opacity: 0.7"/>
   </g>
   <g id="patch_54">
    <path d="M 349.611988 256.32 
L 361.74937 256.32 
L 361.74937 69.111045 
L 349.611988 69.111045 
z
" clip-path="url(#pafe5e3fb04)" style="fill: #645aa3; opacity: 0.7"/>
   </g>
   <g id="patch_55">
    <path d="M 361.74937 256.32 
L 373.886751 256.32 
L 373.886751 81.346925 
L 361.74937 81.346925 
z
" clip-path="url(#pafe5e3fb04)" style="fill: #645aa3; opacity: 0.7"/>
   </g>
   <g id="patch_56">
    <path d="M 373.886751 256.32 
L 386.024133 256.32 
L 386.024133 119.278151 
L 373.886751 119.278151 
z
" clip-path="url(#pafe5e3fb04)" style="fill: #645aa3; opacity: 0.7"/>
   </g>
   <g id="patch_57">
    <path d="M 386.024133 256.32 
L 398.161514 256.32 
L 398.161514 171.892432 
L 386.024133 171.892432 
z
" clip-path="url(#pafe5e3fb04)" style="fill: #645aa3; opacity: 0.7"/>
   </g>
   <g id="patch_58">
    <path d="M 398.161514 256.32 
L 410.298896 256.32 
L 410.298896 193.917015 
L 398.161514 193.917015 
z
" clip-path="url(#pafe5e3fb04)" style="fill: #645aa3; opacity: 0.7"/>
   </g>
   <g id="patch_59">
    <path d="M 410.298896 256.32 
L 422.436278 256.32 
L 422.436278 215.941598 
L 410.298896 215.941598 
z
" clip-path="url(#pafe5e3fb04)" style="fill: #645aa3; opacity: 0.7"/>
   </g>
   <g id="patch_60">
    <path d="M 422.436278 256.32 
L 434.573659 256.32 
L 434.573659 245.307709 
L 422.436278 245.307709 
z
" clip-path="url(#pafe5e3fb04)" style="fill: #645aa3; opacity: 0.7"/>
   </g>
   <g id="patch_61">
    <path d="M 434.573659 256.32 
L 446.711041 256.32 
L 446.711041 252.649236 
L 434.573659 252.649236 
z
" clip-path="url(#pafe5e3fb04)" style="fill: #645aa3; opacity: 0.7"/>
   </g>
   <g id="patch_62">
    <path d="M 446.711041 256.32 
L 458.848422 256.32 
L 458.848422 255.096412 
L 446.711041 255.096412 
z
" clip-path="url(#pafe5e3fb04)" style="fill: #645aa3; opacity: 0.7"/>
   </g>
   <g id="matplotlib.axis_1">
    <g id="xtick_1">
     <g id="line2d_1">
      <defs>
       <path id="m6d2ae94404" d="M 0 0 
L 0 6 
" style="stroke: #d3d3d3; stroke-width: 2"/>
      </defs>
      <g>
       <use xlink:href="#m6d2ae94404" x="72" y="256.32" style="fill: #d3d3d3; stroke: #d3d3d3; stroke-width: 2"/>
      </g>
     </g>
     <g id="text_1">
      <text style="font: 14px 'Arial'; text-anchor: middle" x="72" y="275.840937" transform="rotate(-0 72 275.840937)">3.0</text>
     </g>
    </g>
    <g id="xtick_2">
     <g id="line2d_2">
      <g>
       <use xlink:href="#m6d2ae94404" x="161.28" y="256.32" style="fill: #d3d3d3; stroke: #d3d3d3; stroke-width: 2"/>
      </g>
     </g>
     <g id="text_2">
      <text style="font: 14px 'Arial'; text-anchor: middle" x="161.28" y="275.840937" transform="rotate(-0 161.28 275.840937)">3.5</text>
     </g>
    </g>
    <g id="xtick_3">
     <g id="line2d_3">
      <g>
       <use xlink:href="#m6d2ae94404" x="250.56" y="256.32" style="fill: #d3d3d3; stroke: #d3d3d3; stroke-width: 2"/>
      </g>
     </g>
     <g id="text_3">
      <text style="font: 14px 'Arial'; text-anchor: middle" x="250.56" y="275.840937" transform="rotate(-0 250.56 275.840937)">4.0</text>
     </g>
    </g>
    <g id="xtick_4">
     <g id="line2d_4">
      <g>
       <use xlink:href="#m6d2ae94404" x="339.84" y="256.32" style="fill: #d3d3d3; stroke: #d3d3d3; stroke-width: 2"/>
      </g>
     </g>
     <g id="text_4">
      <text style="font: 14px 'Arial'; text-anchor: middle" x="339.84" y="275.840937" transform="rotate(-0 339.84 275.840937)">4.5</text>
     </g>
    </g>
    <g id="xtick_5">
     <g id="line2d_5">
      <g>
       <use xlink:href="#m6d2ae94404" x="429.12" y="256.32" style="fill: #d3d3d3; stroke: #d3d3d3; stroke-width: 2"/>
      </g>
     </g>
     <g id="text_5">
      <text style="font: 14px 'Arial'; text-anchor: middle" x="429.12" y="275.840937" transform="rotate(-0 429.12 275.840937)">5.0</text>
     </g>
    </g>
    <g id="xtick_6">
     <g id="line2d_6">
      <g>
       <use xlink:href="#m6d2ae94404" x="518.4" y="256.32" style="fill: #d3d3d3; stroke: #d3d3d3; stroke-width: 2"/>
      </g>
     </g>
     <g id="text_6">
      <text style="font: 14px 'Arial'; text-anchor: middle" x="518.4" y="275.840937" transform="rotate(-0 518.4 275.840937)">5.5</text>
     </g>
    </g>
    <g id="text_7">
     <text style="font: 18px 'Arial'; text-anchor: middle" x="295.2" y="295.726875" transform="rotate(-0 295.2 295.726875)">PSD area (nm^2)</text>
    </g>
   </g>
   <g id="matplotlib.axis_2">
    <g id="ytick_1">
     <g id="line2d_7">
      <defs>
       <path id="ma87d747258" d="M 0 0 
L -6 0 
" style="stroke: #d3d3d3; stroke-width: 2"/>
      </defs>
      <g>
       <use xlink:href="#ma87d747258" x="72" y="256.32" style="fill: #d3d3d3; stroke: #d3d3d3; stroke-width: 2"/>
      </g>
     </g>
     <g id="text_8">
      <text style="font: 14px 'Arial'; text-anchor: end" x="62.5" y="261.330469" transform="rotate(-0 62.5 261.330469)">0.00</text>
     </g>
    </g>
    <g id="ytick_2">
     <g id="line2d_8">
      <g>
       <use xlink:href="#ma87d747258" x="72" y="223.841418" style="fill: #d3d3d3; stroke: #d3d3d3; stroke-width: 2"/>
      </g>
     </g>
     <g id="text_9">
      <text style="font: 14px 'Arial'; text-anchor: end" x="62.5" y="228.851887" transform="rotate(-0 62.5 228.851887)">0.25</text>
     </g>
    </g>
    <g id="ytick_3">
     <g id="line2d_9">
      <g>
       <use xlink:href="#ma87d747258" x="72" y="191.362837" style="fill: #d3d3d3; stroke: #d3d3d3; stroke-width: 2"/>
      </g>
     </g>
     <g id="text_10">
      <text style="font: 14px 'Arial'; text-anchor: end" x="62.5" y="196.373306" transform="rotate(-0 62.5 196.373306)">0.50</text>
     </g>
    </g>
    <g id="ytick_4">
     <g id="line2d_10">
      <g>
       <use xlink:href="#ma87d747258" x="72" y="158.884255" style="fill: #d3d3d3; stroke: #d3d3d3; stroke-width: 2"/>
      </g>
     </g>
     <g id="text_11">
      <text style="font: 14px 'Arial'; text-anchor: end" x="62.5" y="163.894724" transform="rotate(-0 62.5 163.894724)">0.75</text>
     </g>
    </g>
    <g id="ytick_5">
     <g id="line2d_11">
      <g>
       <use xlink:href="#ma87d747258" x="72" y="126.405674" style="fill: #d3d3d3; stroke: #d3d3d3; stroke-width: 2"/>
      </g>
     </g>
     <g id="text_12">
      <text style="font: 14px 'Arial'; text-anchor: end" x="62.5" y="131.416143" transform="rotate(-0 62.5 131.416143)">1.00</text>
     </g>
    </g>
    <g id="ytick_6">
     <g id="line2d_12">
      <g>
       <use xlink:href="#ma87d747258" x="72" y="93.927092" style="fill: #d3d3d3; stroke: #d3d3d3; stroke-width: 2"/>
      </g>
     </g>
     <g id="text_13">
      <text style="font: 14px 'Arial'; text-anchor: end" x="62.5" y="98.937561" transform="rotate(-0 62.5 98.937561)">1.25</text>
     </g>
    </g>
    <g id="ytick_7">
     <g id="line2d_13">
      <g>
       <use xlink:href="#ma87d747258" x="72" y="61.448511" style="fill: #d3d3d3; stroke: #d3d3d3; stroke-width: 2"/>
      </g>
     </g>
     <g id="text_14">
      <text style="font: 14px 'Arial'; text-anchor: end" x="62.5" y="66.45898" transform="rotate(-0 62.5 66.45898)">1.50</text>
     </g>
    </g>
    <g id="text_15">
     <text style="font: 18px 'Arial'; text-anchor: middle" x="27.677187" y="145.44" transform="rotate(-90 27.677187 145.44)">PDF</text>
    </g>
   </g>
   <g id="line2d_14">
    <path d="M 168.695579 255.461075 
L 177.070822 254.915142 
L 183.895093 254.259196 
L 190.098977 253.440543 
L 195.682472 252.472583 
L 200.645579 251.386487 
L 205.298492 250.138821 
L 209.641211 248.74195 
L 213.673735 247.216361 
L 217.706259 245.444297 
L 221.428589 243.566947 
L 225.15092 241.436225 
L 228.87325 239.031631 
L 232.285386 236.570002 
L 235.697522 233.847528 
L 239.109658 230.851381 
L 242.521794 227.570471 
L 245.93393 223.99587 
L 249.65626 219.753978 
L 253.37859 215.150965 
L 257.10092 210.187629 
L 261.133445 204.411536 
L 265.165969 198.236143 
L 269.508687 191.168122 
L 274.1616 183.163578 
L 279.434901 173.639898 
L 286.259173 160.80956 
L 302.389271 130.242495 
L 307.352378 121.433857 
L 311.384902 114.706696 
L 315.107232 108.928864 
L 318.519368 104.06074 
L 321.62131 100.036662 
L 324.413057 96.773618 
L 326.894611 94.179171 
L 329.376164 91.889162 
L 331.857718 89.917593 
L 334.029077 88.463299 
L 336.200436 87.269068 
L 338.371796 86.340613 
L 340.543155 85.682392 
L 342.40432 85.335725 
L 344.265485 85.191177 
L 346.12665 85.249261 
L 347.987815 85.509771 
L 349.84898 85.971781 
L 352.02034 86.763244 
L 354.191699 87.822904 
L 356.363058 89.145682 
L 358.534417 90.725267 
L 361.015971 92.835301 
L 363.497524 95.257962 
L 365.979078 97.978501 
L 368.770825 101.374709 
L 371.872767 105.534953 
L 374.974709 110.065494 
L 378.386845 115.428453 
L 382.419369 122.203672 
L 387.072282 130.489805 
L 392.965971 141.481648 
L 413.128593 179.536142 
L 418.401894 188.775594 
L 423.054807 196.47467 
L 427.397526 203.222443 
L 431.43005 209.078646 
L 435.15238 214.118207 
L 438.87471 218.798346 
L 442.59704 223.117137 
L 446.319371 227.077694 
L 449.731507 230.399865 
L 453.143643 233.435889 
L 456.555779 236.196571 
L 459.967915 238.694514 
L 463.690245 241.136368 
L 467.412575 243.301744 
L 471.134905 245.211063 
L 475.167429 247.014699 
L 478.579565 248.344836 
L 478.579565 248.344836 
" clip-path="url(#pafe5e3fb04)" style="fill: none; stroke: #97c7dd; stroke-width: 4; stroke-linecap: square"/>
   </g>
   <g id="line2d_15">
    <path d="M 168.695579 254.624701 
L 174.899462 253.898352 
L 180.482957 253.0223 
L 185.446064 252.022523 
L 190.098977 250.856887 
L 194.441696 249.534443 
L 198.47422 248.072966 
L 202.19655 246.498479 
L 205.91888 244.683095 
L 209.331016 242.786637 
L 212.743152 240.648642 
L 216.155288 238.250746 
L 219.567424 235.575333 
L 222.97956 232.60597 
L 226.391696 229.327883 
L 229.803832 225.72847 
L 233.215968 221.797826 
L 236.628104 217.529289 
L 240.04024 212.919969 
L 243.76257 207.50474 
L 247.484901 201.694059 
L 251.517425 194.971383 
L 255.860143 187.268788 
L 260.513056 178.543146 
L 265.786357 168.169978 
L 272.920823 153.592709 
L 285.638785 127.519596 
L 290.601892 117.89503 
L 294.634416 110.527728 
L 298.356746 104.192591 
L 301.458688 99.318391 
L 304.56063 94.86275 
L 307.352378 91.246929 
L 309.833931 88.371237 
L 312.315484 85.833596 
L 314.486844 83.903665 
L 316.658203 82.255218 
L 318.829562 80.896708 
L 320.690727 79.968389 
L 322.551892 79.261791 
L 324.413057 78.779614 
L 326.274223 78.523702 
L 328.135388 78.495037 
L 329.996553 78.693728 
L 331.857718 79.119012 
L 333.718883 79.769262 
L 335.580048 80.641992 
L 337.441213 81.733877 
L 339.612572 83.279154 
L 341.783932 85.109106 
L 343.955291 87.214391 
L 346.436844 89.943833 
L 348.918398 93.001042 
L 351.710145 96.807485 
L 354.812087 101.45654 
L 357.914029 106.503375 
L 361.636359 113.016655 
L 365.668884 120.539812 
L 370.63199 130.302222 
L 377.456262 144.266552 
L 389.86403 169.71335 
L 395.447525 180.610064 
L 400.100438 189.228365 
L 404.443156 196.815428 
L 408.475681 203.421073 
L 412.198011 209.118068 
L 415.920341 214.416468 
L 419.642671 219.309971 
L 423.054807 223.4401 
L 426.466943 227.234643 
L 429.879079 230.701648 
L 433.291215 233.852185 
L 436.703351 236.699803 
L 440.115487 239.26001 
L 443.527623 241.549777 
L 446.939759 243.587074 
L 450.662089 245.543443 
L 454.384419 247.245769 
L 458.416944 248.831244 
L 462.449468 250.1767 
L 466.792187 251.389836 
L 471.445099 252.455079 
L 476.408206 253.365085 
L 478.579565 253.700054 
L 478.579565 253.700054 
" clip-path="url(#pafe5e3fb04)" style="fill: none; stroke: #645aa3; stroke-width: 4; stroke-linecap: square"/>
   </g>
   <g id="line2d_16">
    <path d="M 168.695579 254.076542 
L 174.589268 253.245989 
L 179.862569 252.286138 
L 184.825676 251.155582 
L 189.478589 249.859105 
L 193.821307 248.409972 
L 197.853832 246.82975 
L 201.576162 245.147537 
L 205.298492 243.229318 
L 209.020822 241.054269 
L 212.743152 238.601987 
L 216.155288 236.093856 
L 219.567424 233.32243 
L 222.97956 230.275168 
L 226.391696 226.941344 
L 229.803832 223.312466 
L 233.526162 219.010421 
L 237.248493 214.34703 
L 240.970823 209.32397 
L 245.003347 203.485048 
L 249.035871 197.250089 
L 253.37859 190.123215 
L 258.031503 182.063776 
L 263.614998 171.915869 
L 270.749464 158.436483 
L 284.708202 131.943215 
L 289.671309 123.043359 
L 294.014028 115.710075 
L 297.736358 109.857808 
L 301.148494 104.911032 
L 304.250436 100.807336 
L 307.042183 97.466526 
L 309.833931 94.485841 
L 312.315484 92.15714 
L 314.797038 90.145233 
L 316.968397 88.654479 
L 319.139756 87.422877 
L 321.311116 86.456313 
L 323.482475 85.759427 
L 325.34364 85.379316 
L 327.204805 85.201169 
L 329.06597 85.22562 
L 330.927135 85.45258 
L 332.7883 85.881243 
L 334.649465 86.510089 
L 336.820825 87.493746 
L 338.992184 88.742097 
L 341.163543 90.249175 
L 343.334903 92.007822 
L 345.816456 94.315047 
L 348.298009 96.925872 
L 351.089757 100.206227 
L 353.881505 103.82602 
L 356.983446 108.213319 
L 360.395582 113.43771 
L 364.117913 119.549502 
L 368.460631 127.126244 
L 373.733932 136.805189 
L 381.798981 152.157864 
L 392.345583 172.170669 
L 398.239273 182.855722 
L 403.202379 191.394881 
L 407.545098 198.449577 
L 411.577622 204.611582 
L 415.610147 210.373638 
L 419.332477 215.323695 
L 423.054807 219.913343 
L 426.777137 224.141973 
L 430.499467 228.013867 
L 433.911603 231.256937 
L 437.323739 234.216608 
L 440.735875 236.904219 
L 444.458206 239.541214 
L 448.180536 241.88859 
L 451.902866 243.966228 
L 455.625196 245.794737 
L 459.65772 247.518688 
L 463.690245 249.001076 
L 468.032963 250.35672 
L 472.685876 251.565977 
L 477.648983 252.617182 
L 478.579565 252.789989 
L 478.579565 252.789989 
" clip-path="url(#pafe5e3fb04)" style="fill: none; stroke-dasharray: 14.8,6.4; stroke-dashoffset: 0; stroke: #000000; stroke-width: 4"/>
   </g>
   <g id="patch_63">
    <path d="M 72 256.32 
L 72 34.56 
" style="fill: none; stroke: #d3d3d3; stroke-width: 2; stroke-linejoin: miter; stroke-linecap: square"/>
   </g>
   <g id="patch_64">
    <path d="M 72 256.32 
L 518.4 256.32 
" style="fill: none; stroke: #d3d3d3; stroke-width: 2; stroke-linejoin: miter; stroke-linecap: square"/>
   </g>
   <g id="text_16">
    <text style="font: 12px 'Arial'; text-anchor: middle" x="295.2" y="28.56" transform="rotate(-0 295.2 28.56)">L1 vs L3 p-value = 0.0; L1-scaled vs L3 p-value = 0.667</text>
   </g>
   <g id="legend_1">
    <g id="patch_65">
     <path d="M 81.8 145.111875 
L 239.914687 145.111875 
Q 242.714687 145.111875 242.714687 142.311875 
L 242.714687 44.36 
Q 242.714687 41.56 239.914687 41.56 
L 81.8 41.56 
Q 79 41.56 79 44.36 
L 79 142.311875 
Q 79 145.111875 81.8 145.111875 
z
" style="fill: #ffffff; opacity: 0.8; stroke: #d3d3d3; stroke-linejoin: miter"/>
    </g>
    <g id="patch_66">
     <path d="M 84.6 57.180937 
L 105.6 57.180937 
L 105.6 47.380938 
L 84.6 47.380938 
z
" style="fill: #97c7dd; opacity: 0.7"/>
    </g>
    <g id="text_17">
     <text style="font: 14px 'Arial'; text-anchor: start" x="112.6" y="57.180937" transform="rotate(-0 112.6 57.180937)">L1</text>
    </g>
    <g id="patch_67">
     <path d="M 84.6 76.984375 
L 105.6 76.984375 
L 105.6 67.184375 
L 84.6 67.184375 
z
" style="fill: #645aa3; opacity: 0.7"/>
    </g>
    <g id="text_18">
     <text style="font: 14px 'Arial'; text-anchor: start" x="112.6" y="76.984375" transform="rotate(-0 112.6 76.984375)">L3</text>
    </g>
    <g id="line2d_17">
     <path d="M 84.6 91.887812 
L 95.1 91.887812 
L 105.6 91.887812 
" style="fill: none; stroke: #97c7dd; stroke-width: 4; stroke-linecap: square"/>
    </g>
    <g id="text_19">
     <text style="font: 14px 'Arial'; text-anchor: start" x="112.6" y="96.787813" transform="rotate(-0 112.6 96.787813)">L1 fit</text>
    </g>
    <g id="line2d_18">
     <path d="M 84.6 111.69125 
L 95.1 111.69125 
L 105.6 111.69125 
" style="fill: none; stroke: #645aa3; stroke-width: 4; stroke-linecap: square"/>
    </g>
    <g id="text_20">
     <text style="font: 14px 'Arial'; text-anchor: start" x="112.6" y="116.59125" transform="rotate(-0 112.6 116.59125)">L3 fit</text>
    </g>
    <g id="line2d_19">
     <path d="M 84.6 131.665312 
L 95.1 131.665312 
L 105.6 131.665312 
" style="fill: none; stroke-dasharray: 14.8,6.4; stroke-dashoffset: 0; stroke: #000000; stroke-width: 4"/>
    </g>
    <g id="text_21">
     <text style="font: 14px 'Arial'; text-anchor: start" x="112.6" y="136.565313" transform="rotate(-0 112.6 136.565313)">L1 fit scaled by 0.81</text>
    </g>
   </g>
  </g>
 </g>
 <defs>
  <clipPath id="pafe5e3fb04">
   <rect x="72" y="34.56" width="446.4" height="221.76"/>
  </clipPath>
 </defs>
</svg>
