<?xml version="1.0" encoding="utf-8" standalone="no"?>
<!DOCTYPE svg PUBLIC "-//W3C//DTD SVG 1.1//EN"
  "http://www.w3.org/Graphics/SVG/1.1/DTD/svg11.dtd">
<svg xmlns:xlink="http://www.w3.org/1999/xlink" width="432pt" height="288pt" viewBox="0 0 432 288" xmlns="http://www.w3.org/2000/svg" version="1.1">
 <metadata>
  <rdf:RDF xmlns:dc="http://purl.org/dc/elements/1.1/" xmlns:cc="http://creativecommons.org/ns#" xmlns:rdf="http://www.w3.org/1999/02/22-rdf-syntax-ns#">
   <cc:Work>
    <dc:type rdf:resource="http://purl.org/dc/dcmitype/StillImage"/>
    <dc:date>2025-05-16T10:38:23.005613</dc:date>
    <dc:format>image/svg+xml</dc:format>
    <dc:creator>
     <cc:Agent>
      <dc:title>Matplotlib v3.9.2, https://matplotlib.org/</dc:title>
     </cc:Agent>
    </dc:creator>
   </cc:Work>
  </rdf:RDF>
 </metadata>
 <defs>
  <style type="text/css">*{stroke-linejoin: round; stroke-linecap: butt}</style>
 </defs>
 <g id="figure_1">
  <g id="patch_1">
   <path d="M 0 288 
L 432 288 
L 432 0 
L 0 0 
z
" style="fill: #ffffff"/>
  </g>
  <g id="axes_1">
   <g id="patch_2">
    <path d="M 54 256.32 
L 388.8 256.32 
L 388.8 34.56 
L 54 34.56 
z
" style="fill: #ffffff"/>
   </g>
   <g id="PolyCollection_1">
    <defs>
     <path id="m9ab5384e86" d="M 80.086745 -57.821584 
L 79.397228 -57.821584 
L 79.303573 -58.493923 
L 79.19012 -59.166262 
L 79.054279 -59.838601 
L 78.893525 -60.51094 
L 78.705507 -61.183278 
L 78.488166 -61.855617 
L 78.239866 -62.527956 
L 77.95952 -63.200295 
L 77.646707 -63.872634 
L 77.301773 -64.544972 
L 76.925909 -65.217311 
L 76.52119 -65.88965 
L 76.090583 -66.561989 
L 75.637903 -67.234327 
L 75.167731 -67.906666 
L 74.685293 -68.579005 
L 74.1963 -69.251344 
L 73.706756 -69.923683 
L 73.22276 -70.596021 
L 72.750287 -71.26836 
L 72.294993 -71.940699 
L 71.862023 -72.613038 
L 71.45586 -73.285377 
L 71.080205 -73.957715 
L 70.737901 -74.630054 
L 70.430904 -75.302393 
L 70.160298 -75.974732 
L 69.926353 -76.64707 
L 69.728613 -77.319409 
L 69.566018 -77.991748 
L 69.437035 -78.664087 
L 69.33981 -79.336426 
L 69.272304 -80.008764 
L 69.232434 -80.681103 
L 69.218182 -81.353442 
L 69.227695 -82.025781 
L 69.259346 -82.69812 
L 69.311771 -83.370458 
L 69.383876 -84.042797 
L 69.474808 -84.715136 
L 69.58391 -85.387475 
L 69.71065 -86.059813 
L 69.854536 -86.732152 
L 70.015029 -87.404491 
L 70.191452 -88.07683 
L 70.382914 -88.749169 
L 70.588242 -89.421507 
L 70.805946 -90.093846 
L 71.034199 -90.766185 
L 71.270849 -91.438524 
L 71.513457 -92.110863 
L 71.759359 -92.783201 
L 72.005744 -93.45554 
L 72.249753 -94.127879 
L 72.488576 -94.800218 
L 72.719562 -95.472556 
L 72.940313 -96.144895 
L 73.148777 -96.817234 
L 73.34333 -97.489573 
L 73.522833 -98.161912 
L 73.686685 -98.83425 
L 73.834846 -99.506589 
L 73.967851 -100.178928 
L 74.086801 -100.851267 
L 74.193333 -101.523606 
L 74.289575 -102.195944 
L 74.378081 -102.868283 
L 74.461744 -103.540622 
L 74.543696 -104.212961 
L 74.62719 -104.885299 
L 74.715471 -105.557638 
L 74.811643 -106.229977 
L 74.918531 -106.902316 
L 75.038552 -107.574655 
L 75.173598 -108.246993 
L 75.324944 -108.919332 
L 75.49318 -109.591671 
L 75.678173 -110.26401 
L 75.87907 -110.936349 
L 76.094332 -111.608687 
L 76.321808 -112.281026 
L 76.558835 -112.953365 
L 76.802362 -113.625704 
L 77.049091 -114.298042 
L 77.295627 -114.970381 
L 77.538623 -115.64272 
L 77.774919 -116.315059 
L 78.001657 -116.987398 
L 78.216379 -117.659736 
L 78.417095 -118.332075 
L 78.602319 -119.004414 
L 78.771085 -119.676753 
L 78.922925 -120.349092 
L 79.057837 -121.02143 
L 79.176227 -121.693769 
L 79.278843 -122.366108 
L 79.366701 -123.038447 
L 79.44101 -123.710785 
L 79.503099 -124.383124 
L 79.980874 -124.383124 
L 79.980874 -124.383124 
L 80.042962 -123.710785 
L 80.117271 -123.038447 
L 80.205129 -122.366108 
L 80.307746 -121.693769 
L 80.426136 -121.02143 
L 80.561048 -120.349092 
L 80.712888 -119.676753 
L 80.881653 -119.004414 
L 81.066878 -118.332075 
L 81.267593 -117.659736 
L 81.482316 -116.987398 
L 81.709054 -116.315059 
L 81.94535 -115.64272 
L 82.188346 -114.970381 
L 82.434882 -114.298042 
L 82.681611 -113.625704 
L 82.925137 -112.953365 
L 83.162164 -112.281026 
L 83.389641 -111.608687 
L 83.604903 -110.936349 
L 83.805799 -110.26401 
L 83.990792 -109.591671 
L 84.159028 -108.919332 
L 84.310375 -108.246993 
L 84.445421 -107.574655 
L 84.565441 -106.902316 
L 84.672329 -106.229977 
L 84.768502 -105.557638 
L 84.856783 -104.885299 
L 84.940277 -104.212961 
L 85.022229 -103.540622 
L 85.105892 -102.868283 
L 85.194398 -102.195944 
L 85.29064 -101.523606 
L 85.397172 -100.851267 
L 85.516121 -100.178928 
L 85.649127 -99.506589 
L 85.797288 -98.83425 
L 85.961139 -98.161912 
L 86.140643 -97.489573 
L 86.335195 -96.817234 
L 86.54366 -96.144895 
L 86.76441 -95.472556 
L 86.995396 -94.800218 
L 87.23422 -94.127879 
L 87.478229 -93.45554 
L 87.724614 -92.783201 
L 87.970516 -92.110863 
L 88.213124 -91.438524 
L 88.449773 -90.766185 
L 88.678026 -90.093846 
L 88.89573 -89.421507 
L 89.101059 -88.749169 
L 89.29252 -88.07683 
L 89.468944 -87.404491 
L 89.629437 -86.732152 
L 89.773323 -86.059813 
L 89.900062 -85.387475 
L 90.009164 -84.715136 
L 90.100097 -84.042797 
L 90.172201 -83.370458 
L 90.224627 -82.69812 
L 90.256278 -82.025781 
L 90.265791 -81.353442 
L 90.251539 -80.681103 
L 90.211668 -80.008764 
L 90.144163 -79.336426 
L 90.046938 -78.664087 
L 89.917955 -77.991748 
L 89.75536 -77.319409 
L 89.55762 -76.64707 
L 89.323675 -75.974732 
L 89.053069 -75.302393 
L 88.746072 -74.630054 
L 88.403767 -73.957715 
L 88.028112 -73.285377 
L 87.62195 -72.613038 
L 87.18898 -71.940699 
L 86.733686 -71.26836 
L 86.261213 -70.596021 
L 85.777216 -69.923683 
L 85.287673 -69.251344 
L 84.79868 -68.579005 
L 84.316242 -67.906666 
L 83.84607 -67.234327 
L 83.393389 -66.561989 
L 82.962782 -65.88965 
L 82.558064 -65.217311 
L 82.1822 -64.544972 
L 81.837266 -63.872634 
L 81.524452 -63.200295 
L 81.244106 -62.527956 
L 80.995807 -61.855617 
L 80.778466 -61.183278 
L 80.590447 -60.51094 
L 80.429694 -59.838601 
L 80.293853 -59.166262 
L 80.180399 -58.493923 
L 80.086745 -57.821584 
z
" style="stroke: #4c4c4c; stroke-width: 1.25"/>
    </defs>
    <g clip-path="url(#p42d0c5ab9b)">
     <use xlink:href="#m9ab5384e86" x="0" y="288" style="fill: #a0c4d4; stroke: #4c4c4c; stroke-width: 1.25"/>
    </g>
   </g>
   <g id="PolyCollection_2">
    <defs>
     <path id="mfb3e424b88" d="M 100.905213 -53.590771 
L 100.673977 -53.590771 
L 100.62165 -54.563349 
L 100.550347 -55.535927 
L 100.455253 -56.508504 
L 100.331106 -57.481082 
L 100.172428 -58.45366 
L 99.973832 -59.426238 
L 99.730403 -60.398815 
L 99.438113 -61.371393 
L 99.09424 -62.343971 
L 98.697746 -63.316548 
L 98.249551 -64.289126 
L 97.752689 -65.261704 
L 97.212298 -66.234282 
L 96.635473 -67.206859 
L 96.03097 -68.179437 
L 95.408834 -69.152015 
L 94.779991 -70.124592 
L 94.155858 -71.09717 
L 93.548021 -72.069748 
L 92.967976 -73.042326 
L 92.426953 -74.014903 
L 91.935749 -74.987481 
L 91.504548 -75.960059 
L 91.142663 -76.932636 
L 90.858166 -77.905214 
L 90.657413 -78.877792 
L 90.544495 -79.85037 
L 90.520695 -80.822947 
L 90.584057 -81.795525 
L 90.729157 -82.768103 
L 90.947195 -83.74068 
L 91.22643 -84.713258 
L 91.552977 -85.685836 
L 91.91189 -86.658414 
L 92.288403 -87.630991 
L 92.669171 -88.603569 
L 93.043334 -89.576147 
L 93.403243 -90.548724 
L 93.744727 -91.521302 
L 94.066894 -92.49388 
L 94.371476 -93.466458 
L 94.661873 -94.439035 
L 94.942049 -95.411613 
L 95.215482 -96.384191 
L 95.484349 -97.356768 
L 95.749061 -98.329346 
L 96.008209 -99.301924 
L 96.258881 -100.274501 
L 96.497272 -101.247079 
L 96.719418 -102.219657 
L 96.921936 -103.192235 
L 97.102609 -104.164812 
L 97.260746 -105.13739 
L 97.397266 -106.109968 
L 97.514542 -107.082545 
L 97.616053 -108.055123 
L 97.705927 -109.027701 
L 97.78847 -110.000279 
L 97.867748 -110.972856 
L 97.947264 -111.945434 
L 98.029757 -112.918012 
L 98.117124 -113.890589 
L 98.21043 -114.863167 
L 98.309991 -115.835745 
L 98.415494 -116.808323 
L 98.526139 -117.7809 
L 98.640774 -118.753478 
L 98.758031 -119.726056 
L 98.876441 -120.698633 
L 98.994541 -121.671211 
L 99.110963 -122.643789 
L 99.224507 -123.616367 
L 99.334189 -124.588944 
L 99.439274 -125.561522 
L 99.539276 -126.5341 
L 99.633948 -127.506677 
L 99.723248 -128.479255 
L 99.807302 -129.451833 
L 99.886354 -130.424411 
L 99.960737 -131.396988 
L 100.030828 -132.369566 
L 100.097028 -133.342144 
L 100.159731 -134.314721 
L 100.219299 -135.287299 
L 100.276041 -136.259877 
L 100.330183 -137.232455 
L 100.381852 -138.205032 
L 100.431054 -139.17761 
L 100.477684 -140.150188 
L 100.521535 -141.122765 
L 100.562334 -142.095343 
L 100.599784 -143.067921 
L 100.633613 -144.040499 
L 100.66362 -145.013076 
L 100.689709 -145.985654 
L 100.711909 -146.958232 
L 100.730376 -147.930809 
L 100.745381 -148.903387 
L 100.757281 -149.875965 
L 100.821909 -149.875965 
L 100.821909 -149.875965 
L 100.833809 -148.903387 
L 100.848815 -147.930809 
L 100.867282 -146.958232 
L 100.889482 -145.985654 
L 100.91557 -145.013076 
L 100.945577 -144.040499 
L 100.979407 -143.067921 
L 101.016857 -142.095343 
L 101.057656 -141.122765 
L 101.101507 -140.150188 
L 101.148137 -139.17761 
L 101.197339 -138.205032 
L 101.249007 -137.232455 
L 101.30315 -136.259877 
L 101.359892 -135.287299 
L 101.41946 -134.314721 
L 101.482162 -133.342144 
L 101.548362 -132.369566 
L 101.618454 -131.396988 
L 101.692836 -130.424411 
L 101.771889 -129.451833 
L 101.855942 -128.479255 
L 101.945243 -127.506677 
L 102.039915 -126.5341 
L 102.139917 -125.561522 
L 102.245001 -124.588944 
L 102.354684 -123.616367 
L 102.468228 -122.643789 
L 102.58465 -121.671211 
L 102.70275 -120.698633 
L 102.82116 -119.726056 
L 102.938417 -118.753478 
L 103.053052 -117.7809 
L 103.163697 -116.808323 
L 103.2692 -115.835745 
L 103.368761 -114.863167 
L 103.462067 -113.890589 
L 103.549434 -112.918012 
L 103.631927 -111.945434 
L 103.711442 -110.972856 
L 103.79072 -110.000279 
L 103.873264 -109.027701 
L 103.963137 -108.055123 
L 104.064648 -107.082545 
L 104.181925 -106.109968 
L 104.318445 -105.13739 
L 104.476581 -104.164812 
L 104.657255 -103.192235 
L 104.859773 -102.219657 
L 105.081919 -101.247079 
L 105.320309 -100.274501 
L 105.570982 -99.301924 
L 105.830129 -98.329346 
L 106.094841 -97.356768 
L 106.363708 -96.384191 
L 106.637142 -95.411613 
L 106.917318 -94.439035 
L 107.207715 -93.466458 
L 107.512297 -92.49388 
L 107.834463 -91.521302 
L 108.175948 -90.548724 
L 108.535856 -89.576147 
L 108.91002 -88.603569 
L 109.290788 -87.630991 
L 109.6673 -86.658414 
L 110.026213 -85.685836 
L 110.352761 -84.713258 
L 110.631996 -83.74068 
L 110.850033 -82.768103 
L 110.995134 -81.795525 
L 111.058495 -80.822947 
L 111.034696 -79.85037 
L 110.921777 -78.877792 
L 110.721024 -77.905214 
L 110.436528 -76.932636 
L 110.074643 -75.960059 
L 109.643442 -74.987481 
L 109.152237 -74.014903 
L 108.611214 -73.042326 
L 108.03117 -72.069748 
L 107.423332 -71.09717 
L 106.7992 -70.124592 
L 106.170357 -69.152015 
L 105.54822 -68.179437 
L 104.943717 -67.206859 
L 104.366892 -66.234282 
L 103.826502 -65.261704 
L 103.329639 -64.289126 
L 102.881444 -63.316548 
L 102.48495 -62.343971 
L 102.141078 -61.371393 
L 101.848788 -60.398815 
L 101.605358 -59.426238 
L 101.406762 -58.45366 
L 101.248084 -57.481082 
L 101.123938 -56.508504 
L 101.028844 -55.535927 
L 100.957541 -54.563349 
L 100.905213 -53.590771 
z
" style="stroke: #4c4c4c; stroke-width: 1.25"/>
    </defs>
    <g clip-path="url(#p42d0c5ab9b)">
     <use xlink:href="#mfb3e424b88" x="0" y="288" style="fill: #6b639a; stroke: #4c4c4c; stroke-width: 1.25"/>
    </g>
   </g>
   <g id="PolyCollection_3">
    <defs>
     <path id="m1b5abedd18" d="M 132.439199 -47.328169 
L 132.282818 -47.328169 
L 132.238761 -49.308289 
L 132.175467 -51.288408 
L 132.087445 -53.268528 
L 131.968886 -55.248647 
L 131.81415 -57.228767 
L 131.61838 -59.208886 
L 131.378186 -61.189006 
L 131.092324 -63.169125 
L 130.76226 -65.149245 
L 130.392522 -67.129364 
L 129.990754 -69.109484 
L 129.567406 -71.089603 
L 129.135072 -73.069723 
L 128.707504 -75.049842 
L 128.298446 -77.029962 
L 127.920429 -79.010081 
L 127.583713 -80.990201 
L 127.295542 -82.97032 
L 127.059811 -84.95044 
L 126.877168 -86.930559 
L 126.745491 -88.910679 
L 126.660611 -90.890798 
L 126.61715 -92.870918 
L 126.609315 -94.851037 
L 126.631565 -96.831157 
L 126.679073 -98.811276 
L 126.747988 -100.791396 
L 126.835471 -102.771515 
L 126.939578 -104.751635 
L 127.059019 -106.731754 
L 127.19288 -108.711874 
L 127.340385 -110.691993 
L 127.500768 -112.672113 
L 127.673252 -114.652232 
L 127.85712 -116.632352 
L 128.05178 -118.612471 
L 128.256738 -120.592591 
L 128.471427 -122.57271 
L 128.694903 -124.55283 
L 128.925502 -126.532949 
L 129.160604 -128.513069 
L 129.396627 -130.493188 
L 129.629307 -132.473308 
L 129.854236 -134.453427 
L 130.067516 -136.433547 
L 130.266347 -138.413666 
L 130.449381 -140.393786 
L 130.616745 -142.373905 
L 130.769744 -144.354025 
L 130.910344 -146.334144 
L 131.040582 -148.314264 
L 131.162063 -150.294383 
L 131.275657 -152.274503 
L 131.38142 -154.254622 
L 131.478728 -156.234742 
L 131.566552 -158.214861 
L 131.64379 -160.194981 
L 131.709587 -162.1751 
L 131.763611 -164.15522 
L 131.806236 -166.135339 
L 131.838636 -168.115459 
L 131.862762 -170.095578 
L 131.881194 -172.075698 
L 131.896885 -174.055817 
L 131.912804 -176.035937 
L 131.931554 -178.016056 
L 131.955016 -179.996176 
L 131.984109 -181.976295 
L 132.018705 -183.956415 
L 132.057724 -185.936534 
L 132.099372 -187.916654 
L 132.141479 -189.896773 
L 132.181837 -191.876893 
L 132.218499 -193.857012 
L 132.24997 -195.837132 
L 132.275291 -197.817251 
L 132.294019 -199.797371 
L 132.30615 -201.77749 
L 132.312024 -203.75761 
L 132.31224 -205.737729 
L 132.307604 -207.717849 
L 132.299106 -209.697968 
L 132.287916 -211.678088 
L 132.275358 -213.658207 
L 132.262856 -215.638327 
L 132.251831 -217.618446 
L 132.243561 -219.598566 
L 132.239034 -221.578685 
L 132.238813 -223.558805 
L 132.242968 -225.538924 
L 132.251077 -227.519044 
L 132.262316 -229.499163 
L 132.2756 -231.479283 
L 132.289762 -233.459402 
L 132.30372 -235.439522 
L 132.316605 -237.419641 
L 132.327834 -239.399761 
L 132.337118 -241.37988 
L 132.344424 -243.36 
L 132.377593 -243.36 
L 132.377593 -243.36 
L 132.3849 -241.37988 
L 132.394184 -239.399761 
L 132.405413 -237.419641 
L 132.418298 -235.439522 
L 132.432255 -233.459402 
L 132.446417 -231.479283 
L 132.459701 -229.499163 
L 132.47094 -227.519044 
L 132.47905 -225.538924 
L 132.483205 -223.558805 
L 132.482984 -221.578685 
L 132.478456 -219.598566 
L 132.470187 -217.618446 
L 132.459162 -215.638327 
L 132.44666 -213.658207 
L 132.434102 -211.678088 
L 132.422912 -209.697968 
L 132.414414 -207.717849 
L 132.409777 -205.737729 
L 132.409993 -203.75761 
L 132.415868 -201.77749 
L 132.427999 -199.797371 
L 132.446726 -197.817251 
L 132.472047 -195.837132 
L 132.503519 -193.857012 
L 132.540181 -191.876893 
L 132.580539 -189.896773 
L 132.622645 -187.916654 
L 132.664294 -185.936534 
L 132.703313 -183.956415 
L 132.737909 -181.976295 
L 132.767002 -179.996176 
L 132.790464 -178.016056 
L 132.809214 -176.035937 
L 132.825133 -174.055817 
L 132.840824 -172.075698 
L 132.859256 -170.095578 
L 132.883381 -168.115459 
L 132.915782 -166.135339 
L 132.958407 -164.15522 
L 133.01243 -162.1751 
L 133.078228 -160.194981 
L 133.155465 -158.214861 
L 133.24329 -156.234742 
L 133.340598 -154.254622 
L 133.44636 -152.274503 
L 133.559954 -150.294383 
L 133.681436 -148.314264 
L 133.811674 -146.334144 
L 133.952274 -144.354025 
L 134.105273 -142.373905 
L 134.272637 -140.393786 
L 134.45567 -138.413666 
L 134.654502 -136.433547 
L 134.867782 -134.453427 
L 135.092711 -132.473308 
L 135.32539 -130.493188 
L 135.561413 -128.513069 
L 135.796516 -126.532949 
L 136.027115 -124.55283 
L 136.250591 -122.57271 
L 136.46528 -120.592591 
L 136.670238 -118.612471 
L 136.864898 -116.632352 
L 137.048766 -114.652232 
L 137.22125 -112.672113 
L 137.381632 -110.691993 
L 137.529138 -108.711874 
L 137.662998 -106.731754 
L 137.782439 -104.751635 
L 137.886547 -102.771515 
L 137.97403 -100.791396 
L 138.042944 -98.811276 
L 138.090453 -96.831157 
L 138.112703 -94.851037 
L 138.104868 -92.870918 
L 138.061407 -90.890798 
L 137.976527 -88.910679 
L 137.844849 -86.930559 
L 137.662207 -84.95044 
L 137.426476 -82.97032 
L 137.138305 -80.990201 
L 136.801588 -79.010081 
L 136.423571 -77.029962 
L 136.014514 -75.049842 
L 135.586946 -73.069723 
L 135.154611 -71.089603 
L 134.731264 -69.109484 
L 134.329495 -67.129364 
L 133.959758 -65.149245 
L 133.629694 -63.169125 
L 133.343832 -61.189006 
L 133.103638 -59.208886 
L 132.907867 -57.228767 
L 132.753131 -55.248647 
L 132.634572 -53.268528 
L 132.54655 -51.288408 
L 132.483257 -49.308289 
L 132.439199 -47.328169 
z
" style="stroke: #4c4c4c; stroke-width: 1.25"/>
    </defs>
    <g clip-path="url(#p42d0c5ab9b)">
     <use xlink:href="#m1b5abedd18" x="0" y="288" style="fill: #a0c4d4; stroke: #4c4c4c; stroke-width: 1.25"/>
    </g>
   </g>
   <g id="PolyCollection_4">
    <defs>
     <path id="m49cbe6b346" d="M 153.495116 -57.127969 
L 153.322119 -57.127969 
L 153.255647 -58.2336 
L 153.150797 -59.33923 
L 152.994076 -60.444861 
L 152.771994 -61.550491 
L 152.473445 -62.656122 
L 152.092305 -63.761752 
L 151.629529 -64.867383 
L 151.093977 -65.973013 
L 150.501584 -67.078644 
L 149.873047 -68.184274 
L 149.230841 -69.289904 
L 148.596613 -70.395535 
L 147.98976 -71.501165 
L 147.427242 -72.606796 
L 146.923944 -73.712426 
L 146.492521 -74.818057 
L 146.142022 -75.923687 
L 145.875455 -77.029318 
L 145.687391 -78.134948 
L 145.563013 -79.240579 
L 145.479627 -80.346209 
L 145.410577 -81.451839 
L 145.330478 -82.55747 
L 145.220182 -83.6631 
L 145.070153 -84.768731 
L 144.881719 -85.874361 
L 144.666474 -86.979992 
L 144.444445 -88.085622 
L 144.241518 -89.191253 
L 144.086212 -90.296883 
L 144.005671 -91.402514 
L 144.021062 -92.508144 
L 144.143132 -93.613774 
L 144.369274 -94.719405 
L 144.683426 -95.825035 
L 145.059401 -96.930666 
L 145.467009 -98.036296 
L 145.87918 -99.141927 
L 146.277847 -100.247557 
L 146.656779 -101.353188 
L 147.02071 -102.458818 
L 147.381399 -103.564449 
L 147.752168 -104.670079 
L 148.14269 -105.775709 
L 148.555431 -106.88134 
L 148.984422 -107.98697 
L 149.416387 -109.092601 
L 149.833682 -110.198231 
L 150.21825 -111.303862 
L 150.555607 -112.409492 
L 150.83793 -113.515123 
L 151.065492 -114.620753 
L 151.246055 -115.726384 
L 151.392452 -116.832014 
L 151.51909 -117.937644 
L 151.638491 -119.043275 
L 151.758938 -120.148905 
L 151.883814 -121.254536 
L 152.012562 -122.360166 
L 152.142568 -123.465797 
L 152.271019 -124.571427 
L 152.395967 -125.677058 
L 152.516351 -126.782688 
L 152.631275 -127.888319 
L 152.739157 -128.993949 
L 152.837354 -130.099579 
L 152.922527 -131.20521 
L 152.991619 -132.31084 
L 153.04301 -133.416471 
L 153.077362 -134.522101 
L 153.097788 -135.627732 
L 153.109281 -136.733362 
L 153.1176 -137.838993 
L 153.127969 -138.944623 
L 153.144004 -140.050254 
L 153.167137 -141.155884 
L 153.196643 -142.261514 
L 153.230162 -143.367145 
L 153.264492 -144.472775 
L 153.296397 -145.578406 
L 153.323216 -146.684036 
L 153.343198 -147.789667 
L 153.355589 -148.895297 
L 153.360553 -150.000928 
L 153.359026 -151.106558 
L 153.352574 -152.212188 
L 153.343217 -153.317819 
L 153.333224 -154.423449 
L 153.324822 -155.52908 
L 153.319854 -156.63471 
L 153.319461 -157.740341 
L 153.323893 -158.845971 
L 153.332517 -159.951602 
L 153.344036 -161.057232 
L 153.356845 -162.162863 
L 153.369414 -163.268493 
L 153.380578 -164.374123 
L 153.389675 -165.479754 
L 153.396531 -166.585384 
L 153.420704 -166.585384 
L 153.420704 -166.585384 
L 153.42756 -165.479754 
L 153.436658 -164.374123 
L 153.447822 -163.268493 
L 153.460391 -162.162863 
L 153.4732 -161.057232 
L 153.484719 -159.951602 
L 153.493343 -158.845971 
L 153.497775 -157.740341 
L 153.497382 -156.63471 
L 153.492413 -155.52908 
L 153.484011 -154.423449 
L 153.474019 -153.317819 
L 153.464662 -152.212188 
L 153.458209 -151.106558 
L 153.456683 -150.000928 
L 153.461646 -148.895297 
L 153.474038 -147.789667 
L 153.49402 -146.684036 
L 153.520838 -145.578406 
L 153.552744 -144.472775 
L 153.587074 -143.367145 
L 153.620592 -142.261514 
L 153.650098 -141.155884 
L 153.673232 -140.050254 
L 153.689267 -138.944623 
L 153.699636 -137.838993 
L 153.707954 -136.733362 
L 153.719448 -135.627732 
L 153.739874 -134.522101 
L 153.774226 -133.416471 
L 153.825617 -132.31084 
L 153.894709 -131.20521 
L 153.979882 -130.099579 
L 154.078079 -128.993949 
L 154.185961 -127.888319 
L 154.300885 -126.782688 
L 154.421269 -125.677058 
L 154.546217 -124.571427 
L 154.674668 -123.465797 
L 154.804674 -122.360166 
L 154.933422 -121.254536 
L 155.058297 -120.148905 
L 155.178744 -119.043275 
L 155.298146 -117.937644 
L 155.424784 -116.832014 
L 155.571181 -115.726384 
L 155.751744 -114.620753 
L 155.979305 -113.515123 
L 156.261629 -112.409492 
L 156.598985 -111.303862 
L 156.983553 -110.198231 
L 157.400849 -109.092601 
L 157.832813 -107.98697 
L 158.261805 -106.88134 
L 158.674545 -105.775709 
L 159.065068 -104.670079 
L 159.435837 -103.564449 
L 159.796526 -102.458818 
L 160.160457 -101.353188 
L 160.539389 -100.247557 
L 160.938056 -99.141927 
L 161.350227 -98.036296 
L 161.757835 -96.930666 
L 162.13381 -95.825035 
L 162.447961 -94.719405 
L 162.674103 -93.613774 
L 162.796174 -92.508144 
L 162.811565 -91.402514 
L 162.731024 -90.296883 
L 162.575717 -89.191253 
L 162.372791 -88.085622 
L 162.150761 -86.979992 
L 161.935516 -85.874361 
L 161.747083 -84.768731 
L 161.597054 -83.6631 
L 161.486758 -82.55747 
L 161.406659 -81.451839 
L 161.337609 -80.346209 
L 161.254223 -79.240579 
L 161.129845 -78.134948 
L 160.94178 -77.029318 
L 160.675214 -75.923687 
L 160.324714 -74.818057 
L 159.893292 -73.712426 
L 159.389994 -72.606796 
L 158.827476 -71.501165 
L 158.220623 -70.395535 
L 157.586395 -69.289904 
L 156.944189 -68.184274 
L 156.315652 -67.078644 
L 155.723259 -65.973013 
L 155.187707 -64.867383 
L 154.72493 -63.761752 
L 154.343791 -62.656122 
L 154.045242 -61.550491 
L 153.82316 -60.444861 
L 153.666438 -59.33923 
L 153.561588 -58.2336 
L 153.495116 -57.127969 
z
" style="stroke: #4c4c4c; stroke-width: 1.25"/>
    </defs>
    <g clip-path="url(#p42d0c5ab9b)">
     <use xlink:href="#m49cbe6b346" x="0" y="288" style="fill: #6b639a; stroke: #4c4c4c; stroke-width: 1.25"/>
    </g>
   </g>
   <g id="PolyCollection_5">
    <defs>
     <path id="m211e8f9db5" d="M 185.070878 -47.585307 
L 184.889184 -47.585307 
L 184.84233 -49.235706 
L 184.776188 -50.886105 
L 184.685205 -52.536504 
L 184.563233 -54.186903 
L 184.403851 -55.837302 
L 184.200833 -57.487701 
L 183.948733 -59.1381 
L 183.643555 -60.788499 
L 183.28342 -62.438898 
L 182.869163 -64.089297 
L 182.40473 -65.739696 
L 181.897324 -67.390095 
L 181.357204 -69.040494 
L 180.797153 -70.690893 
L 180.231645 -72.341292 
L 179.675817 -73.991691 
L 179.144391 -75.64209 
L 178.650702 -77.292489 
L 178.205968 -78.942887 
L 177.818893 -80.593286 
L 177.495609 -82.243685 
L 177.239909 -83.894084 
L 177.053651 -85.544483 
L 176.937203 -87.194882 
L 176.889829 -88.845281 
L 176.909923 -90.49568 
L 176.995119 -92.146079 
L 177.142288 -93.796478 
L 177.347502 -95.446877 
L 177.606021 -97.097276 
L 177.912324 -98.747675 
L 178.260201 -100.398074 
L 178.642851 -102.048473 
L 179.052994 -103.698872 
L 179.482964 -105.349271 
L 179.924808 -106.99967 
L 180.370418 -108.650069 
L 180.811732 -110.300468 
L 181.240995 -111.950867 
L 181.651069 -113.601266 
L 182.035742 -115.251665 
L 182.389967 -116.902064 
L 182.709994 -118.552463 
L 182.993393 -120.202862 
L 183.238971 -121.853261 
L 183.446653 -123.50366 
L 183.617375 -125.154059 
L 183.753023 -126.804458 
L 183.856429 -128.454857 
L 183.931388 -130.105256 
L 183.982644 -131.755655 
L 184.015776 -133.406054 
L 184.03695 -135.056453 
L 184.052529 -136.706852 
L 184.06857 -138.357251 
L 184.090283 -140.00765 
L 184.121543 -141.658049 
L 184.164539 -143.308448 
L 184.219636 -144.958847 
L 184.285455 -146.609246 
L 184.359183 -148.259645 
L 184.437029 -149.910044 
L 184.514766 -151.560443 
L 184.588263 -153.210842 
L 184.653937 -154.861241 
L 184.709077 -156.51164 
L 184.752022 -158.162039 
L 184.782194 -159.812438 
L 184.800026 -161.462837 
L 184.806794 -163.113236 
L 184.804407 -164.763635 
L 184.795161 -166.414033 
L 184.781492 -168.064432 
L 184.765731 -169.714831 
L 184.749894 -171.36523 
L 184.735518 -173.015629 
L 184.723573 -174.666028 
L 184.71446 -176.316427 
L 184.7081 -177.966826 
L 184.704091 -179.617225 
L 184.701918 -181.267624 
L 184.701155 -182.918023 
L 184.701619 -184.568422 
L 184.703443 -186.218821 
L 184.707054 -187.86922 
L 184.713063 -189.519619 
L 184.722091 -191.170018 
L 184.734594 -192.820417 
L 184.750711 -194.470816 
L 184.770185 -196.121215 
L 184.792371 -197.771614 
L 184.816313 -199.422013 
L 184.84088 -201.072412 
L 184.864928 -202.722811 
L 184.887445 -204.37321 
L 184.907651 -206.023609 
L 184.925064 -207.674008 
L 184.939493 -209.324407 
L 184.951004 -210.974806 
L 185.009058 -210.974806 
L 185.009058 -210.974806 
L 185.02057 -209.324407 
L 185.034999 -207.674008 
L 185.052411 -206.023609 
L 185.072618 -204.37321 
L 185.095134 -202.722811 
L 185.119183 -201.072412 
L 185.14375 -199.422013 
L 185.167691 -197.771614 
L 185.189877 -196.121215 
L 185.209352 -194.470816 
L 185.225468 -192.820417 
L 185.237971 -191.170018 
L 185.247 -189.519619 
L 185.253008 -187.86922 
L 185.25662 -186.218821 
L 185.258444 -184.568422 
L 185.258907 -182.918023 
L 185.258144 -181.267624 
L 185.255972 -179.617225 
L 185.251963 -177.966826 
L 185.245602 -176.316427 
L 185.23649 -174.666028 
L 185.224545 -173.015629 
L 185.210169 -171.36523 
L 185.194331 -169.714831 
L 185.17857 -168.064432 
L 185.164901 -166.414033 
L 185.155656 -164.763635 
L 185.153268 -163.113236 
L 185.160036 -161.462837 
L 185.177868 -159.812438 
L 185.208041 -158.162039 
L 185.250985 -156.51164 
L 185.306125 -154.861241 
L 185.371799 -153.210842 
L 185.445297 -151.560443 
L 185.523034 -149.910044 
L 185.60088 -148.259645 
L 185.674608 -146.609246 
L 185.740427 -144.958847 
L 185.795523 -143.308448 
L 185.83852 -141.658049 
L 185.86978 -140.00765 
L 185.891493 -138.357251 
L 185.907534 -136.706852 
L 185.923113 -135.056453 
L 185.944287 -133.406054 
L 185.977418 -131.755655 
L 186.028674 -130.105256 
L 186.103634 -128.454857 
L 186.20704 -126.804458 
L 186.342688 -125.154059 
L 186.51341 -123.50366 
L 186.721092 -121.853261 
L 186.96667 -120.202862 
L 187.250069 -118.552463 
L 187.570096 -116.902064 
L 187.92432 -115.251665 
L 188.308993 -113.601266 
L 188.719068 -111.950867 
L 189.14833 -110.300468 
L 189.589644 -108.650069 
L 190.035255 -106.99967 
L 190.477098 -105.349271 
L 190.907068 -103.698872 
L 191.317212 -102.048473 
L 191.699862 -100.398074 
L 192.047738 -98.747675 
L 192.354042 -97.097276 
L 192.61256 -95.446877 
L 192.817774 -93.796478 
L 192.964944 -92.146079 
L 193.05014 -90.49568 
L 193.070234 -88.845281 
L 193.022859 -87.194882 
L 192.906412 -85.544483 
L 192.720153 -83.894084 
L 192.464453 -82.243685 
L 192.141169 -80.593286 
L 191.754094 -78.942887 
L 191.30936 -77.292489 
L 190.815671 -75.64209 
L 190.284246 -73.991691 
L 189.728418 -72.341292 
L 189.16291 -70.690893 
L 188.602859 -69.040494 
L 188.062739 -67.390095 
L 187.555333 -65.739696 
L 187.0909 -64.089297 
L 186.676642 -62.438898 
L 186.316508 -60.788499 
L 186.011329 -59.1381 
L 185.759229 -57.487701 
L 185.556211 -55.837302 
L 185.39683 -54.186903 
L 185.274858 -52.536504 
L 185.183875 -50.886105 
L 185.117732 -49.235706 
L 185.070878 -47.585307 
z
" style="stroke: #4c4c4c; stroke-width: 1.25"/>
    </defs>
    <g clip-path="url(#p42d0c5ab9b)">
     <use xlink:href="#m211e8f9db5" x="0" y="288" style="fill: #a0c4d4; stroke: #4c4c4c; stroke-width: 1.25"/>
    </g>
   </g>
   <g id="PolyCollection_6">
    <defs>
     <path id="m18c5427f26" d="M 206.08774 -55.543058 
L 205.96754 -55.543058 
L 205.920116 -56.739652 
L 205.844597 -57.936247 
L 205.730343 -59.132841 
L 205.565586 -60.329435 
L 205.338382 -61.52603 
L 205.037782 -62.722624 
L 204.655128 -63.919218 
L 204.185393 -65.115812 
L 203.628415 -66.312407 
L 202.989763 -67.509001 
L 202.280844 -68.705595 
L 201.517989 -69.90219 
L 200.720599 -71.098784 
L 199.90902 -72.295378 
L 199.103157 -73.491973 
L 198.3226 -74.688567 
L 197.588204 -75.885161 
L 196.923946 -77.081756 
L 196.357338 -78.27835 
L 195.91705 -79.474944 
L 195.627759 -80.671539 
L 195.503836 -81.868133 
L 195.544354 -83.064727 
L 195.731619 -84.261322 
L 196.03402 -85.457916 
L 196.412245 -86.65451 
L 196.826694 -87.851105 
L 197.243747 -89.047699 
L 197.639346 -90.244293 
L 197.999672 -91.440888 
L 198.319776 -92.637482 
L 198.601453 -93.834076 
L 198.851415 -95.030671 
L 199.080038 -96.227265 
L 199.300344 -97.423859 
L 199.526563 -98.620454 
L 199.772001 -99.817048 
L 200.046512 -101.013642 
L 200.354426 -102.210237 
L 200.693774 -103.406831 
L 201.057173 -104.603425 
L 201.434026 -105.80002 
L 201.813175 -106.996614 
L 202.185106 -108.193208 
L 202.543047 -109.389803 
L 202.882809 -110.586397 
L 203.201684 -111.782991 
L 203.497016 -112.979586 
L 203.765256 -114.17618 
L 204.002032 -115.372774 
L 204.203333 -116.569369 
L 204.367299 -117.765963 
L 204.495774 -118.962557 
L 204.594852 -120.159151 
L 204.674062 -121.355746 
L 204.744452 -122.55234 
L 204.816211 -123.748934 
L 204.896605 -124.945529 
L 204.988834 -126.142123 
L 205.092058 -127.338717 
L 205.202444 -128.535312 
L 205.314792 -129.731906 
L 205.424108 -130.9285 
L 205.526628 -132.125095 
L 205.62008 -133.321689 
L 205.703324 -134.518283 
L 205.775754 -135.714878 
L 205.83683 -136.911472 
L 205.885971 -138.108066 
L 205.922746 -139.304661 
L 205.947217 -140.501255 
L 205.960227 -141.697849 
L 205.963539 -142.894444 
L 205.959767 -144.091038 
L 205.952114 -145.287632 
L 205.943928 -146.484227 
L 205.938161 -147.680821 
L 205.936825 -148.877415 
L 205.940628 -150.07401 
L 205.948903 -151.270604 
L 205.95987 -152.467198 
L 205.971145 -153.663793 
L 205.980326 -154.860387 
L 205.985509 -156.056981 
L 205.985644 -157.253576 
L 205.980706 -158.45017 
L 205.971698 -159.646764 
L 205.960499 -160.843359 
L 205.949519 -162.039953 
L 205.941216 -163.236547 
L 205.937533 -164.433142 
L 205.939437 -165.629736 
L 205.94671 -166.82633 
L 205.958081 -168.022925 
L 205.971653 -169.219519 
L 205.985444 -170.416113 
L 205.997864 -171.612708 
L 206.007966 -172.809302 
L 206.01547 -174.005896 
L 206.039811 -174.005896 
L 206.039811 -174.005896 
L 206.047314 -172.809302 
L 206.057417 -171.612708 
L 206.069836 -170.416113 
L 206.083628 -169.219519 
L 206.0972 -168.022925 
L 206.108571 -166.82633 
L 206.115843 -165.629736 
L 206.117747 -164.433142 
L 206.114065 -163.236547 
L 206.105762 -162.039953 
L 206.094782 -160.843359 
L 206.083582 -159.646764 
L 206.074575 -158.45017 
L 206.069636 -157.253576 
L 206.069772 -156.056981 
L 206.074955 -154.860387 
L 206.084136 -153.663793 
L 206.095411 -152.467198 
L 206.106378 -151.270604 
L 206.114653 -150.07401 
L 206.118455 -148.877415 
L 206.117119 -147.680821 
L 206.111352 -146.484227 
L 206.103167 -145.287632 
L 206.095514 -144.091038 
L 206.091742 -142.894444 
L 206.095054 -141.697849 
L 206.108064 -140.501255 
L 206.132534 -139.304661 
L 206.16931 -138.108066 
L 206.218451 -136.911472 
L 206.279527 -135.714878 
L 206.351956 -134.518283 
L 206.435201 -133.321689 
L 206.528653 -132.125095 
L 206.631173 -130.9285 
L 206.740488 -129.731906 
L 206.852836 -128.535312 
L 206.963223 -127.338717 
L 207.066446 -126.142123 
L 207.158676 -124.945529 
L 207.23907 -123.748934 
L 207.310829 -122.55234 
L 207.381219 -121.355746 
L 207.460429 -120.159151 
L 207.559507 -118.962557 
L 207.687982 -117.765963 
L 207.851947 -116.569369 
L 208.053248 -115.372774 
L 208.290025 -114.17618 
L 208.558265 -112.979586 
L 208.853597 -111.782991 
L 209.172471 -110.586397 
L 209.512234 -109.389803 
L 209.870174 -108.193208 
L 210.242105 -106.996614 
L 210.621255 -105.80002 
L 210.998107 -104.603425 
L 211.361507 -103.406831 
L 211.700854 -102.210237 
L 212.008768 -101.013642 
L 212.28328 -99.817048 
L 212.528718 -98.620454 
L 212.754937 -97.423859 
L 212.975242 -96.227265 
L 213.203866 -95.030671 
L 213.453827 -93.834076 
L 213.735505 -92.637482 
L 214.055608 -91.440888 
L 214.415935 -90.244293 
L 214.811534 -89.047699 
L 215.228586 -87.851105 
L 215.643036 -86.65451 
L 216.02126 -85.457916 
L 216.323662 -84.261322 
L 216.510927 -83.064727 
L 216.551445 -81.868133 
L 216.427522 -80.671539 
L 216.138231 -79.474944 
L 215.697942 -78.27835 
L 215.131335 -77.081756 
L 214.467077 -75.885161 
L 213.73268 -74.688567 
L 212.952124 -73.491973 
L 212.146261 -72.295378 
L 211.334682 -71.098784 
L 210.537292 -69.90219 
L 209.774437 -68.705595 
L 209.065518 -67.509001 
L 208.426865 -66.312407 
L 207.869888 -65.115812 
L 207.400153 -63.919218 
L 207.017499 -62.722624 
L 206.716898 -61.52603 
L 206.489695 -60.329435 
L 206.324938 -59.132841 
L 206.210683 -57.936247 
L 206.135165 -56.739652 
L 206.08774 -55.543058 
z
" style="stroke: #4c4c4c; stroke-width: 1.25"/>
    </defs>
    <g clip-path="url(#p42d0c5ab9b)">
     <use xlink:href="#m18c5427f26" x="0" y="288" style="fill: #6b639a; stroke: #4c4c4c; stroke-width: 1.25"/>
    </g>
   </g>
   <g id="PolyCollection_7">
    <defs>
     <path id="mb874f1fc51" d="M 237.964401 -51.176134 
L 237.233706 -51.176134 
L 237.102505 -52.728547 
L 236.935947 -54.28096 
L 236.728765 -55.833372 
L 236.47626 -57.385785 
L 236.174759 -58.938198 
L 235.822094 -60.490611 
L 235.418059 -62.043024 
L 234.96478 -63.595437 
L 234.466967 -65.147849 
L 233.931986 -66.700262 
L 233.369743 -68.252675 
L 232.792355 -69.805088 
L 232.213639 -71.357501 
L 231.648437 -72.909914 
L 231.111851 -74.462326 
L 230.618439 -76.014739 
L 230.181444 -77.567152 
L 229.812133 -79.119565 
L 229.519278 -80.671978 
L 229.308825 -82.224391 
L 229.183773 -83.776804 
L 229.144226 -85.329216 
L 229.187627 -86.881629 
L 229.309099 -88.434042 
L 229.501878 -89.986455 
L 229.757769 -91.538868 
L 230.067589 -93.091281 
L 230.42158 -94.643693 
L 230.809753 -96.196106 
L 231.222181 -97.748519 
L 231.649235 -99.300932 
L 232.081782 -100.853345 
L 232.511357 -102.405758 
L 232.930332 -103.95817 
L 233.332078 -105.510583 
L 233.711122 -107.062996 
L 234.063292 -108.615409 
L 234.385824 -110.167822 
L 234.677416 -111.720235 
L 234.938209 -113.272648 
L 235.169674 -114.82506 
L 235.374414 -116.377473 
L 235.555875 -117.929886 
L 235.718009 -119.482299 
L 235.864888 -121.034712 
L 236.000344 -122.587125 
L 236.127644 -124.139537 
L 236.249248 -125.69195 
L 236.36667 -127.244363 
L 236.480451 -128.796776 
L 236.590244 -130.349189 
L 236.694985 -131.901602 
L 236.793145 -133.454014 
L 236.882997 -135.006427 
L 236.962899 -136.55884 
L 237.031534 -138.111253 
L 237.088106 -139.663666 
L 237.132453 -141.216079 
L 237.165092 -142.768492 
L 237.187176 -144.320904 
L 237.200394 -145.873317 
L 237.206809 -147.42573 
L 237.208665 -148.978143 
L 237.208182 -150.530556 
L 237.207363 -152.082969 
L 237.207821 -153.635381 
L 237.210659 -155.187794 
L 237.216405 -156.740207 
L 237.225011 -158.29262 
L 237.235908 -159.845033 
L 237.24812 -161.397446 
L 237.260416 -162.949858 
L 237.271489 -164.502271 
L 237.280129 -166.054684 
L 237.285386 -167.607097 
L 237.286701 -169.15951 
L 237.283977 -170.711923 
L 237.277612 -172.264336 
L 237.268457 -173.816748 
L 237.257733 -175.369161 
L 237.246906 -176.921574 
L 237.237531 -178.473987 
L 237.231091 -180.0264 
L 237.22885 -181.578813 
L 237.23173 -183.131225 
L 237.240231 -184.683638 
L 237.254399 -186.236051 
L 237.273842 -187.788464 
L 237.297793 -189.340877 
L 237.325205 -190.89329 
L 237.354861 -192.445702 
L 237.3855 -193.998115 
L 237.415922 -195.550528 
L 237.445076 -197.102941 
L 237.472128 -198.655354 
L 237.496484 -200.207767 
L 237.517799 -201.760179 
L 237.535954 -203.312592 
L 237.55102 -204.865005 
L 237.647088 -204.865005 
L 237.647088 -204.865005 
L 237.662154 -203.312592 
L 237.680309 -201.760179 
L 237.701624 -200.207767 
L 237.72598 -198.655354 
L 237.753031 -197.102941 
L 237.782186 -195.550528 
L 237.812608 -193.998115 
L 237.843247 -192.445702 
L 237.872903 -190.89329 
L 237.900314 -189.340877 
L 237.924265 -187.788464 
L 237.943708 -186.236051 
L 237.957876 -184.683638 
L 237.966377 -183.131225 
L 237.969257 -181.578813 
L 237.967017 -180.0264 
L 237.960577 -178.473987 
L 237.951201 -176.921574 
L 237.940375 -175.369161 
L 237.929651 -173.816748 
L 237.920496 -172.264336 
L 237.91413 -170.711923 
L 237.911407 -169.15951 
L 237.912721 -167.607097 
L 237.917979 -166.054684 
L 237.926618 -164.502271 
L 237.937691 -162.949858 
L 237.949988 -161.397446 
L 237.9622 -159.845033 
L 237.973096 -158.29262 
L 237.981702 -156.740207 
L 237.987449 -155.187794 
L 237.990287 -153.635381 
L 237.990745 -152.082969 
L 237.989925 -150.530556 
L 237.989443 -148.978143 
L 237.991299 -147.42573 
L 237.997713 -145.873317 
L 238.010931 -144.320904 
L 238.033016 -142.768492 
L 238.065654 -141.216079 
L 238.110002 -139.663666 
L 238.166573 -138.111253 
L 238.235209 -136.55884 
L 238.31511 -135.006427 
L 238.404962 -133.454014 
L 238.503122 -131.901602 
L 238.607864 -130.349189 
L 238.717656 -128.796776 
L 238.831437 -127.244363 
L 238.94886 -125.69195 
L 239.070464 -124.139537 
L 239.197764 -122.587125 
L 239.33322 -121.034712 
L 239.480099 -119.482299 
L 239.642232 -117.929886 
L 239.823694 -116.377473 
L 240.028433 -114.82506 
L 240.259899 -113.272648 
L 240.520692 -111.720235 
L 240.812284 -110.167822 
L 241.134816 -108.615409 
L 241.486986 -107.062996 
L 241.86603 -105.510583 
L 242.267775 -103.95817 
L 242.68675 -102.405758 
L 243.116325 -100.853345 
L 243.548872 -99.300932 
L 243.975927 -97.748519 
L 244.388355 -96.196106 
L 244.776528 -94.643693 
L 245.130518 -93.091281 
L 245.440339 -91.538868 
L 245.696229 -89.986455 
L 245.889009 -88.434042 
L 246.010481 -86.881629 
L 246.053881 -85.329216 
L 246.014335 -83.776804 
L 245.889282 -82.224391 
L 245.67883 -80.671978 
L 245.385974 -79.119565 
L 245.016663 -77.567152 
L 244.579669 -76.014739 
L 244.086257 -74.462326 
L 243.549671 -72.909914 
L 242.984469 -71.357501 
L 242.405752 -69.805088 
L 241.828365 -68.252675 
L 241.266121 -66.700262 
L 240.73114 -65.147849 
L 240.233327 -63.595437 
L 239.780049 -62.043024 
L 239.376014 -60.490611 
L 239.023349 -58.938198 
L 238.721847 -57.385785 
L 238.469343 -55.833372 
L 238.262161 -54.28096 
L 238.095603 -52.728547 
L 237.964401 -51.176134 
z
" style="stroke: #4c4c4c; stroke-width: 1.25"/>
    </defs>
    <g clip-path="url(#p42d0c5ab9b)">
     <use xlink:href="#mb874f1fc51" x="0" y="288" style="fill: #a0c4d4; stroke: #4c4c4c; stroke-width: 1.25"/>
    </g>
   </g>
   <g id="PolyCollection_8">
    <defs>
     <path id="m9a35003258" d="M 258.724522 -53.971536 
L 258.568804 -53.971536 
L 258.501808 -55.427036 
L 258.392111 -56.882535 
L 258.223425 -58.338034 
L 257.979494 -59.793533 
L 257.647185 -61.249033 
L 257.219689 -62.704532 
L 256.698743 -64.160031 
L 256.095014 -65.61553 
L 255.426397 -67.07103 
L 254.71488 -68.526529 
L 253.983254 -69.982028 
L 253.252912 -71.437528 
L 252.543371 -72.893027 
L 251.873152 -74.348526 
L 251.260946 -75.804025 
L 250.725868 -77.259525 
L 250.286198 -78.715024 
L 249.956937 -80.170523 
L 249.747216 -81.626022 
L 249.658678 -83.081522 
L 249.685401 -84.537021 
L 249.815147 -85.99252 
L 250.031229 -87.448019 
L 250.31438 -88.903519 
L 250.644462 -90.359018 
L 251.002193 -91.814517 
L 251.370991 -93.270017 
L 251.738631 -94.725516 
L 252.098108 -96.181015 
L 252.447315 -97.636514 
L 252.787703 -99.092014 
L 253.122598 -100.547513 
L 253.455819 -102.003012 
L 253.790681 -103.458511 
L 254.128991 -104.914011 
L 254.469737 -106.36951 
L 254.80782 -107.825009 
L 255.133806 -109.280509 
L 255.43559 -110.736008 
L 255.701902 -112.191507 
L 255.926345 -113.647006 
L 256.110075 -115.102506 
L 256.261681 -116.558005 
L 256.394137 -118.013504 
L 256.520126 -119.469003 
L 256.647731 -120.924503 
L 256.778226 -122.380002 
L 256.906684 -123.835501 
L 257.024877 -125.291001 
L 257.125143 -126.7465 
L 257.203695 -128.201999 
L 257.262275 -129.657498 
L 257.307815 -131.112998 
L 257.35048 -132.568497 
L 257.400945 -134.023996 
L 257.467785 -135.479495 
L 257.555688 -136.934995 
L 257.664774 -138.390494 
L 257.790977 -139.845993 
L 257.927192 -141.301493 
L 258.064831 -142.756992 
L 258.19542 -144.212491 
L 258.311968 -145.66799 
L 258.409879 -147.12349 
L 258.487293 -148.578989 
L 258.54486 -150.034488 
L 258.585082 -151.489987 
L 258.611459 -152.945487 
L 258.627678 -154.400986 
L 258.637019 -155.856485 
L 258.642055 -157.311985 
L 258.644594 -158.767484 
L 258.645791 -160.222983 
L 258.646316 -161.678482 
L 258.646528 -163.133982 
L 258.646598 -164.589481 
L 258.64659 -166.04498 
L 258.646506 -167.500479 
L 258.646292 -168.955979 
L 258.645825 -170.411478 
L 258.64489 -171.866977 
L 258.643163 -173.322477 
L 258.640211 -174.777976 
L 258.635562 -176.233475 
L 258.628833 -177.688974 
L 258.619931 -179.144474 
L 258.609253 -180.599973 
L 258.597794 -182.055472 
L 258.587075 -183.510971 
L 258.578839 -184.966471 
L 258.574604 -186.42197 
L 258.5752 -187.877469 
L 258.580509 -189.332969 
L 258.589499 -190.788468 
L 258.600555 -192.243967 
L 258.611948 -193.699466 
L 258.622266 -195.154966 
L 258.630658 -196.610465 
L 258.636862 -198.065964 
L 258.656463 -198.065964 
L 258.656463 -198.065964 
L 258.662668 -196.610465 
L 258.67106 -195.154966 
L 258.681377 -193.699466 
L 258.692771 -192.243967 
L 258.703827 -190.788468 
L 258.712817 -189.332969 
L 258.718125 -187.877469 
L 258.718721 -186.42197 
L 258.714486 -184.966471 
L 258.706251 -183.510971 
L 258.695531 -182.055472 
L 258.684072 -180.599973 
L 258.673394 -179.144474 
L 258.664493 -177.688974 
L 258.657764 -176.233475 
L 258.653114 -174.777976 
L 258.650163 -173.322477 
L 258.648435 -171.866977 
L 258.647501 -170.411478 
L 258.647034 -168.955979 
L 258.646819 -167.500479 
L 258.646736 -166.04498 
L 258.646728 -164.589481 
L 258.646797 -163.133982 
L 258.647009 -161.678482 
L 258.647535 -160.222983 
L 258.648731 -158.767484 
L 258.65127 -157.311985 
L 258.656306 -155.856485 
L 258.665648 -154.400986 
L 258.681867 -152.945487 
L 258.708244 -151.489987 
L 258.748466 -150.034488 
L 258.806032 -148.578989 
L 258.883447 -147.12349 
L 258.981358 -145.66799 
L 259.097906 -144.212491 
L 259.228494 -142.756992 
L 259.366133 -141.301493 
L 259.502349 -139.845993 
L 259.628552 -138.390494 
L 259.737638 -136.934995 
L 259.82554 -135.479495 
L 259.89238 -134.023996 
L 259.942845 -132.568497 
L 259.985511 -131.112998 
L 260.03105 -129.657498 
L 260.089631 -128.201999 
L 260.168183 -126.7465 
L 260.268449 -125.291001 
L 260.386641 -123.835501 
L 260.515099 -122.380002 
L 260.645595 -120.924503 
L 260.773199 -119.469003 
L 260.899189 -118.013504 
L 261.031645 -116.558005 
L 261.18325 -115.102506 
L 261.366981 -113.647006 
L 261.591423 -112.191507 
L 261.857735 -110.736008 
L 262.15952 -109.280509 
L 262.485505 -107.825009 
L 262.823588 -106.36951 
L 263.164335 -104.914011 
L 263.502645 -103.458511 
L 263.837506 -102.003012 
L 264.170727 -100.547513 
L 264.505622 -99.092014 
L 264.84601 -97.636514 
L 265.195218 -96.181015 
L 265.554695 -94.725516 
L 265.922334 -93.270017 
L 266.291132 -91.814517 
L 266.648863 -90.359018 
L 266.978946 -88.903519 
L 267.262097 -87.448019 
L 267.478178 -85.99252 
L 267.607925 -84.537021 
L 267.634648 -83.081522 
L 267.54611 -81.626022 
L 267.336389 -80.170523 
L 267.007128 -78.715024 
L 266.567457 -77.259525 
L 266.032379 -75.804025 
L 265.420173 -74.348526 
L 264.749954 -72.893027 
L 264.040413 -71.437528 
L 263.310072 -69.982028 
L 262.578446 -68.526529 
L 261.866929 -67.07103 
L 261.198311 -65.61553 
L 260.594583 -64.160031 
L 260.073637 -62.704532 
L 259.64614 -61.249033 
L 259.313832 -59.793533 
L 259.069901 -58.338034 
L 258.901215 -56.882535 
L 258.791517 -55.427036 
L 258.724522 -53.971536 
z
" style="stroke: #4c4c4c; stroke-width: 1.25"/>
    </defs>
    <g clip-path="url(#p42d0c5ab9b)">
     <use xlink:href="#m9a35003258" x="0" y="288" style="fill: #6b639a; stroke: #4c4c4c; stroke-width: 1.25"/>
    </g>
   </g>
   <g id="PolyCollection_9">
    <defs>
     <path id="mb48920598d" d="M 290.529027 -41.76 
L 289.907125 -41.76 
L 289.842511 -43.225747 
L 289.767873 -44.691493 
L 289.682423 -46.15724 
L 289.58547 -47.622986 
L 289.476457 -49.088733 
L 289.354994 -50.554479 
L 289.220892 -52.020226 
L 289.074196 -53.485972 
L 288.915212 -54.951719 
L 288.744522 -56.417465 
L 288.563001 -57.883212 
L 288.371812 -59.348958 
L 288.172403 -60.814705 
L 287.966486 -62.280451 
L 287.756004 -63.746198 
L 287.543093 -65.211944 
L 287.330037 -66.677691 
L 287.119207 -68.143437 
L 286.913005 -69.609184 
L 286.713802 -71.07493 
L 286.523877 -72.540677 
L 286.345359 -74.006423 
L 286.180172 -75.47217 
L 286.029995 -76.937917 
L 285.896218 -78.403663 
L 285.77992 -79.86941 
L 285.681851 -81.335156 
L 285.602426 -82.800903 
L 285.541726 -84.266649 
L 285.499512 -85.732396 
L 285.475249 -87.198142 
L 285.468123 -88.663889 
L 285.477083 -90.129635 
L 285.50087 -91.595382 
L 285.538062 -93.061128 
L 285.587104 -94.526875 
L 285.646358 -95.992621 
L 285.714138 -97.458368 
L 285.78875 -98.924114 
L 285.86853 -100.389861 
L 285.951876 -101.855607 
L 286.037285 -103.321354 
L 286.123376 -104.7871 
L 286.208922 -106.252847 
L 286.292862 -107.718593 
L 286.374322 -109.18434 
L 286.452625 -110.650087 
L 286.527292 -112.115833 
L 286.598042 -113.58158 
L 286.664786 -115.047326 
L 286.727612 -116.513073 
L 286.78677 -117.978819 
L 286.842648 -119.444566 
L 286.89575 -120.910312 
L 286.946666 -122.376059 
L 286.99605 -123.841805 
L 287.044586 -125.307552 
L 287.09297 -126.773298 
L 287.141884 -128.239045 
L 287.191973 -129.704791 
L 287.243835 -131.170538 
L 287.298006 -132.636284 
L 287.354949 -134.102031 
L 287.415053 -135.567777 
L 287.478628 -137.033524 
L 287.545902 -138.49927 
L 287.61703 -139.965017 
L 287.692085 -141.430763 
L 287.771071 -142.89651 
L 287.853918 -144.362257 
L 287.940487 -145.828003 
L 288.030569 -147.29375 
L 288.123892 -148.759496 
L 288.220116 -150.225243 
L 288.318839 -151.690989 
L 288.4196 -153.156736 
L 288.521883 -154.622482 
L 288.625124 -156.088229 
L 288.728718 -157.553975 
L 288.832033 -159.019722 
L 288.934416 -160.485468 
L 289.035212 -161.951215 
L 289.133778 -163.416961 
L 289.229493 -164.882708 
L 289.32178 -166.348454 
L 289.410114 -167.814201 
L 289.494037 -169.279947 
L 289.573167 -170.745694 
L 289.647205 -172.21144 
L 289.715938 -173.677187 
L 289.779245 -175.142933 
L 289.83709 -176.60868 
L 289.889518 -178.074427 
L 289.936653 -179.540173 
L 289.978684 -181.00592 
L 290.015855 -182.471666 
L 290.048458 -183.937413 
L 290.076818 -185.403159 
L 290.101283 -186.868906 
L 290.33487 -186.868906 
L 290.33487 -186.868906 
L 290.359334 -185.403159 
L 290.387694 -183.937413 
L 290.420298 -182.471666 
L 290.457469 -181.00592 
L 290.499499 -179.540173 
L 290.546634 -178.074427 
L 290.599063 -176.60868 
L 290.656907 -175.142933 
L 290.720214 -173.677187 
L 290.788948 -172.21144 
L 290.862986 -170.745694 
L 290.942116 -169.279947 
L 291.026039 -167.814201 
L 291.114373 -166.348454 
L 291.20666 -164.882708 
L 291.302375 -163.416961 
L 291.40094 -161.951215 
L 291.501737 -160.485468 
L 291.60412 -159.019722 
L 291.707434 -157.553975 
L 291.811029 -156.088229 
L 291.91427 -154.622482 
L 292.016553 -153.156736 
L 292.117314 -151.690989 
L 292.216037 -150.225243 
L 292.31226 -148.759496 
L 292.405583 -147.29375 
L 292.495666 -145.828003 
L 292.582234 -144.362257 
L 292.665081 -142.89651 
L 292.744067 -141.430763 
L 292.819123 -139.965017 
L 292.89025 -138.49927 
L 292.957525 -137.033524 
L 293.021099 -135.567777 
L 293.081203 -134.102031 
L 293.138147 -132.636284 
L 293.192318 -131.170538 
L 293.24418 -129.704791 
L 293.294269 -128.239045 
L 293.343182 -126.773298 
L 293.391567 -125.307552 
L 293.440103 -123.841805 
L 293.489486 -122.376059 
L 293.540403 -120.910312 
L 293.593504 -119.444566 
L 293.649383 -117.978819 
L 293.708541 -116.513073 
L 293.771367 -115.047326 
L 293.838111 -113.58158 
L 293.908861 -112.115833 
L 293.983527 -110.650087 
L 294.06183 -109.18434 
L 294.143291 -107.718593 
L 294.227231 -106.252847 
L 294.312776 -104.7871 
L 294.398868 -103.321354 
L 294.484277 -101.855607 
L 294.567623 -100.389861 
L 294.647402 -98.924114 
L 294.722015 -97.458368 
L 294.789795 -95.992621 
L 294.849049 -94.526875 
L 294.898091 -93.061128 
L 294.935282 -91.595382 
L 294.95907 -90.129635 
L 294.96803 -88.663889 
L 294.960904 -87.198142 
L 294.93664 -85.732396 
L 294.894427 -84.266649 
L 294.833727 -82.800903 
L 294.754301 -81.335156 
L 294.656233 -79.86941 
L 294.539935 -78.403663 
L 294.406158 -76.937917 
L 294.25598 -75.47217 
L 294.090794 -74.006423 
L 293.912276 -72.540677 
L 293.722351 -71.07493 
L 293.523148 -69.609184 
L 293.316946 -68.143437 
L 293.106115 -66.677691 
L 292.893059 -65.211944 
L 292.680149 -63.746198 
L 292.469667 -62.280451 
L 292.263749 -60.814705 
L 292.064341 -59.348958 
L 291.873152 -57.883212 
L 291.69163 -56.417465 
L 291.520941 -54.951719 
L 291.361956 -53.485972 
L 291.215261 -52.020226 
L 291.081159 -50.554479 
L 290.959696 -49.088733 
L 290.850683 -47.622986 
L 290.75373 -46.15724 
L 290.66828 -44.691493 
L 290.593641 -43.225747 
L 290.529027 -41.76 
z
" style="stroke: #4c4c4c; stroke-width: 1.25"/>
    </defs>
    <g clip-path="url(#p42d0c5ab9b)">
     <use xlink:href="#mb48920598d" x="0" y="288" style="fill: #a0c4d4; stroke: #4c4c4c; stroke-width: 1.25"/>
    </g>
   </g>
   <g id="PolyCollection_10">
    <defs>
     <path id="maacb90b837" d="M 311.380884 -54.039935 
L 311.150486 -54.039935 
L 311.086076 -55.166841 
L 310.993354 -56.293747 
L 310.863969 -57.420653 
L 310.68895 -58.547559 
L 310.459414 -59.674465 
L 310.167512 -60.801372 
L 309.807488 -61.928278 
L 309.376716 -63.055184 
L 308.876534 -64.18209 
L 308.312703 -65.308996 
L 307.695369 -66.435902 
L 307.038505 -67.562808 
L 306.358892 -68.689715 
L 305.674812 -69.816621 
L 305.004658 -70.943527 
L 304.365685 -72.070433 
L 303.773035 -73.197339 
L 303.239136 -74.324245 
L 302.773421 -75.451152 
L 302.382305 -76.578058 
L 302.0693 -77.704964 
L 301.835191 -78.83187 
L 301.67823 -79.958776 
L 301.594379 -81.085682 
L 301.577637 -82.212589 
L 301.620508 -83.339495 
L 301.714615 -84.466401 
L 301.851433 -85.593307 
L 302.023053 -86.720213 
L 302.222868 -87.847119 
L 302.446069 -88.974025 
L 302.689865 -90.100932 
L 302.953381 -91.227838 
L 303.237226 -92.354744 
L 303.542797 -93.48165 
L 303.871427 -94.608556 
L 304.223497 -95.735462 
L 304.5977 -96.862369 
L 304.990593 -97.989275 
L 305.396559 -99.116181 
L 305.808205 -100.243087 
L 306.21715 -101.369993 
L 306.615027 -102.496899 
L 306.994511 -103.623805 
L 307.35014 -104.750712 
L 307.678762 -105.877618 
L 307.97955 -107.004524 
L 308.253609 -108.13143 
L 308.503324 -109.258336 
L 308.731621 -110.385242 
L 308.941331 -111.512149 
L 309.134772 -112.639055 
L 309.313599 -113.765961 
L 309.478876 -114.892867 
L 309.631293 -116.019773 
L 309.771397 -117.146679 
L 309.89977 -118.273586 
L 310.01708 -119.400492 
L 310.124029 -120.527398 
L 310.22124 -121.654304 
L 310.309142 -122.78121 
L 310.387917 -123.908116 
L 310.457543 -125.035022 
L 310.517921 -126.161929 
L 310.569062 -127.288835 
L 310.611266 -128.415741 
L 310.645251 -129.542647 
L 310.672188 -130.669553 
L 310.69362 -131.796459 
L 310.711292 -132.923366 
L 310.726925 -134.050272 
L 310.741989 -135.177178 
L 310.75752 -136.304084 
L 310.774036 -137.43099 
L 310.791546 -138.557896 
L 310.809664 -139.684802 
L 310.827777 -140.811709 
L 310.845239 -141.938615 
L 310.861538 -143.065521 
L 310.876417 -144.192427 
L 310.889929 -145.319333 
L 310.902425 -146.446239 
L 310.914507 -147.573146 
L 310.926933 -148.700052 
L 310.940514 -149.826958 
L 310.955998 -150.953864 
L 310.973953 -152.08077 
L 310.994677 -153.207676 
L 311.018128 -154.334583 
L 311.043903 -155.461489 
L 311.071278 -156.588395 
L 311.099292 -157.715301 
L 311.126873 -158.842207 
L 311.152982 -159.969113 
L 311.176743 -161.096019 
L 311.197532 -162.222926 
L 311.21502 -163.349832 
L 311.229171 -164.476738 
L 311.240187 -165.603644 
L 311.291184 -165.603644 
L 311.291184 -165.603644 
L 311.3022 -164.476738 
L 311.316351 -163.349832 
L 311.333839 -162.222926 
L 311.354627 -161.096019 
L 311.378388 -159.969113 
L 311.404498 -158.842207 
L 311.432079 -157.715301 
L 311.460092 -156.588395 
L 311.487467 -155.461489 
L 311.513243 -154.334583 
L 311.536693 -153.207676 
L 311.557417 -152.08077 
L 311.575373 -150.953864 
L 311.590856 -149.826958 
L 311.604438 -148.700052 
L 311.616864 -147.573146 
L 311.628946 -146.446239 
L 311.641442 -145.319333 
L 311.654953 -144.192427 
L 311.669833 -143.065521 
L 311.686132 -141.938615 
L 311.703593 -140.811709 
L 311.721706 -139.684802 
L 311.739824 -138.557896 
L 311.757334 -137.43099 
L 311.77385 -136.304084 
L 311.789382 -135.177178 
L 311.804446 -134.050272 
L 311.820079 -132.923366 
L 311.837751 -131.796459 
L 311.859183 -130.669553 
L 311.88612 -129.542647 
L 311.920105 -128.415741 
L 311.962309 -127.288835 
L 312.013449 -126.161929 
L 312.073828 -125.035022 
L 312.143454 -123.908116 
L 312.222229 -122.78121 
L 312.31013 -121.654304 
L 312.407341 -120.527398 
L 312.51429 -119.400492 
L 312.6316 -118.273586 
L 312.759973 -117.146679 
L 312.900078 -116.019773 
L 313.052494 -114.892867 
L 313.217771 -113.765961 
L 313.396598 -112.639055 
L 313.59004 -111.512149 
L 313.79975 -110.385242 
L 314.028046 -109.258336 
L 314.277761 -108.13143 
L 314.551821 -107.004524 
L 314.852609 -105.877618 
L 315.181231 -104.750712 
L 315.536859 -103.623805 
L 315.916343 -102.496899 
L 316.314221 -101.369993 
L 316.723165 -100.243087 
L 317.134812 -99.116181 
L 317.540777 -97.989275 
L 317.93367 -96.862369 
L 318.307873 -95.735462 
L 318.659943 -94.608556 
L 318.988573 -93.48165 
L 319.294145 -92.354744 
L 319.577989 -91.227838 
L 319.841505 -90.100932 
L 320.085302 -88.974025 
L 320.308503 -87.847119 
L 320.508317 -86.720213 
L 320.679937 -85.593307 
L 320.816756 -84.466401 
L 320.910863 -83.339495 
L 320.953734 -82.212589 
L 320.936992 -81.085682 
L 320.853141 -79.958776 
L 320.69618 -78.83187 
L 320.46207 -77.704964 
L 320.149066 -76.578058 
L 319.757949 -75.451152 
L 319.292234 -74.324245 
L 318.758335 -73.197339 
L 318.165686 -72.070433 
L 317.526712 -70.943527 
L 316.856559 -69.816621 
L 316.172479 -68.689715 
L 315.492866 -67.562808 
L 314.836002 -66.435902 
L 314.218668 -65.308996 
L 313.654836 -64.18209 
L 313.154654 -63.055184 
L 312.723882 -61.928278 
L 312.363859 -60.801372 
L 312.071957 -59.674465 
L 311.842421 -58.547559 
L 311.667401 -57.420653 
L 311.538017 -56.293747 
L 311.445295 -55.166841 
L 311.380884 -54.039935 
z
" style="stroke: #4c4c4c; stroke-width: 1.25"/>
    </defs>
    <g clip-path="url(#p42d0c5ab9b)">
     <use xlink:href="#maacb90b837" x="0" y="288" style="fill: #6b639a; stroke: #4c4c4c; stroke-width: 1.25"/>
    </g>
   </g>
   <g id="PolyCollection_11">
    <defs>
     <path id="m14bc6ea82b" d="M 343.177695 -49.736695 
L 342.496503 -49.736695 
L 342.374574 -51.084475 
L 342.220202 -52.432255 
L 342.028871 -53.780035 
L 341.796767 -55.127815 
L 341.521244 -56.475595 
L 341.201277 -57.823375 
L 340.837876 -59.171155 
L 340.434366 -60.518935 
L 339.996519 -61.866715 
L 339.532461 -63.214495 
L 339.052349 -64.562275 
L 338.567827 -65.910055 
L 338.0913 -67.257835 
L 337.635078 -68.605615 
L 337.210499 -69.953395 
L 336.827115 -71.301175 
L 336.492032 -72.648955 
L 336.209491 -73.996735 
L 335.980719 -75.344515 
L 335.804083 -76.692295 
L 335.675509 -78.040075 
L 335.589121 -79.387855 
L 335.538018 -80.735635 
L 335.515106 -82.083415 
L 335.513889 -83.431195 
L 335.529141 -84.778976 
L 335.55739 -86.126756 
L 335.597177 -87.474536 
L 335.649062 -88.822316 
L 335.715389 -90.170096 
L 335.799843 -91.517876 
L 335.90684 -92.865656 
L 336.040832 -94.213436 
L 336.205598 -95.561216 
L 336.403597 -96.908996 
L 336.635471 -98.256776 
L 336.899751 -99.604556 
L 337.192793 -100.952336 
L 337.508972 -102.300116 
L 337.841094 -103.647896 
L 338.180983 -104.995676 
L 338.520178 -106.343456 
L 338.850631 -107.691236 
L 339.165359 -109.039016 
L 339.458932 -110.386796 
L 339.727791 -111.734576 
L 339.970327 -113.082356 
L 340.186765 -114.430136 
L 340.378857 -115.777916 
L 340.549452 -117.125696 
L 340.702015 -118.473476 
L 340.840142 -119.821256 
L 340.96715 -121.169036 
L 341.085775 -122.516816 
L 341.198003 -123.864596 
L 341.305032 -125.212376 
L 341.407347 -126.560156 
L 341.504885 -127.907936 
L 341.597242 -129.255716 
L 341.683881 -130.603496 
L 341.764323 -131.951276 
L 341.838284 -133.299056 
L 341.90575 -134.646837 
L 341.966993 -135.994617 
L 342.022523 -137.342397 
L 342.073012 -138.690177 
L 342.119187 -140.037957 
L 342.161727 -141.385737 
L 342.201168 -142.733517 
L 342.237845 -144.081297 
L 342.271863 -145.429077 
L 342.303118 -146.776857 
L 342.331352 -148.124637 
L 342.356231 -149.472417 
L 342.377451 -150.820197 
L 342.394837 -152.167977 
L 342.408431 -153.515757 
L 342.418548 -154.863537 
L 342.425792 -156.211317 
L 342.431038 -157.559097 
L 342.435359 -158.906877 
L 342.439931 -160.254657 
L 342.445917 -161.602437 
L 342.454346 -162.950217 
L 342.466009 -164.297997 
L 342.48138 -165.645777 
L 342.500576 -166.993557 
L 342.523362 -168.341337 
L 342.549187 -169.689117 
L 342.577259 -171.036897 
L 342.606633 -172.384677 
L 342.636314 -173.732457 
L 342.665345 -175.080237 
L 342.692886 -176.428017 
L 342.71827 -177.775797 
L 342.741029 -179.123577 
L 342.760901 -180.471357 
L 342.777814 -181.819137 
L 342.791854 -183.166917 
L 342.882344 -183.166917 
L 342.882344 -183.166917 
L 342.896384 -181.819137 
L 342.913296 -180.471357 
L 342.933168 -179.123577 
L 342.955927 -177.775797 
L 342.981311 -176.428017 
L 343.008853 -175.080237 
L 343.037884 -173.732457 
L 343.067564 -172.384677 
L 343.096939 -171.036897 
L 343.12501 -169.689117 
L 343.150835 -168.341337 
L 343.173621 -166.993557 
L 343.192818 -165.645777 
L 343.208188 -164.297997 
L 343.219851 -162.950217 
L 343.228281 -161.602437 
L 343.234267 -160.254657 
L 343.238839 -158.906877 
L 343.24316 -157.559097 
L 343.248405 -156.211317 
L 343.25565 -154.863537 
L 343.265766 -153.515757 
L 343.27936 -152.167977 
L 343.296747 -150.820197 
L 343.317967 -149.472417 
L 343.342846 -148.124637 
L 343.371079 -146.776857 
L 343.402335 -145.429077 
L 343.436353 -144.081297 
L 343.473029 -142.733517 
L 343.51247 -141.385737 
L 343.55501 -140.037957 
L 343.601186 -138.690177 
L 343.651675 -137.342397 
L 343.707205 -135.994617 
L 343.768447 -134.646837 
L 343.835914 -133.299056 
L 343.909875 -131.951276 
L 343.990317 -130.603496 
L 344.076955 -129.255716 
L 344.169312 -127.907936 
L 344.266851 -126.560156 
L 344.369166 -125.212376 
L 344.476194 -123.864596 
L 344.588423 -122.516816 
L 344.707048 -121.169036 
L 344.834056 -119.821256 
L 344.972183 -118.473476 
L 345.124745 -117.125696 
L 345.295341 -115.777916 
L 345.487432 -114.430136 
L 345.70387 -113.082356 
L 345.946407 -111.734576 
L 346.215265 -110.386796 
L 346.508839 -109.039016 
L 346.823566 -107.691236 
L 347.15402 -106.343456 
L 347.493214 -104.995676 
L 347.833104 -103.647896 
L 348.165225 -102.300116 
L 348.481404 -100.952336 
L 348.774446 -99.604556 
L 349.038726 -98.256776 
L 349.270601 -96.908996 
L 349.4686 -95.561216 
L 349.633365 -94.213436 
L 349.767358 -92.865656 
L 349.874354 -91.517876 
L 349.958808 -90.170096 
L 350.025136 -88.822316 
L 350.077021 -87.474536 
L 350.116808 -86.126756 
L 350.145057 -84.778976 
L 350.160308 -83.431195 
L 350.159091 -82.083415 
L 350.13618 -80.735635 
L 350.085077 -79.387855 
L 349.998689 -78.040075 
L 349.870115 -76.692295 
L 349.693479 -75.344515 
L 349.464707 -73.996735 
L 349.182165 -72.648955 
L 348.847083 -71.301175 
L 348.463699 -69.953395 
L 348.03912 -68.605615 
L 347.582897 -67.257835 
L 347.10637 -65.910055 
L 346.621849 -64.562275 
L 346.141736 -63.214495 
L 345.677678 -61.866715 
L 345.239832 -60.518935 
L 344.836322 -59.171155 
L 344.47292 -57.823375 
L 344.152954 -56.475595 
L 343.87743 -55.127815 
L 343.645326 -53.780035 
L 343.453995 -52.432255 
L 343.299624 -51.084475 
L 343.177695 -49.736695 
z
" style="stroke: #4c4c4c; stroke-width: 1.25"/>
    </defs>
    <g clip-path="url(#p42d0c5ab9b)">
     <use xlink:href="#m14bc6ea82b" x="0" y="288" style="fill: #a0c4d4; stroke: #4c4c4c; stroke-width: 1.25"/>
    </g>
   </g>
   <g id="PolyCollection_12">
    <defs>
     <path id="m49e11d2d83" d="M 363.960079 -53.681349 
L 363.809337 -53.681349 
L 363.761402 -54.838896 
L 363.689652 -55.996443 
L 363.586005 -57.153991 
L 363.441359 -58.311538 
L 363.246143 -59.469085 
L 362.991132 -60.626633 
L 362.668485 -61.78418 
L 362.272951 -62.941728 
L 361.803092 -64.099275 
L 361.262355 -65.256822 
L 360.659735 -66.41437 
L 360.009757 -67.571917 
L 359.331595 -68.729464 
L 358.647279 -69.887012 
L 357.979195 -71.044559 
L 357.34733 -72.202106 
L 356.766895 -73.359654 
L 356.246928 -74.517201 
L 355.790268 -75.674749 
L 355.394942 -76.832296 
L 355.056562 -77.989843 
L 354.771071 -79.147391 
L 354.53707 -80.304938 
L 354.357106 -81.462485 
L 354.237618 -82.620033 
L 354.187597 -83.77758 
L 354.216343 -84.935127 
L 354.330876 -86.092675 
L 354.533601 -87.250222 
L 354.820727 -88.407769 
L 355.18176 -89.565317 
L 355.60018 -90.722864 
L 356.055174 -91.880412 
L 356.524142 -93.037959 
L 356.985516 -94.195506 
L 357.42143 -95.353054 
L 357.819748 -96.510601 
L 358.175105 -97.668148 
L 358.488793 -98.825696 
L 358.767537 -99.983243 
L 359.021466 -101.14079 
L 359.26173 -102.298338 
L 359.498286 -103.455885 
L 359.738297 -104.613432 
L 359.985405 -105.77098 
L 360.239872 -106.928527 
L 360.499396 -108.086075 
L 360.760215 -109.243622 
L 361.018139 -110.401169 
L 361.269217 -111.558717 
L 361.509935 -112.716264 
L 361.737014 -113.873811 
L 361.94704 -115.031359 
L 362.136195 -116.188906 
L 362.300325 -117.346453 
L 362.435429 -118.504001 
L 362.538495 -119.661548 
L 362.608452 -120.819095 
L 362.646926 -121.976643 
L 362.658532 -123.13419 
L 362.650553 -124.291738 
L 362.632019 -125.449285 
L 362.612385 -126.606832 
L 362.600114 -127.76438 
L 362.601469 -128.921927 
L 362.619793 -130.079474 
L 362.655394 -131.237022 
L 362.706006 -132.394569 
L 362.76768 -133.552116 
L 362.835862 -134.709664 
L 362.906396 -135.867211 
L 362.976242 -137.024758 
L 363.043798 -138.182306 
L 363.108807 -139.339853 
L 363.171944 -140.497401 
L 363.234244 -141.654948 
L 363.29654 -142.812495 
L 363.359055 -143.970043 
L 363.421225 -145.12759 
L 363.481767 -146.285137 
L 363.538945 -147.442685 
L 363.590943 -148.600232 
L 363.636258 -149.757779 
L 363.674006 -150.915327 
L 363.704097 -152.072874 
L 363.727241 -153.230422 
L 363.744784 -154.387969 
L 363.75843 -155.545516 
L 363.769911 -156.703064 
L 363.780682 -157.860611 
L 363.79171 -159.018158 
L 363.8034 -160.175706 
L 363.815647 -161.333253 
L 363.827992 -162.4908 
L 363.839821 -163.648348 
L 363.850547 -164.805895 
L 363.859745 -165.963442 
L 363.867209 -167.12099 
L 363.872949 -168.278537 
L 363.896467 -168.278537 
L 363.896467 -168.278537 
L 363.902206 -167.12099 
L 363.909671 -165.963442 
L 363.918869 -164.805895 
L 363.929595 -163.648348 
L 363.941423 -162.4908 
L 363.953769 -161.333253 
L 363.966015 -160.175706 
L 363.977705 -159.018158 
L 363.988733 -157.860611 
L 363.999504 -156.703064 
L 364.010985 -155.545516 
L 364.024632 -154.387969 
L 364.042174 -153.230422 
L 364.065318 -152.072874 
L 364.09541 -150.915327 
L 364.133157 -149.757779 
L 364.178472 -148.600232 
L 364.230471 -147.442685 
L 364.287649 -146.285137 
L 364.34819 -145.12759 
L 364.41036 -143.970043 
L 364.472876 -142.812495 
L 364.535172 -141.654948 
L 364.597472 -140.497401 
L 364.660609 -139.339853 
L 364.725618 -138.182306 
L 364.793174 -137.024758 
L 364.86302 -135.867211 
L 364.933553 -134.709664 
L 365.001736 -133.552116 
L 365.06341 -132.394569 
L 365.114022 -131.237022 
L 365.149622 -130.079474 
L 365.167947 -128.921927 
L 365.169301 -127.76438 
L 365.15703 -126.606832 
L 365.137397 -125.449285 
L 365.118863 -124.291738 
L 365.110883 -123.13419 
L 365.12249 -121.976643 
L 365.160963 -120.819095 
L 365.23092 -119.661548 
L 365.333987 -118.504001 
L 365.46909 -117.346453 
L 365.63322 -116.188906 
L 365.822375 -115.031359 
L 366.032401 -113.873811 
L 366.259481 -112.716264 
L 366.500199 -111.558717 
L 366.751277 -110.401169 
L 367.009201 -109.243622 
L 367.27002 -108.086075 
L 367.529544 -106.928527 
L 367.784011 -105.77098 
L 368.031118 -104.613432 
L 368.271129 -103.455885 
L 368.507685 -102.298338 
L 368.747949 -101.14079 
L 369.001879 -99.983243 
L 369.280623 -98.825696 
L 369.594311 -97.668148 
L 369.949668 -96.510601 
L 370.347985 -95.353054 
L 370.7839 -94.195506 
L 371.245274 -93.037959 
L 371.714241 -91.880412 
L 372.169236 -90.722864 
L 372.587655 -89.565317 
L 372.948689 -88.407769 
L 373.235815 -87.250222 
L 373.43854 -86.092675 
L 373.553073 -84.935127 
L 373.581818 -83.77758 
L 373.531797 -82.620033 
L 373.412309 -81.462485 
L 373.232346 -80.304938 
L 372.998345 -79.147391 
L 372.712854 -77.989843 
L 372.374473 -76.832296 
L 371.979148 -75.674749 
L 371.522488 -74.517201 
L 371.00252 -73.359654 
L 370.422085 -72.202106 
L 369.79022 -71.044559 
L 369.122136 -69.887012 
L 368.437821 -68.729464 
L 367.759659 -67.571917 
L 367.10968 -66.41437 
L 366.50706 -65.256822 
L 365.966324 -64.099275 
L 365.496465 -62.941728 
L 365.10093 -61.78418 
L 364.778284 -60.626633 
L 364.523272 -59.469085 
L 364.328056 -58.311538 
L 364.18341 -57.153991 
L 364.079764 -55.996443 
L 364.008013 -54.838896 
L 363.960079 -53.681349 
z
" style="stroke: #4c4c4c; stroke-width: 1.25"/>
    </defs>
    <g clip-path="url(#p42d0c5ab9b)">
     <use xlink:href="#m49e11d2d83" x="0" y="288" style="fill: #6b639a; stroke: #4c4c4c; stroke-width: 1.25"/>
    </g>
   </g>
   <g id="patch_3">
    <path d="M 90.265791 224.336706 
L 90.265791 224.336706 
L 90.265791 224.336706 
L 90.265791 224.336706 
z
" clip-path="url(#p42d0c5ab9b)" style="fill: #a0c4d4; stroke: #4c4c4c; stroke-width: 1.25; stroke-linejoin: miter"/>
   </g>
   <g id="patch_4">
    <path d="M 90.265791 224.336706 
L 90.265791 224.336706 
L 90.265791 224.336706 
L 90.265791 224.336706 
z
" clip-path="url(#p42d0c5ab9b)" style="fill: #6b639a; stroke: #4c4c4c; stroke-width: 1.25; stroke-linejoin: miter"/>
   </g>
   <g id="matplotlib.axis_1">
    <g id="xtick_1">
     <g id="line2d_1">
      <defs>
       <path id="ma9b7c3f1a6" d="M 0 0 
L 0 6 
" style="stroke: #d3d3d3; stroke-width: 2"/>
      </defs>
      <g>
       <use xlink:href="#ma9b7c3f1a6" x="90.265791" y="256.32" style="fill: #d3d3d3; stroke: #d3d3d3; stroke-width: 2"/>
      </g>
     </g>
     <g id="text_1">
      <text style="font: 14px 'Arial'; text-anchor: middle" x="90.265791" y="275.840937" transform="rotate(-0 90.265791 275.840937)">A02n</text>
     </g>
    </g>
    <g id="xtick_2">
     <g id="line2d_2">
      <g>
       <use xlink:href="#ma9b7c3f1a6" x="142.884813" y="256.32" style="fill: #d3d3d3; stroke: #d3d3d3; stroke-width: 2"/>
      </g>
     </g>
     <g id="text_2">
      <text style="font: 14px 'Arial'; text-anchor: middle" x="142.884813" y="275.840937" transform="rotate(-0 142.884813 275.840937)">A09l</text>
     </g>
    </g>
    <g id="xtick_3">
     <g id="line2d_3">
      <g>
       <use xlink:href="#ma9b7c3f1a6" x="195.503836" y="256.32" style="fill: #d3d3d3; stroke: #d3d3d3; stroke-width: 2"/>
      </g>
     </g>
     <g id="text_3">
      <text style="font: 14px 'Arial'; text-anchor: middle" x="195.503836" y="275.840937" transform="rotate(-0 195.503836 275.840937)">A09c</text>
     </g>
    </g>
    <g id="xtick_4">
     <g id="line2d_4">
      <g>
       <use xlink:href="#ma9b7c3f1a6" x="248.122858" y="256.32" style="fill: #d3d3d3; stroke: #d3d3d3; stroke-width: 2"/>
      </g>
     </g>
     <g id="text_4">
      <text style="font: 14px 'Arial'; text-anchor: middle" x="248.122858" y="275.840937" transform="rotate(-0 248.122858 275.840937)">A09a</text>
     </g>
    </g>
    <g id="xtick_5">
     <g id="line2d_5">
      <g>
       <use xlink:href="#ma9b7c3f1a6" x="300.741881" y="256.32" style="fill: #d3d3d3; stroke: #d3d3d3; stroke-width: 2"/>
      </g>
     </g>
     <g id="text_5">
      <text style="font: 14px 'Arial'; text-anchor: middle" x="300.741881" y="275.840937" transform="rotate(-0 300.741881 275.840937)">A02m</text>
     </g>
    </g>
    <g id="xtick_6">
     <g id="line2d_6">
      <g>
       <use xlink:href="#ma9b7c3f1a6" x="353.360903" y="256.32" style="fill: #d3d3d3; stroke: #d3d3d3; stroke-width: 2"/>
      </g>
     </g>
     <g id="text_6">
      <text style="font: 14px 'Arial'; text-anchor: middle" x="353.360903" y="275.840937" transform="rotate(-0 353.360903 275.840937)">A10a</text>
     </g>
    </g>
    <g id="text_7">
     <text style="font: 18px 'Arial'; text-anchor: middle" x="221.4" y="295.5075" transform="rotate(-0 221.4 295.5075)">Target Name</text>
    </g>
   </g>
   <g id="matplotlib.axis_2">
    <g id="ytick_1">
     <g id="line2d_7">
      <defs>
       <path id="m8e8c2f4e3d" d="M 0 0 
L -6 0 
" style="stroke: #d3d3d3; stroke-width: 2"/>
      </defs>
      <g>
       <use xlink:href="#m8e8c2f4e3d" x="54" y="224.336706" style="fill: #d3d3d3; stroke: #d3d3d3; stroke-width: 2"/>
      </g>
     </g>
     <g id="text_8">
      <text style="font: 14px 'Arial'; text-anchor: end" x="44.5" y="229.347175" transform="rotate(-0 44.5 229.347175)">0</text>
     </g>
    </g>
    <g id="ytick_2">
     <g id="line2d_8">
      <g>
       <use xlink:href="#m8e8c2f4e3d" x="54" y="182.314234" style="fill: #d3d3d3; stroke: #d3d3d3; stroke-width: 2"/>
      </g>
     </g>
     <g id="text_9">
      <text style="font: 14px 'Arial'; text-anchor: end" x="44.5" y="187.324702" transform="rotate(-0 44.5 187.324702)">50000</text>
     </g>
    </g>
    <g id="ytick_3">
     <g id="line2d_9">
      <g>
       <use xlink:href="#m8e8c2f4e3d" x="54" y="140.291761" style="fill: #d3d3d3; stroke: #d3d3d3; stroke-width: 2"/>
      </g>
     </g>
     <g id="text_10">
      <text style="font: 14px 'Arial'; text-anchor: end" x="44.5" y="145.30223" transform="rotate(-0 44.5 145.30223)">100000</text>
     </g>
    </g>
    <g id="ytick_4">
     <g id="line2d_10">
      <g>
       <use xlink:href="#m8e8c2f4e3d" x="54" y="98.269288" style="fill: #d3d3d3; stroke: #d3d3d3; stroke-width: 2"/>
      </g>
     </g>
     <g id="text_11">
      <text style="font: 14px 'Arial'; text-anchor: end" x="44.5" y="103.279757" transform="rotate(-0 44.5 103.279757)">150000</text>
     </g>
    </g>
    <g id="ytick_5">
     <g id="line2d_11">
      <g>
       <use xlink:href="#m8e8c2f4e3d" x="54" y="56.246816" style="fill: #d3d3d3; stroke: #d3d3d3; stroke-width: 2"/>
      </g>
     </g>
     <g id="text_12">
      <text style="font: 14px 'Arial'; text-anchor: end" x="44.5" y="61.257284" transform="rotate(-0 44.5 61.257284)">200000</text>
     </g>
    </g>
    <g id="text_13">
     <text style="font: 18px 'Arial'; text-anchor: middle" x="-9.789375" y="145.44" transform="rotate(-90 -9.789375 145.44)">Area</text>
    </g>
   </g>
   <g id="line2d_12">
    <path d="M 79.741986 217.689416 
L 79.741986 176.105875 
" clip-path="url(#p42d0c5ab9b)" style="fill: none; stroke: #4c4c4c; stroke-width: 1.875; stroke-linecap: square"/>
   </g>
   <g id="line2d_13">
    <path d="M 79.741986 210.102211 
L 79.741986 191.480379 
" clip-path="url(#p42d0c5ab9b)" style="fill: none; stroke: #4c4c4c; stroke-width: 5.625; stroke-linecap: square"/>
   </g>
   <g id="line2d_14">
    <path d="M 79.741986 201.413257 
" clip-path="url(#p42d0c5ab9b)" style="fill: none; stroke: #4c4c4c; stroke-width: 2; stroke-linecap: square"/>
    <defs>
     <path id="maec2e25a9b" d="M 2.34375 0 
L -2.34375 -0 
" style="stroke: #ffffff; stroke-width: 1.125"/>
    </defs>
    <g clip-path="url(#p42d0c5ab9b)">
     <use xlink:href="#maec2e25a9b" x="79.741986" y="201.413257" style="fill: #ffffff; stroke: #ffffff; stroke-width: 1.125"/>
    </g>
   </g>
   <g id="line2d_15">
    <path d="M 100.789595 221.923259 
L 100.789595 164.877955 
" clip-path="url(#p42d0c5ab9b)" style="fill: none; stroke: #4c4c4c; stroke-width: 1.875; stroke-linecap: square"/>
   </g>
   <g id="line2d_16">
    <path d="M 100.789595 209.675036 
L 100.789595 190.939668 
" clip-path="url(#p42d0c5ab9b)" style="fill: none; stroke: #4c4c4c; stroke-width: 5.625; stroke-linecap: square"/>
   </g>
   <g id="line2d_17">
    <path d="M 100.789595 203.326589 
" clip-path="url(#p42d0c5ab9b)" style="fill: none; stroke: #4c4c4c; stroke-width: 2; stroke-linecap: square"/>
    <g clip-path="url(#p42d0c5ab9b)">
     <use xlink:href="#maec2e25a9b" x="100.789595" y="203.326589" style="fill: #ffffff; stroke: #ffffff; stroke-width: 1.125"/>
    </g>
   </g>
   <g id="line2d_18">
    <path d="M 132.361009 220.013852 
L 132.361009 125.906778 
" clip-path="url(#p42d0c5ab9b)" style="fill: none; stroke: #4c4c4c; stroke-width: 1.875; stroke-linecap: square"/>
   </g>
   <g id="line2d_19">
    <path d="M 132.361009 200.610533 
L 132.361009 166.187385 
" clip-path="url(#p42d0c5ab9b)" style="fill: none; stroke: #4c4c4c; stroke-width: 5.625; stroke-linecap: square"/>
   </g>
   <g id="line2d_20">
    <path d="M 132.361009 184.464311 
" clip-path="url(#p42d0c5ab9b)" style="fill: none; stroke: #4c4c4c; stroke-width: 2; stroke-linecap: square"/>
    <g clip-path="url(#p42d0c5ab9b)">
     <use xlink:href="#maec2e25a9b" x="132.361009" y="184.464311" style="fill: #ffffff; stroke: #ffffff; stroke-width: 1.125"/>
    </g>
   </g>
   <g id="line2d_21">
    <path d="M 153.408618 221.616722 
L 153.408618 157.858393 
" clip-path="url(#p42d0c5ab9b)" style="fill: none; stroke: #4c4c4c; stroke-width: 1.875; stroke-linecap: square"/>
   </g>
   <g id="line2d_22">
    <path d="M 153.408618 208.178357 
L 153.408618 187.166818 
" clip-path="url(#p42d0c5ab9b)" style="fill: none; stroke: #4c4c4c; stroke-width: 5.625; stroke-linecap: square"/>
   </g>
   <g id="line2d_23">
    <path d="M 153.408618 197.063657 
" clip-path="url(#p42d0c5ab9b)" style="fill: none; stroke: #4c4c4c; stroke-width: 2; stroke-linecap: square"/>
    <g clip-path="url(#p42d0c5ab9b)">
     <use xlink:href="#maec2e25a9b" x="153.408618" y="197.063657" style="fill: #ffffff; stroke: #ffffff; stroke-width: 1.125"/>
    </g>
   </g>
   <g id="line2d_24">
    <path d="M 184.980031 221.412275 
L 184.980031 153.37656 
" clip-path="url(#p42d0c5ab9b)" style="fill: none; stroke: #4c4c4c; stroke-width: 1.875; stroke-linecap: square"/>
   </g>
   <g id="line2d_25">
    <path d="M 184.980031 206.080529 
L 184.980031 182.999745 
" clip-path="url(#p42d0c5ab9b)" style="fill: none; stroke: #4c4c4c; stroke-width: 5.625; stroke-linecap: square"/>
   </g>
   <g id="line2d_26">
    <path d="M 184.980031 195.527998 
" clip-path="url(#p42d0c5ab9b)" style="fill: none; stroke: #4c4c4c; stroke-width: 2; stroke-linecap: square"/>
    <g clip-path="url(#p42d0c5ab9b)">
     <use xlink:href="#maec2e25a9b" x="184.980031" y="195.527998" style="fill: #ffffff; stroke: #ffffff; stroke-width: 1.125"/>
    </g>
   </g>
   <g id="line2d_27">
    <path d="M 206.02764 223.129983 
L 206.02764 158.750531 
" clip-path="url(#p42d0c5ab9b)" style="fill: none; stroke: #4c4c4c; stroke-width: 1.875; stroke-linecap: square"/>
   </g>
   <g id="line2d_28">
    <path d="M 206.02764 208.263873 
L 206.02764 188.293472 
" clip-path="url(#p42d0c5ab9b)" style="fill: none; stroke: #4c4c4c; stroke-width: 5.625; stroke-linecap: square"/>
   </g>
   <g id="line2d_29">
    <path d="M 206.02764 200.270924 
" clip-path="url(#p42d0c5ab9b)" style="fill: none; stroke: #4c4c4c; stroke-width: 2; stroke-linecap: square"/>
    <g clip-path="url(#p42d0c5ab9b)">
     <use xlink:href="#maec2e25a9b" x="206.02764" y="200.270924" style="fill: #ffffff; stroke: #ffffff; stroke-width: 1.125"/>
    </g>
   </g>
   <g id="line2d_30">
    <path d="M 237.599054 214.858526 
L 237.599054 168.361537 
" clip-path="url(#p42d0c5ab9b)" style="fill: none; stroke: #4c4c4c; stroke-width: 1.875; stroke-linecap: square"/>
   </g>
   <g id="line2d_31">
    <path d="M 237.599054 206.260763 
L 237.599054 190.13509 
" clip-path="url(#p42d0c5ab9b)" style="fill: none; stroke: #4c4c4c; stroke-width: 5.625; stroke-linecap: square"/>
   </g>
   <g id="line2d_32">
    <path d="M 237.599054 201.129309 
" clip-path="url(#p42d0c5ab9b)" style="fill: none; stroke: #4c4c4c; stroke-width: 2; stroke-linecap: square"/>
    <g clip-path="url(#p42d0c5ab9b)">
     <use xlink:href="#maec2e25a9b" x="237.599054" y="201.129309" style="fill: #ffffff; stroke: #ffffff; stroke-width: 1.125"/>
    </g>
   </g>
   <g id="line2d_33">
    <path d="M 258.646663 222.93668 
L 258.646663 153.056617 
" clip-path="url(#p42d0c5ab9b)" style="fill: none; stroke: #4c4c4c; stroke-width: 1.875; stroke-linecap: square"/>
   </g>
   <g id="line2d_34">
    <path d="M 258.646663 208.065712 
L 258.646663 185.839991 
" clip-path="url(#p42d0c5ab9b)" style="fill: none; stroke: #4c4c4c; stroke-width: 5.625; stroke-linecap: square"/>
   </g>
   <g id="line2d_35">
    <path d="M 258.646663 199.300384 
" clip-path="url(#p42d0c5ab9b)" style="fill: none; stroke: #4c4c4c; stroke-width: 2; stroke-linecap: square"/>
    <g clip-path="url(#p42d0c5ab9b)">
     <use xlink:href="#maec2e25a9b" x="258.646663" y="199.300384" style="fill: #ffffff; stroke: #ffffff; stroke-width: 1.125"/>
    </g>
   </g>
   <g id="line2d_36">
    <path d="M 290.218076 213.790822 
L 290.218076 133.580272 
" clip-path="url(#p42d0c5ab9b)" style="fill: none; stroke: #4c4c4c; stroke-width: 1.875; stroke-linecap: square"/>
   </g>
   <g id="line2d_37">
    <path d="M 290.218076 205.403042 
L 290.218076 160.904471 
" clip-path="url(#p42d0c5ab9b)" style="fill: none; stroke: #4c4c4c; stroke-width: 5.625; stroke-linecap: square"/>
   </g>
   <g id="line2d_38">
    <path d="M 290.218076 189.708479 
" clip-path="url(#p42d0c5ab9b)" style="fill: none; stroke: #4c4c4c; stroke-width: 2; stroke-linecap: square"/>
    <g clip-path="url(#p42d0c5ab9b)">
     <use xlink:href="#maec2e25a9b" x="290.218076" y="189.708479" style="fill: #ffffff; stroke: #ffffff; stroke-width: 1.125"/>
    </g>
   </g>
   <g id="line2d_39">
    <path d="M 311.265685 221.69679 
L 311.265685 165.902756 
" clip-path="url(#p42d0c5ab9b)" style="fill: none; stroke: #4c4c4c; stroke-width: 1.875; stroke-linecap: square"/>
   </g>
   <g id="line2d_40">
    <path d="M 311.265685 210.093386 
L 311.265685 191.550488 
" clip-path="url(#p42d0c5ab9b)" style="fill: none; stroke: #4c4c4c; stroke-width: 5.625; stroke-linecap: square"/>
   </g>
   <g id="line2d_41">
    <path d="M 311.265685 201.477648 
" clip-path="url(#p42d0c5ab9b)" style="fill: none; stroke: #4c4c4c; stroke-width: 2; stroke-linecap: square"/>
    <g clip-path="url(#p42d0c5ab9b)">
     <use xlink:href="#maec2e25a9b" x="311.265685" y="201.477648" style="fill: #ffffff; stroke: #ffffff; stroke-width: 1.125"/>
    </g>
   </g>
   <g id="line2d_42">
    <path d="M 342.837099 218.966899 
L 342.837099 155.087706 
" clip-path="url(#p42d0c5ab9b)" style="fill: none; stroke: #4c4c4c; stroke-width: 1.875; stroke-linecap: square"/>
   </g>
   <g id="line2d_43">
    <path d="M 342.837099 211.924894 
L 342.837099 189.064751 
" clip-path="url(#p42d0c5ab9b)" style="fill: none; stroke: #4c4c4c; stroke-width: 5.625; stroke-linecap: square"/>
   </g>
   <g id="line2d_44">
    <path d="M 342.837099 199.127567 
" clip-path="url(#p42d0c5ab9b)" style="fill: none; stroke: #4c4c4c; stroke-width: 2; stroke-linecap: square"/>
    <g clip-path="url(#p42d0c5ab9b)">
     <use xlink:href="#maec2e25a9b" x="342.837099" y="199.127567" style="fill: #ffffff; stroke: #ffffff; stroke-width: 1.125"/>
    </g>
   </g>
   <g id="line2d_45">
    <path d="M 363.884708 223.210052 
L 363.884708 155.917312 
" clip-path="url(#p42d0c5ab9b)" style="fill: none; stroke: #4c4c4c; stroke-width: 1.875; stroke-linecap: square"/>
   </g>
   <g id="line2d_46">
    <path d="M 363.884708 209.693041 
L 363.884708 187.670682 
" clip-path="url(#p42d0c5ab9b)" style="fill: none; stroke: #4c4c4c; stroke-width: 5.625; stroke-linecap: square"/>
   </g>
   <g id="line2d_47">
    <path d="M 363.884708 200.56088 
" clip-path="url(#p42d0c5ab9b)" style="fill: none; stroke: #4c4c4c; stroke-width: 2; stroke-linecap: square"/>
    <g clip-path="url(#p42d0c5ab9b)">
     <use xlink:href="#maec2e25a9b" x="363.884708" y="200.56088" style="fill: #ffffff; stroke: #ffffff; stroke-width: 1.125"/>
    </g>
   </g>
   <g id="line2d_48">
    <path d="M 79.741986 65.297978 
L 100.789595 65.297978 
" clip-path="url(#p42d0c5ab9b)" style="fill: none; stroke: #000000; stroke-width: 1.5; stroke-linecap: square"/>
   </g>
   <g id="line2d_49">
    <path d="M 132.361009 65.297978 
L 153.408618 65.297978 
" clip-path="url(#p42d0c5ab9b)" style="fill: none; stroke: #000000; stroke-width: 1.5; stroke-linecap: square"/>
   </g>
   <g id="line2d_50">
    <path d="M 184.980031 65.297978 
L 206.02764 65.297978 
" clip-path="url(#p42d0c5ab9b)" style="fill: none; stroke: #000000; stroke-width: 1.5; stroke-linecap: square"/>
   </g>
   <g id="line2d_51">
    <path d="M 237.599054 65.297978 
L 258.646663 65.297978 
" clip-path="url(#p42d0c5ab9b)" style="fill: none; stroke: #000000; stroke-width: 1.5; stroke-linecap: square"/>
   </g>
   <g id="line2d_52">
    <path d="M 290.218076 65.297978 
L 311.265685 65.297978 
" clip-path="url(#p42d0c5ab9b)" style="fill: none; stroke: #000000; stroke-width: 1.5; stroke-linecap: square"/>
   </g>
   <g id="line2d_53">
    <path d="M 342.837099 65.297978 
L 363.884708 65.297978 
" clip-path="url(#p42d0c5ab9b)" style="fill: none; stroke: #000000; stroke-width: 1.5; stroke-linecap: square"/>
   </g>
   <g id="patch_5">
    <path d="M 54 256.32 
L 54 34.56 
" style="fill: none; stroke: #d3d3d3; stroke-width: 2; stroke-linejoin: miter; stroke-linecap: square"/>
   </g>
   <g id="patch_6">
    <path d="M 54 256.32 
L 388.8 256.32 
" style="fill: none; stroke: #d3d3d3; stroke-width: 2; stroke-linejoin: miter; stroke-linecap: square"/>
   </g>
   <g id="text_14">
    <text style="font: 14px 'Arial'; text-anchor: middle" x="90.265791" y="61.720285" transform="rotate(-0 90.265791 61.720285)">ns</text>
   </g>
   <g id="text_15">
    <text style="font: 14px 'Arial'; text-anchor: middle" x="142.884813" y="61.720285" transform="rotate(-0 142.884813 61.720285)">***</text>
   </g>
   <g id="text_16">
    <text style="font: 14px 'Arial'; text-anchor: middle" x="195.503836" y="61.720285" transform="rotate(-0 195.503836 61.720285)">*</text>
   </g>
   <g id="text_17">
    <text style="font: 14px 'Arial'; text-anchor: middle" x="248.122858" y="61.720285" transform="rotate(-0 248.122858 61.720285)">ns</text>
   </g>
   <g id="text_18">
    <text style="font: 14px 'Arial'; text-anchor: middle" x="300.741881" y="61.720285" transform="rotate(-0 300.741881 61.720285)">ns</text>
   </g>
   <g id="text_19">
    <text style="font: 14px 'Arial'; text-anchor: middle" x="353.360903" y="61.720285" transform="rotate(-0 353.360903 61.720285)">ns</text>
   </g>
   <g id="legend_1">
    <g id="patch_7">
     <path d="M 329.829375 101.629375 
L 379 101.629375 
Q 381.8 101.629375 381.8 98.829375 
L 381.8 44.36 
Q 381.8 41.56 379 41.56 
L 329.829375 41.56 
Q 327.029375 41.56 327.029375 44.36 
L 327.029375 98.829375 
Q 327.029375 101.629375 329.829375 101.629375 
z
" style="fill: #ffffff; opacity: 0.8; stroke: #d3d3d3; stroke-linejoin: miter"/>
    </g>
    <g id="text_20">
     <text style="font: 10px 'Arial'; text-anchor: start" x="341.908438" y="54.317813" transform="rotate(-0 341.908438 54.317813)">Layer</text>
    </g>
    <g id="patch_8">
     <path d="M 332.629375 73.443438 
L 353.629375 73.443438 
L 353.629375 63.643438 
L 332.629375 63.643438 
z
" style="fill: #a0c4d4; stroke: #4c4c4c; stroke-width: 1.25; stroke-linejoin: miter"/>
    </g>
    <g id="text_21">
     <text style="font: 14px 'Arial'; text-anchor: start" x="360.629375" y="73.443438" transform="rotate(-0 360.629375 73.443438)">L1</text>
    </g>
    <g id="patch_9">
     <path d="M 332.629375 93.246875 
L 353.629375 93.246875 
L 353.629375 83.446875 
L 332.629375 83.446875 
z
" style="fill: #6b639a; stroke: #4c4c4c; stroke-width: 1.25; stroke-linejoin: miter"/>
    </g>
    <g id="text_22">
     <text style="font: 14px 'Arial'; text-anchor: start" x="360.629375" y="93.246875" transform="rotate(-0 360.629375 93.246875)">L3</text>
    </g>
   </g>
  </g>
 </g>
 <defs>
  <clipPath id="p42d0c5ab9b">
   <rect x="54" y="34.56" width="334.8" height="221.76"/>
  </clipPath>
 </defs>
</svg>
